<svg width="507" height="169" viewBox="0 0 507 169" fill="none" xmlns="http://www.w3.org/2000/svg">
<g clip-path="url(#clip0_1152_980)">
<mask id="mask0_1152_980" style="mask-type:luminance" maskUnits="userSpaceOnUse" x="0" y="0" width="166" height="121">
<path d="M166 0H0V121H166V0Z" fill="white"/>
</mask>
<g mask="url(#mask0_1152_980)">
<path d="M-5.77832 112.207H159.491" stroke="black" stroke-opacity="0.48" stroke-width="0.196684" stroke-miterlimit="10"/>
<path d="M-5.77832 97.415H159.491" stroke="black" stroke-opacity="0.48" stroke-width="0.196684" stroke-miterlimit="10"/>
<path d="M-5.77832 82.626H159.491" stroke="black" stroke-opacity="0.48" stroke-width="0.196684" stroke-miterlimit="10"/>
<path d="M-5.77832 67.834H159.491" stroke="black" stroke-opacity="0.48" stroke-width="0.196684" stroke-miterlimit="10"/>
<path d="M-5.77832 53.042H159.491" stroke="black" stroke-opacity="0.48" stroke-width="0.196684" stroke-miterlimit="10"/>
<path d="M-5.77832 38.252H159.491" stroke="black" stroke-opacity="0.48" stroke-width="0.196684" stroke-miterlimit="10"/>
<path d="M-5.77832 23.4609H159.491" stroke="black" stroke-opacity="0.48" stroke-width="0.196684" stroke-miterlimit="10"/>
<path d="M-5.77832 8.66895H159.491" stroke="black" stroke-opacity="0.48" stroke-width="0.196684" stroke-miterlimit="10"/>
<path d="M146.779 -35.7041V156.58" stroke="black" stroke-opacity="0.48" stroke-width="0.196684" stroke-miterlimit="10"/>
<path d="M134.065 -35.7041V156.58" stroke="black" stroke-opacity="0.48" stroke-width="0.196684" stroke-miterlimit="10"/>
<path d="M121.352 -35.7041V156.58" stroke="black" stroke-opacity="0.48" stroke-width="0.196684" stroke-miterlimit="10"/>
<path d="M108.638 -35.7041V156.58" stroke="black" stroke-opacity="0.48" stroke-width="0.196684" stroke-miterlimit="10"/>
<path d="M95.9268 -35.7041V156.58" stroke="black" stroke-opacity="0.48" stroke-width="0.196684" stroke-miterlimit="10"/>
<path d="M83.2129 -35.7041V156.58" stroke="black" stroke-opacity="0.48" stroke-width="0.196684" stroke-miterlimit="10"/>
<path d="M70.4995 -35.7041V156.58" stroke="black" stroke-opacity="0.48" stroke-width="0.196684" stroke-miterlimit="10"/>
<path d="M57.7881 -35.7041V156.58" stroke="black" stroke-opacity="0.48" stroke-width="0.196684" stroke-miterlimit="10"/>
<path d="M45.0742 -35.7041V156.58" stroke="black" stroke-opacity="0.48" stroke-width="0.196684" stroke-miterlimit="10"/>
<path d="M32.3604 -35.7041V156.58" stroke="black" stroke-opacity="0.48" stroke-width="0.196684" stroke-miterlimit="10"/>
<path d="M19.6489 -35.7041V156.58" stroke="black" stroke-opacity="0.48" stroke-width="0.196684" stroke-miterlimit="10"/>
<path d="M6.93506 -35.7041V156.58" stroke="black" stroke-opacity="0.48" stroke-width="0.196684" stroke-miterlimit="10"/>
<path d="M6.95698 10.0071C7.61091 10.0071 8.14102 9.39035 8.14102 8.62953C8.14102 7.86872 7.61091 7.25195 6.95698 7.25195C6.30306 7.25195 5.77295 7.86872 5.77295 8.62953C5.77295 9.39035 6.30306 10.0071 6.95698 10.0071Z" fill="black" fill-opacity="0.48"/>
<path d="M19.6704 10.0071C20.3243 10.0071 20.8544 9.39035 20.8544 8.62953C20.8544 7.86872 20.3243 7.25195 19.6704 7.25195C19.0164 7.25195 18.4863 7.86872 18.4863 8.62953C18.4863 9.39035 19.0164 10.0071 19.6704 10.0071Z" fill="black" fill-opacity="0.48"/>
<path d="M32.3842 10.0071C33.0382 10.0071 33.5683 9.39035 33.5683 8.62953C33.5683 7.86872 33.0382 7.25195 32.3842 7.25195C31.7303 7.25195 31.2002 7.86872 31.2002 8.62953C31.2002 9.39035 31.7303 10.0071 32.3842 10.0071Z" fill="black" fill-opacity="0.48"/>
<path d="M45.0976 10.0071C45.7515 10.0071 46.2816 9.39035 46.2816 8.62953C46.2816 7.86872 45.7515 7.25195 45.0976 7.25195C44.4437 7.25195 43.9136 7.86872 43.9136 8.62953C43.9136 9.39035 44.4437 10.0071 45.0976 10.0071Z" fill="black" fill-opacity="0.48"/>
<path d="M57.8115 10.0071C58.4654 10.0071 58.9955 9.39035 58.9955 8.62953C58.9955 7.86872 58.4654 7.25195 57.8115 7.25195C57.1576 7.25195 56.6274 7.86872 56.6274 8.62953C56.6274 9.39035 57.1576 10.0071 57.8115 10.0071Z" fill="black" fill-opacity="0.48"/>
<path d="M70.5249 10.0071C71.1788 10.0071 71.7089 9.39035 71.7089 8.62953C71.7089 7.86872 71.1788 7.25195 70.5249 7.25195C69.8709 7.25195 69.3408 7.86872 69.3408 8.62953C69.3408 9.39035 69.8709 10.0071 70.5249 10.0071Z" fill="black" fill-opacity="0.48"/>
<path d="M83.2387 10.0071C83.8926 10.0071 84.4228 9.39035 84.4228 8.62953C84.4228 7.86872 83.8926 7.25195 83.2387 7.25195C82.5848 7.25195 82.0547 7.86872 82.0547 8.62953C82.0547 9.39035 82.5848 10.0071 83.2387 10.0071Z" fill="black" fill-opacity="0.48"/>
<path d="M95.9541 10.0071C96.608 10.0071 97.1381 9.39035 97.1381 8.62953C97.1381 7.86872 96.608 7.25195 95.9541 7.25195C95.3001 7.25195 94.77 7.86872 94.77 8.62953C94.77 9.39035 95.3001 10.0071 95.9541 10.0071Z" fill="black" fill-opacity="0.48"/>
<path d="M108.668 10.0071C109.322 10.0071 109.852 9.39035 109.852 8.62953C109.852 7.86872 109.322 7.25195 108.668 7.25195C108.014 7.25195 107.484 7.86872 107.484 8.62953C107.484 9.39035 108.014 10.0071 108.668 10.0071Z" fill="black" fill-opacity="0.48"/>
<path d="M121.381 10.0071C122.035 10.0071 122.565 9.39035 122.565 8.62953C122.565 7.86872 122.035 7.25195 121.381 7.25195C120.727 7.25195 120.197 7.86872 120.197 8.62953C120.197 9.39035 120.727 10.0071 121.381 10.0071Z" fill="black" fill-opacity="0.48"/>
<path d="M134.095 10.0071C134.749 10.0071 135.279 9.39035 135.279 8.62953C135.279 7.86872 134.749 7.25195 134.095 7.25195C133.441 7.25195 132.911 7.86872 132.911 8.62953C132.911 9.39035 133.441 10.0071 134.095 10.0071Z" fill="black" fill-opacity="0.48"/>
<path d="M146.809 10.0071C147.463 10.0071 147.993 9.39035 147.993 8.62953C147.993 7.86872 147.463 7.25195 146.809 7.25195C146.155 7.25195 145.625 7.86872 145.625 8.62953C145.625 9.39035 146.155 10.0071 146.809 10.0071Z" fill="black" fill-opacity="0.48"/>
<path d="M6.95698 24.8245C7.61091 24.8245 8.14102 24.2077 8.14102 23.4469C8.14102 22.6861 7.61091 22.0693 6.95698 22.0693C6.30306 22.0693 5.77295 22.6861 5.77295 23.4469C5.77295 24.2077 6.30306 24.8245 6.95698 24.8245Z" fill="black" fill-opacity="0.48"/>
<path d="M19.6704 24.8245C20.3243 24.8245 20.8544 24.2077 20.8544 23.4469C20.8544 22.6861 20.3243 22.0693 19.6704 22.0693C19.0164 22.0693 18.4863 22.6861 18.4863 23.4469C18.4863 24.2077 19.0164 24.8245 19.6704 24.8245Z" fill="black" fill-opacity="0.48"/>
<path d="M32.3842 24.8245C33.0382 24.8245 33.5683 24.2077 33.5683 23.4469C33.5683 22.6861 33.0382 22.0693 32.3842 22.0693C31.7303 22.0693 31.2002 22.6861 31.2002 23.4469C31.2002 24.2077 31.7303 24.8245 32.3842 24.8245Z" fill="black" fill-opacity="0.48"/>
<path d="M45.0976 24.8245C45.7515 24.8245 46.2816 24.2077 46.2816 23.4469C46.2816 22.6861 45.7515 22.0693 45.0976 22.0693C44.4437 22.0693 43.9136 22.6861 43.9136 23.4469C43.9136 24.2077 44.4437 24.8245 45.0976 24.8245Z" fill="black" fill-opacity="0.48"/>
<path d="M57.8115 24.8245C58.4654 24.8245 58.9955 24.2077 58.9955 23.4469C58.9955 22.6861 58.4654 22.0693 57.8115 22.0693C57.1576 22.0693 56.6274 22.6861 56.6274 23.4469C56.6274 24.2077 57.1576 24.8245 57.8115 24.8245Z" fill="black" fill-opacity="0.48"/>
<path d="M70.5249 24.8245C71.1788 24.8245 71.7089 24.2077 71.7089 23.4469C71.7089 22.6861 71.1788 22.0693 70.5249 22.0693C69.8709 22.0693 69.3408 22.6861 69.3408 23.4469C69.3408 24.2077 69.8709 24.8245 70.5249 24.8245Z" fill="black" fill-opacity="0.48"/>
<path d="M83.2387 24.8245C83.8926 24.8245 84.4228 24.2077 84.4228 23.4469C84.4228 22.6861 83.8926 22.0693 83.2387 22.0693C82.5848 22.0693 82.0547 22.6861 82.0547 23.4469C82.0547 24.2077 82.5848 24.8245 83.2387 24.8245Z" fill="black" fill-opacity="0.48"/>
<path d="M95.9541 24.8245C96.608 24.8245 97.1381 24.2077 97.1381 23.4469C97.1381 22.6861 96.608 22.0693 95.9541 22.0693C95.3001 22.0693 94.77 22.6861 94.77 23.4469C94.77 24.2077 95.3001 24.8245 95.9541 24.8245Z" fill="black" fill-opacity="0.48"/>
<path d="M108.668 24.8245C109.322 24.8245 109.852 24.2077 109.852 23.4469C109.852 22.6861 109.322 22.0693 108.668 22.0693C108.014 22.0693 107.484 22.6861 107.484 23.4469C107.484 24.2077 108.014 24.8245 108.668 24.8245Z" fill="black" fill-opacity="0.48"/>
<path d="M121.381 24.8245C122.035 24.8245 122.565 24.2077 122.565 23.4469C122.565 22.6861 122.035 22.0693 121.381 22.0693C120.727 22.0693 120.197 22.6861 120.197 23.4469C120.197 24.2077 120.727 24.8245 121.381 24.8245Z" fill="black" fill-opacity="0.48"/>
<path d="M134.095 24.8245C134.749 24.8245 135.279 24.2077 135.279 23.4469C135.279 22.6861 134.749 22.0693 134.095 22.0693C133.441 22.0693 132.911 22.6861 132.911 23.4469C132.911 24.2077 133.441 24.8245 134.095 24.8245Z" fill="black" fill-opacity="0.48"/>
<path d="M146.809 24.8245C147.463 24.8245 147.993 24.2077 147.993 23.4469C147.993 22.6861 147.463 22.0693 146.809 22.0693C146.155 22.0693 145.625 22.6861 145.625 23.4469C145.625 24.2077 146.155 24.8245 146.809 24.8245Z" fill="black" fill-opacity="0.48"/>
<path d="M6.95698 39.6438C7.61091 39.6438 8.14102 39.0271 8.14102 38.2663C8.14102 37.5054 7.61091 36.8887 6.95698 36.8887C6.30306 36.8887 5.77295 37.5054 5.77295 38.2663C5.77295 39.0271 6.30306 39.6438 6.95698 39.6438Z" fill="black" fill-opacity="0.48"/>
<path d="M19.6704 39.6438C20.3243 39.6438 20.8544 39.0271 20.8544 38.2663C20.8544 37.5054 20.3243 36.8887 19.6704 36.8887C19.0164 36.8887 18.4863 37.5054 18.4863 38.2663C18.4863 39.0271 19.0164 39.6438 19.6704 39.6438Z" fill="black" fill-opacity="0.48"/>
<path d="M32.3842 39.6438C33.0382 39.6438 33.5683 39.0271 33.5683 38.2663C33.5683 37.5054 33.0382 36.8887 32.3842 36.8887C31.7303 36.8887 31.2002 37.5054 31.2002 38.2663C31.2002 39.0271 31.7303 39.6438 32.3842 39.6438Z" fill="black" fill-opacity="0.48"/>
<path d="M45.0976 39.6438C45.7515 39.6438 46.2816 39.0271 46.2816 38.2663C46.2816 37.5054 45.7515 36.8887 45.0976 36.8887C44.4437 36.8887 43.9136 37.5054 43.9136 38.2663C43.9136 39.0271 44.4437 39.6438 45.0976 39.6438Z" fill="black" fill-opacity="0.48"/>
<path d="M57.8115 39.6438C58.4654 39.6438 58.9955 39.0271 58.9955 38.2663C58.9955 37.5054 58.4654 36.8887 57.8115 36.8887C57.1576 36.8887 56.6274 37.5054 56.6274 38.2663C56.6274 39.0271 57.1576 39.6438 57.8115 39.6438Z" fill="black" fill-opacity="0.48"/>
<path d="M70.5249 39.6438C71.1788 39.6438 71.7089 39.0271 71.7089 38.2663C71.7089 37.5054 71.1788 36.8887 70.5249 36.8887C69.8709 36.8887 69.3408 37.5054 69.3408 38.2663C69.3408 39.0271 69.8709 39.6438 70.5249 39.6438Z" fill="black" fill-opacity="0.48"/>
<path d="M83.2387 39.6438C83.8926 39.6438 84.4228 39.0271 84.4228 38.2663C84.4228 37.5054 83.8926 36.8887 83.2387 36.8887C82.5848 36.8887 82.0547 37.5054 82.0547 38.2663C82.0547 39.0271 82.5848 39.6438 83.2387 39.6438Z" fill="black" fill-opacity="0.48"/>
<path d="M95.9541 39.6438C96.608 39.6438 97.1381 39.0271 97.1381 38.2663C97.1381 37.5054 96.608 36.8887 95.9541 36.8887C95.3001 36.8887 94.77 37.5054 94.77 38.2663C94.77 39.0271 95.3001 39.6438 95.9541 39.6438Z" fill="black" fill-opacity="0.48"/>
<path d="M108.668 39.6438C109.322 39.6438 109.852 39.0271 109.852 38.2663C109.852 37.5054 109.322 36.8887 108.668 36.8887C108.014 36.8887 107.484 37.5054 107.484 38.2663C107.484 39.0271 108.014 39.6438 108.668 39.6438Z" fill="black" fill-opacity="0.48"/>
<path d="M121.381 39.6438C122.035 39.6438 122.565 39.0271 122.565 38.2663C122.565 37.5054 122.035 36.8887 121.381 36.8887C120.727 36.8887 120.197 37.5054 120.197 38.2663C120.197 39.0271 120.727 39.6438 121.381 39.6438Z" fill="black" fill-opacity="0.48"/>
<path d="M134.095 39.6438C134.749 39.6438 135.279 39.0271 135.279 38.2663C135.279 37.5054 134.749 36.8887 134.095 36.8887C133.441 36.8887 132.911 37.5054 132.911 38.2663C132.911 39.0271 133.441 39.6438 134.095 39.6438Z" fill="black" fill-opacity="0.48"/>
<path d="M146.809 39.6438C147.463 39.6438 147.993 39.0271 147.993 38.2663C147.993 37.5054 147.463 36.8887 146.809 36.8887C146.155 36.8887 145.625 37.5054 145.625 38.2663C145.625 39.0271 146.155 39.6438 146.809 39.6438Z" fill="black" fill-opacity="0.48"/>
<path d="M6.95698 54.4602C7.61091 54.4602 8.14102 53.8435 8.14102 53.0827C8.14102 52.3218 7.61091 51.7051 6.95698 51.7051C6.30306 51.7051 5.77295 52.3218 5.77295 53.0827C5.77295 53.8435 6.30306 54.4602 6.95698 54.4602Z" fill="black" fill-opacity="0.48"/>
<path d="M19.6704 54.4602C20.3243 54.4602 20.8544 53.8435 20.8544 53.0827C20.8544 52.3218 20.3243 51.7051 19.6704 51.7051C19.0164 51.7051 18.4863 52.3218 18.4863 53.0827C18.4863 53.8435 19.0164 54.4602 19.6704 54.4602Z" fill="black" fill-opacity="0.48"/>
<path d="M32.3842 54.4602C33.0382 54.4602 33.5683 53.8435 33.5683 53.0827C33.5683 52.3218 33.0382 51.7051 32.3842 51.7051C31.7303 51.7051 31.2002 52.3218 31.2002 53.0827C31.2002 53.8435 31.7303 54.4602 32.3842 54.4602Z" fill="black" fill-opacity="0.48"/>
<path d="M45.0976 54.4602C45.7515 54.4602 46.2816 53.8435 46.2816 53.0827C46.2816 52.3218 45.7515 51.7051 45.0976 51.7051C44.4437 51.7051 43.9136 52.3218 43.9136 53.0827C43.9136 53.8435 44.4437 54.4602 45.0976 54.4602Z" fill="black" fill-opacity="0.48"/>
<path d="M57.8115 54.4602C58.4654 54.4602 58.9955 53.8435 58.9955 53.0827C58.9955 52.3218 58.4654 51.7051 57.8115 51.7051C57.1576 51.7051 56.6274 52.3218 56.6274 53.0827C56.6274 53.8435 57.1576 54.4602 57.8115 54.4602Z" fill="black" fill-opacity="0.48"/>
<path d="M70.5249 54.4602C71.1788 54.4602 71.7089 53.8435 71.7089 53.0827C71.7089 52.3218 71.1788 51.7051 70.5249 51.7051C69.8709 51.7051 69.3408 52.3218 69.3408 53.0827C69.3408 53.8435 69.8709 54.4602 70.5249 54.4602Z" fill="black" fill-opacity="0.48"/>
<path d="M83.2387 54.4602C83.8926 54.4602 84.4228 53.8435 84.4228 53.0827C84.4228 52.3218 83.8926 51.7051 83.2387 51.7051C82.5848 51.7051 82.0547 52.3218 82.0547 53.0827C82.0547 53.8435 82.5848 54.4602 83.2387 54.4602Z" fill="black" fill-opacity="0.48"/>
<path d="M95.9541 54.4602C96.608 54.4602 97.1381 53.8435 97.1381 53.0827C97.1381 52.3218 96.608 51.7051 95.9541 51.7051C95.3001 51.7051 94.77 52.3218 94.77 53.0827C94.77 53.8435 95.3001 54.4602 95.9541 54.4602Z" fill="black" fill-opacity="0.48"/>
<path d="M108.668 54.4602C109.322 54.4602 109.852 53.8435 109.852 53.0827C109.852 52.3218 109.322 51.7051 108.668 51.7051C108.014 51.7051 107.484 52.3218 107.484 53.0827C107.484 53.8435 108.014 54.4602 108.668 54.4602Z" fill="black" fill-opacity="0.48"/>
<path d="M121.381 54.4602C122.035 54.4602 122.565 53.8435 122.565 53.0827C122.565 52.3218 122.035 51.7051 121.381 51.7051C120.727 51.7051 120.197 52.3218 120.197 53.0827C120.197 53.8435 120.727 54.4602 121.381 54.4602Z" fill="black" fill-opacity="0.48"/>
<path d="M134.095 54.4602C134.749 54.4602 135.279 53.8435 135.279 53.0827C135.279 52.3218 134.749 51.7051 134.095 51.7051C133.441 51.7051 132.911 52.3218 132.911 53.0827C132.911 53.8435 133.441 54.4602 134.095 54.4602Z" fill="black" fill-opacity="0.48"/>
<path d="M146.809 54.4602C147.463 54.4602 147.993 53.8435 147.993 53.0827C147.993 52.3218 147.463 51.7051 146.809 51.7051C146.155 51.7051 145.625 52.3218 145.625 53.0827C145.625 53.8435 146.155 54.4602 146.809 54.4602Z" fill="black" fill-opacity="0.48"/>
<path d="M6.95698 69.2776C7.61091 69.2776 8.14102 68.6609 8.14102 67.9C8.14102 67.1392 7.61091 66.5225 6.95698 66.5225C6.30306 66.5225 5.77295 67.1392 5.77295 67.9C5.77295 68.6609 6.30306 69.2776 6.95698 69.2776Z" fill="black" fill-opacity="0.48"/>
<path d="M19.6704 69.2776C20.3243 69.2776 20.8544 68.6609 20.8544 67.9C20.8544 67.1392 20.3243 66.5225 19.6704 66.5225C19.0164 66.5225 18.4863 67.1392 18.4863 67.9C18.4863 68.6609 19.0164 69.2776 19.6704 69.2776Z" fill="black" fill-opacity="0.48"/>
<path d="M32.3842 69.2776C33.0382 69.2776 33.5683 68.6609 33.5683 67.9C33.5683 67.1392 33.0382 66.5225 32.3842 66.5225C31.7303 66.5225 31.2002 67.1392 31.2002 67.9C31.2002 68.6609 31.7303 69.2776 32.3842 69.2776Z" fill="black" fill-opacity="0.48"/>
<path d="M45.0976 69.2776C45.7515 69.2776 46.2816 68.6609 46.2816 67.9C46.2816 67.1392 45.7515 66.5225 45.0976 66.5225C44.4437 66.5225 43.9136 67.1392 43.9136 67.9C43.9136 68.6609 44.4437 69.2776 45.0976 69.2776Z" fill="black" fill-opacity="0.48"/>
<path d="M57.8115 69.2776C58.4654 69.2776 58.9955 68.6609 58.9955 67.9C58.9955 67.1392 58.4654 66.5225 57.8115 66.5225C57.1576 66.5225 56.6274 67.1392 56.6274 67.9C56.6274 68.6609 57.1576 69.2776 57.8115 69.2776Z" fill="black" fill-opacity="0.48"/>
<path d="M70.5249 69.2776C71.1788 69.2776 71.7089 68.6609 71.7089 67.9C71.7089 67.1392 71.1788 66.5225 70.5249 66.5225C69.8709 66.5225 69.3408 67.1392 69.3408 67.9C69.3408 68.6609 69.8709 69.2776 70.5249 69.2776Z" fill="black" fill-opacity="0.48"/>
<path d="M83.2387 69.2776C83.8926 69.2776 84.4228 68.6609 84.4228 67.9C84.4228 67.1392 83.8926 66.5225 83.2387 66.5225C82.5848 66.5225 82.0547 67.1392 82.0547 67.9C82.0547 68.6609 82.5848 69.2776 83.2387 69.2776Z" fill="black" fill-opacity="0.48"/>
<path d="M95.9541 69.2776C96.608 69.2776 97.1381 68.6609 97.1381 67.9C97.1381 67.1392 96.608 66.5225 95.9541 66.5225C95.3001 66.5225 94.77 67.1392 94.77 67.9C94.77 68.6609 95.3001 69.2776 95.9541 69.2776Z" fill="black" fill-opacity="0.48"/>
<path d="M108.668 69.2776C109.322 69.2776 109.852 68.6609 109.852 67.9C109.852 67.1392 109.322 66.5225 108.668 66.5225C108.014 66.5225 107.484 67.1392 107.484 67.9C107.484 68.6609 108.014 69.2776 108.668 69.2776Z" fill="black" fill-opacity="0.48"/>
<path d="M121.381 69.2776C122.035 69.2776 122.565 68.6609 122.565 67.9C122.565 67.1392 122.035 66.5225 121.381 66.5225C120.727 66.5225 120.197 67.1392 120.197 67.9C120.197 68.6609 120.727 69.2776 121.381 69.2776Z" fill="black" fill-opacity="0.48"/>
<path d="M134.095 69.2776C134.749 69.2776 135.279 68.6609 135.279 67.9C135.279 67.1392 134.749 66.5225 134.095 66.5225C133.441 66.5225 132.911 67.1392 132.911 67.9C132.911 68.6609 133.441 69.2776 134.095 69.2776Z" fill="black" fill-opacity="0.48"/>
<path d="M146.809 69.2776C147.463 69.2776 147.993 68.6609 147.993 67.9C147.993 67.1392 147.463 66.5225 146.809 66.5225C146.155 66.5225 145.625 67.1392 145.625 67.9C145.625 68.6609 146.155 69.2776 146.809 69.2776Z" fill="black" fill-opacity="0.48"/>
<path d="M6.95698 84.097C7.61091 84.097 8.14102 83.4802 8.14102 82.7194C8.14102 81.9586 7.61091 81.3418 6.95698 81.3418C6.30306 81.3418 5.77295 81.9586 5.77295 82.7194C5.77295 83.4802 6.30306 84.097 6.95698 84.097Z" fill="black" fill-opacity="0.48"/>
<path d="M19.6704 84.097C20.3243 84.097 20.8544 83.4802 20.8544 82.7194C20.8544 81.9586 20.3243 81.3418 19.6704 81.3418C19.0164 81.3418 18.4863 81.9586 18.4863 82.7194C18.4863 83.4802 19.0164 84.097 19.6704 84.097Z" fill="black" fill-opacity="0.48"/>
<path d="M32.3842 84.097C33.0382 84.097 33.5683 83.4802 33.5683 82.7194C33.5683 81.9586 33.0382 81.3418 32.3842 81.3418C31.7303 81.3418 31.2002 81.9586 31.2002 82.7194C31.2002 83.4802 31.7303 84.097 32.3842 84.097Z" fill="black" fill-opacity="0.48"/>
<path d="M45.0976 84.097C45.7515 84.097 46.2816 83.4802 46.2816 82.7194C46.2816 81.9586 45.7515 81.3418 45.0976 81.3418C44.4437 81.3418 43.9136 81.9586 43.9136 82.7194C43.9136 83.4802 44.4437 84.097 45.0976 84.097Z" fill="black" fill-opacity="0.48"/>
<path d="M57.8115 84.097C58.4654 84.097 58.9955 83.4802 58.9955 82.7194C58.9955 81.9586 58.4654 81.3418 57.8115 81.3418C57.1576 81.3418 56.6274 81.9586 56.6274 82.7194C56.6274 83.4802 57.1576 84.097 57.8115 84.097Z" fill="black" fill-opacity="0.48"/>
<path d="M70.5249 84.097C71.1788 84.097 71.7089 83.4802 71.7089 82.7194C71.7089 81.9586 71.1788 81.3418 70.5249 81.3418C69.8709 81.3418 69.3408 81.9586 69.3408 82.7194C69.3408 83.4802 69.8709 84.097 70.5249 84.097Z" fill="black" fill-opacity="0.48"/>
<path d="M83.2387 84.097C83.8926 84.097 84.4228 83.4802 84.4228 82.7194C84.4228 81.9586 83.8926 81.3418 83.2387 81.3418C82.5848 81.3418 82.0547 81.9586 82.0547 82.7194C82.0547 83.4802 82.5848 84.097 83.2387 84.097Z" fill="black" fill-opacity="0.48"/>
<path d="M95.9541 84.097C96.608 84.097 97.1381 83.4802 97.1381 82.7194C97.1381 81.9586 96.608 81.3418 95.9541 81.3418C95.3001 81.3418 94.77 81.9586 94.77 82.7194C94.77 83.4802 95.3001 84.097 95.9541 84.097Z" fill="black" fill-opacity="0.48"/>
<path d="M108.668 84.097C109.322 84.097 109.852 83.4802 109.852 82.7194C109.852 81.9586 109.322 81.3418 108.668 81.3418C108.014 81.3418 107.484 81.9586 107.484 82.7194C107.484 83.4802 108.014 84.097 108.668 84.097Z" fill="black" fill-opacity="0.48"/>
<path d="M121.381 84.097C122.035 84.097 122.565 83.4802 122.565 82.7194C122.565 81.9586 122.035 81.3418 121.381 81.3418C120.727 81.3418 120.197 81.9586 120.197 82.7194C120.197 83.4802 120.727 84.097 121.381 84.097Z" fill="black" fill-opacity="0.48"/>
<path d="M134.095 84.097C134.749 84.097 135.279 83.4802 135.279 82.7194C135.279 81.9586 134.749 81.3418 134.095 81.3418C133.441 81.3418 132.911 81.9586 132.911 82.7194C132.911 83.4802 133.441 84.097 134.095 84.097Z" fill="black" fill-opacity="0.48"/>
<path d="M146.809 84.097C147.463 84.097 147.993 83.4802 147.993 82.7194C147.993 81.9586 147.463 81.3418 146.809 81.3418C146.155 81.3418 145.625 81.9586 145.625 82.7194C145.625 83.4802 146.155 84.097 146.809 84.097Z" fill="black" fill-opacity="0.48"/>
<path d="M6.95698 98.9143C7.61091 98.9143 8.14102 98.2976 8.14102 97.5368C8.14102 96.7759 7.61091 96.1592 6.95698 96.1592C6.30306 96.1592 5.77295 96.7759 5.77295 97.5368C5.77295 98.2976 6.30306 98.9143 6.95698 98.9143Z" fill="black" fill-opacity="0.48"/>
<path d="M19.6704 98.9143C20.3243 98.9143 20.8544 98.2976 20.8544 97.5368C20.8544 96.7759 20.3243 96.1592 19.6704 96.1592C19.0164 96.1592 18.4863 96.7759 18.4863 97.5368C18.4863 98.2976 19.0164 98.9143 19.6704 98.9143Z" fill="black" fill-opacity="0.48"/>
<path d="M32.3842 98.9143C33.0382 98.9143 33.5683 98.2976 33.5683 97.5368C33.5683 96.7759 33.0382 96.1592 32.3842 96.1592C31.7303 96.1592 31.2002 96.7759 31.2002 97.5368C31.2002 98.2976 31.7303 98.9143 32.3842 98.9143Z" fill="black" fill-opacity="0.48"/>
<path d="M45.0976 98.9143C45.7515 98.9143 46.2816 98.2976 46.2816 97.5368C46.2816 96.7759 45.7515 96.1592 45.0976 96.1592C44.4437 96.1592 43.9136 96.7759 43.9136 97.5368C43.9136 98.2976 44.4437 98.9143 45.0976 98.9143Z" fill="black" fill-opacity="0.48"/>
<path d="M57.8115 98.9143C58.4654 98.9143 58.9955 98.2976 58.9955 97.5368C58.9955 96.7759 58.4654 96.1592 57.8115 96.1592C57.1576 96.1592 56.6274 96.7759 56.6274 97.5368C56.6274 98.2976 57.1576 98.9143 57.8115 98.9143Z" fill="black" fill-opacity="0.48"/>
<path d="M70.5249 98.9143C71.1788 98.9143 71.7089 98.2976 71.7089 97.5368C71.7089 96.7759 71.1788 96.1592 70.5249 96.1592C69.8709 96.1592 69.3408 96.7759 69.3408 97.5368C69.3408 98.2976 69.8709 98.9143 70.5249 98.9143Z" fill="black" fill-opacity="0.48"/>
<path d="M83.2387 98.9143C83.8926 98.9143 84.4228 98.2976 84.4228 97.5368C84.4228 96.7759 83.8926 96.1592 83.2387 96.1592C82.5848 96.1592 82.0547 96.7759 82.0547 97.5368C82.0547 98.2976 82.5848 98.9143 83.2387 98.9143Z" fill="black" fill-opacity="0.48"/>
<path d="M95.9541 98.9143C96.608 98.9143 97.1381 98.2976 97.1381 97.5368C97.1381 96.7759 96.608 96.1592 95.9541 96.1592C95.3001 96.1592 94.77 96.7759 94.77 97.5368C94.77 98.2976 95.3001 98.9143 95.9541 98.9143Z" fill="black" fill-opacity="0.48"/>
<path d="M108.668 98.9143C109.322 98.9143 109.852 98.2976 109.852 97.5368C109.852 96.7759 109.322 96.1592 108.668 96.1592C108.014 96.1592 107.484 96.7759 107.484 97.5368C107.484 98.2976 108.014 98.9143 108.668 98.9143Z" fill="black" fill-opacity="0.48"/>
<path d="M121.381 98.9143C122.035 98.9143 122.565 98.2976 122.565 97.5368C122.565 96.7759 122.035 96.1592 121.381 96.1592C120.727 96.1592 120.197 96.7759 120.197 97.5368C120.197 98.2976 120.727 98.9143 121.381 98.9143Z" fill="black" fill-opacity="0.48"/>
<path d="M134.095 98.9143C134.749 98.9143 135.279 98.2976 135.279 97.5368C135.279 96.7759 134.749 96.1592 134.095 96.1592C133.441 96.1592 132.911 96.7759 132.911 97.5368C132.911 98.2976 133.441 98.9143 134.095 98.9143Z" fill="black" fill-opacity="0.48"/>
<path d="M146.809 98.9143C147.463 98.9143 147.993 98.2976 147.993 97.5368C147.993 96.7759 147.463 96.1592 146.809 96.1592C146.155 96.1592 145.625 96.7759 145.625 97.5368C145.625 98.2976 146.155 98.9143 146.809 98.9143Z" fill="black" fill-opacity="0.48"/>
<path d="M6.95698 113.731C7.61091 113.731 8.14102 113.114 8.14102 112.353C8.14102 111.592 7.61091 110.976 6.95698 110.976C6.30306 110.976 5.77295 111.592 5.77295 112.353C5.77295 113.114 6.30306 113.731 6.95698 113.731Z" fill="black" fill-opacity="0.48"/>
<path d="M19.6704 113.731C20.3243 113.731 20.8544 113.114 20.8544 112.353C20.8544 111.592 20.3243 110.976 19.6704 110.976C19.0164 110.976 18.4863 111.592 18.4863 112.353C18.4863 113.114 19.0164 113.731 19.6704 113.731Z" fill="black" fill-opacity="0.48"/>
<path d="M32.3842 113.731C33.0382 113.731 33.5683 113.114 33.5683 112.353C33.5683 111.592 33.0382 110.976 32.3842 110.976C31.7303 110.976 31.2002 111.592 31.2002 112.353C31.2002 113.114 31.7303 113.731 32.3842 113.731Z" fill="black" fill-opacity="0.48"/>
<path d="M45.0976 113.731C45.7515 113.731 46.2816 113.114 46.2816 112.353C46.2816 111.592 45.7515 110.976 45.0976 110.976C44.4437 110.976 43.9136 111.592 43.9136 112.353C43.9136 113.114 44.4437 113.731 45.0976 113.731Z" fill="black" fill-opacity="0.48"/>
<path d="M57.8115 113.731C58.4654 113.731 58.9955 113.114 58.9955 112.353C58.9955 111.592 58.4654 110.976 57.8115 110.976C57.1576 110.976 56.6274 111.592 56.6274 112.353C56.6274 113.114 57.1576 113.731 57.8115 113.731Z" fill="black" fill-opacity="0.48"/>
<path d="M70.5249 113.731C71.1788 113.731 71.7089 113.114 71.7089 112.353C71.7089 111.592 71.1788 110.976 70.5249 110.976C69.8709 110.976 69.3408 111.592 69.3408 112.353C69.3408 113.114 69.8709 113.731 70.5249 113.731Z" fill="black" fill-opacity="0.48"/>
<path d="M83.2387 113.731C83.8926 113.731 84.4228 113.114 84.4228 112.353C84.4228 111.592 83.8926 110.976 83.2387 110.976C82.5848 110.976 82.0547 111.592 82.0547 112.353C82.0547 113.114 82.5848 113.731 83.2387 113.731Z" fill="black" fill-opacity="0.48"/>
<path d="M95.9541 113.731C96.608 113.731 97.1381 113.114 97.1381 112.353C97.1381 111.592 96.608 110.976 95.9541 110.976C95.3001 110.976 94.77 111.592 94.77 112.353C94.77 113.114 95.3001 113.731 95.9541 113.731Z" fill="black" fill-opacity="0.48"/>
<path d="M108.668 113.731C109.322 113.731 109.852 113.114 109.852 112.353C109.852 111.592 109.322 110.976 108.668 110.976C108.014 110.976 107.484 111.592 107.484 112.353C107.484 113.114 108.014 113.731 108.668 113.731Z" fill="black" fill-opacity="0.48"/>
<path d="M121.381 113.731C122.035 113.731 122.565 113.114 122.565 112.353C122.565 111.592 122.035 110.976 121.381 110.976C120.727 110.976 120.197 111.592 120.197 112.353C120.197 113.114 120.727 113.731 121.381 113.731Z" fill="black" fill-opacity="0.48"/>
<path d="M134.095 113.731C134.749 113.731 135.279 113.114 135.279 112.353C135.279 111.592 134.749 110.976 134.095 110.976C133.441 110.976 132.911 111.592 132.911 112.353C132.911 113.114 133.441 113.731 134.095 113.731Z" fill="black" fill-opacity="0.48"/>
<path d="M146.809 113.731C147.463 113.731 147.993 113.114 147.993 112.353C147.993 111.592 147.463 110.976 146.809 110.976C146.155 110.976 145.625 111.592 145.625 112.353C145.625 113.114 146.155 113.731 146.809 113.731Z" fill="black" fill-opacity="0.48"/>
<path d="M159.501 10.0071C160.155 10.0071 160.685 9.39035 160.685 8.62953C160.685 7.86872 160.155 7.25195 159.501 7.25195C158.847 7.25195 158.317 7.86872 158.317 8.62953C158.317 9.39035 158.847 10.0071 159.501 10.0071Z" fill="black" fill-opacity="0.48"/>
<path d="M159.501 24.8245C160.155 24.8245 160.685 24.2077 160.685 23.4469C160.685 22.6861 160.155 22.0693 159.501 22.0693C158.847 22.0693 158.317 22.6861 158.317 23.4469C158.317 24.2077 158.847 24.8245 159.501 24.8245Z" fill="black" fill-opacity="0.48"/>
<path d="M159.501 39.6438C160.155 39.6438 160.685 39.0271 160.685 38.2663C160.685 37.5054 160.155 36.8887 159.501 36.8887C158.847 36.8887 158.317 37.5054 158.317 38.2663C158.317 39.0271 158.847 39.6438 159.501 39.6438Z" fill="black" fill-opacity="0.48"/>
<path d="M159.501 54.4602C160.155 54.4602 160.685 53.8435 160.685 53.0827C160.685 52.3218 160.155 51.7051 159.501 51.7051C158.847 51.7051 158.317 52.3218 158.317 53.0827C158.317 53.8435 158.847 54.4602 159.501 54.4602Z" fill="black" fill-opacity="0.48"/>
<path d="M159.501 69.2776C160.155 69.2776 160.685 68.6609 160.685 67.9C160.685 67.1392 160.155 66.5225 159.501 66.5225C158.847 66.5225 158.317 67.1392 158.317 67.9C158.317 68.6609 158.847 69.2776 159.501 69.2776Z" fill="black" fill-opacity="0.48"/>
<path d="M159.501 84.097C160.155 84.097 160.685 83.4802 160.685 82.7194C160.685 81.9586 160.155 81.3418 159.501 81.3418C158.847 81.3418 158.317 81.9586 158.317 82.7194C158.317 83.4802 158.847 84.097 159.501 84.097Z" fill="black" fill-opacity="0.48"/>
<path d="M159.501 98.9143C160.155 98.9143 160.685 98.2976 160.685 97.5368C160.685 96.7759 160.155 96.1592 159.501 96.1592C158.847 96.1592 158.317 96.7759 158.317 97.5368C158.317 98.2976 158.847 98.9143 159.501 98.9143Z" fill="black" fill-opacity="0.48"/>
<path d="M159.501 113.731C160.155 113.731 160.685 113.114 160.685 112.353C160.685 111.592 160.155 110.976 159.501 110.976C158.847 110.976 158.317 111.592 158.317 112.353C158.317 113.114 158.847 113.731 159.501 113.731Z" fill="black" fill-opacity="0.48"/>
</g>
<mask id="mask1_1152_980" style="mask-type:luminance" maskUnits="userSpaceOnUse" x="163" y="0" width="166" height="121">
<path d="M329 0H163V121H329V0Z" fill="white"/>
</mask>
<g mask="url(#mask1_1152_980)">
<path d="M159.222 112.207H324.491" stroke="black" stroke-opacity="0.48" stroke-width="0.196684" stroke-miterlimit="10"/>
<path d="M159.222 97.415H324.491" stroke="black" stroke-opacity="0.48" stroke-width="0.196684" stroke-miterlimit="10"/>
<path d="M159.222 82.626H324.491" stroke="black" stroke-opacity="0.48" stroke-width="0.196684" stroke-miterlimit="10"/>
<path d="M159.222 67.834H324.491" stroke="black" stroke-opacity="0.48" stroke-width="0.196684" stroke-miterlimit="10"/>
<path d="M159.222 53.042H324.491" stroke="black" stroke-opacity="0.48" stroke-width="0.196684" stroke-miterlimit="10"/>
<path d="M159.222 38.252H324.491" stroke="black" stroke-opacity="0.48" stroke-width="0.196684" stroke-miterlimit="10"/>
<path d="M159.222 23.4609H324.491" stroke="black" stroke-opacity="0.48" stroke-width="0.196684" stroke-miterlimit="10"/>
<path d="M159.222 8.66895H324.491" stroke="black" stroke-opacity="0.48" stroke-width="0.196684" stroke-miterlimit="10"/>
<path d="M311.779 -35.7041V156.58" stroke="black" stroke-opacity="0.48" stroke-width="0.196684" stroke-miterlimit="10"/>
<path d="M299.065 -35.7041V156.58" stroke="black" stroke-opacity="0.48" stroke-width="0.196684" stroke-miterlimit="10"/>
<path d="M286.352 -35.7041V156.58" stroke="black" stroke-opacity="0.48" stroke-width="0.196684" stroke-miterlimit="10"/>
<path d="M273.638 -35.7041V156.58" stroke="black" stroke-opacity="0.48" stroke-width="0.196684" stroke-miterlimit="10"/>
<path d="M260.927 -35.7041V156.58" stroke="black" stroke-opacity="0.48" stroke-width="0.196684" stroke-miterlimit="10"/>
<path d="M248.213 -35.7041V156.58" stroke="black" stroke-opacity="0.48" stroke-width="0.196684" stroke-miterlimit="10"/>
<path d="M235.5 -35.7041V156.58" stroke="black" stroke-opacity="0.48" stroke-width="0.196684" stroke-miterlimit="10"/>
<path d="M222.788 -35.7041V156.58" stroke="black" stroke-opacity="0.48" stroke-width="0.196684" stroke-miterlimit="10"/>
<path d="M210.074 -35.7041V156.58" stroke="black" stroke-opacity="0.48" stroke-width="0.196684" stroke-miterlimit="10"/>
<path d="M197.36 -35.7041V156.58" stroke="black" stroke-opacity="0.48" stroke-width="0.196684" stroke-miterlimit="10"/>
<path d="M184.649 -35.7041V156.58" stroke="black" stroke-opacity="0.48" stroke-width="0.196684" stroke-miterlimit="10"/>
<path d="M171.935 -35.7041V156.58" stroke="black" stroke-opacity="0.48" stroke-width="0.196684" stroke-miterlimit="10"/>
<path d="M171.957 10.0071C172.611 10.0071 173.141 9.39035 173.141 8.62953C173.141 7.86872 172.611 7.25195 171.957 7.25195C171.303 7.25195 170.773 7.86872 170.773 8.62953C170.773 9.39035 171.303 10.0071 171.957 10.0071Z" fill="black" fill-opacity="0.48"/>
<path d="M184.67 10.0071C185.324 10.0071 185.854 9.39035 185.854 8.62953C185.854 7.86872 185.324 7.25195 184.67 7.25195C184.016 7.25195 183.486 7.86872 183.486 8.62953C183.486 9.39035 184.016 10.0071 184.67 10.0071Z" fill="black" fill-opacity="0.48"/>
<path d="M197.384 10.0071C198.038 10.0071 198.568 9.39035 198.568 8.62953C198.568 7.86872 198.038 7.25195 197.384 7.25195C196.73 7.25195 196.2 7.86872 196.2 8.62953C196.2 9.39035 196.73 10.0071 197.384 10.0071Z" fill="black" fill-opacity="0.48"/>
<path d="M210.098 10.0071C210.752 10.0071 211.282 9.39035 211.282 8.62953C211.282 7.86872 210.752 7.25195 210.098 7.25195C209.444 7.25195 208.914 7.86872 208.914 8.62953C208.914 9.39035 209.444 10.0071 210.098 10.0071Z" fill="black" fill-opacity="0.48"/>
<path d="M222.811 10.0071C223.465 10.0071 223.996 9.39035 223.996 8.62953C223.996 7.86872 223.465 7.25195 222.811 7.25195C222.158 7.25195 221.627 7.86872 221.627 8.62953C221.627 9.39035 222.158 10.0071 222.811 10.0071Z" fill="black" fill-opacity="0.48"/>
<path d="M235.525 10.0071C236.179 10.0071 236.709 9.39035 236.709 8.62953C236.709 7.86872 236.179 7.25195 235.525 7.25195C234.871 7.25195 234.341 7.86872 234.341 8.62953C234.341 9.39035 234.871 10.0071 235.525 10.0071Z" fill="black" fill-opacity="0.48"/>
<path d="M248.239 10.0071C248.893 10.0071 249.423 9.39035 249.423 8.62953C249.423 7.86872 248.893 7.25195 248.239 7.25195C247.585 7.25195 247.055 7.86872 247.055 8.62953C247.055 9.39035 247.585 10.0071 248.239 10.0071Z" fill="black" fill-opacity="0.48"/>
<path d="M260.954 10.0071C261.608 10.0071 262.138 9.39035 262.138 8.62953C262.138 7.86872 261.608 7.25195 260.954 7.25195C260.3 7.25195 259.77 7.86872 259.77 8.62953C259.77 9.39035 260.3 10.0071 260.954 10.0071Z" fill="black" fill-opacity="0.48"/>
<path d="M273.668 10.0071C274.322 10.0071 274.852 9.39035 274.852 8.62953C274.852 7.86872 274.322 7.25195 273.668 7.25195C273.014 7.25195 272.484 7.86872 272.484 8.62953C272.484 9.39035 273.014 10.0071 273.668 10.0071Z" fill="black" fill-opacity="0.48"/>
<path d="M286.381 10.0071C287.035 10.0071 287.565 9.39035 287.565 8.62953C287.565 7.86872 287.035 7.25195 286.381 7.25195C285.727 7.25195 285.197 7.86872 285.197 8.62953C285.197 9.39035 285.727 10.0071 286.381 10.0071Z" fill="black" fill-opacity="0.48"/>
<path d="M299.095 10.0071C299.749 10.0071 300.279 9.39035 300.279 8.62953C300.279 7.86872 299.749 7.25195 299.095 7.25195C298.441 7.25195 297.911 7.86872 297.911 8.62953C297.911 9.39035 298.441 10.0071 299.095 10.0071Z" fill="black" fill-opacity="0.48"/>
<path d="M311.809 10.0071C312.463 10.0071 312.993 9.39035 312.993 8.62953C312.993 7.86872 312.463 7.25195 311.809 7.25195C311.155 7.25195 310.625 7.86872 310.625 8.62953C310.625 9.39035 311.155 10.0071 311.809 10.0071Z" fill="black" fill-opacity="0.48"/>
<path d="M171.957 24.8245C172.611 24.8245 173.141 24.2077 173.141 23.4469C173.141 22.6861 172.611 22.0693 171.957 22.0693C171.303 22.0693 170.773 22.6861 170.773 23.4469C170.773 24.2077 171.303 24.8245 171.957 24.8245Z" fill="black" fill-opacity="0.48"/>
<path d="M184.67 24.8245C185.324 24.8245 185.854 24.2077 185.854 23.4469C185.854 22.6861 185.324 22.0693 184.67 22.0693C184.016 22.0693 183.486 22.6861 183.486 23.4469C183.486 24.2077 184.016 24.8245 184.67 24.8245Z" fill="black" fill-opacity="0.48"/>
<path d="M197.384 24.8245C198.038 24.8245 198.568 24.2077 198.568 23.4469C198.568 22.6861 198.038 22.0693 197.384 22.0693C196.73 22.0693 196.2 22.6861 196.2 23.4469C196.2 24.2077 196.73 24.8245 197.384 24.8245Z" fill="black" fill-opacity="0.48"/>
<path d="M210.098 24.8245C210.752 24.8245 211.282 24.2077 211.282 23.4469C211.282 22.6861 210.752 22.0693 210.098 22.0693C209.444 22.0693 208.914 22.6861 208.914 23.4469C208.914 24.2077 209.444 24.8245 210.098 24.8245Z" fill="black" fill-opacity="0.48"/>
<path d="M222.811 24.8245C223.465 24.8245 223.996 24.2077 223.996 23.4469C223.996 22.6861 223.465 22.0693 222.811 22.0693C222.158 22.0693 221.627 22.6861 221.627 23.4469C221.627 24.2077 222.158 24.8245 222.811 24.8245Z" fill="black" fill-opacity="0.48"/>
<path d="M235.525 24.8245C236.179 24.8245 236.709 24.2077 236.709 23.4469C236.709 22.6861 236.179 22.0693 235.525 22.0693C234.871 22.0693 234.341 22.6861 234.341 23.4469C234.341 24.2077 234.871 24.8245 235.525 24.8245Z" fill="black" fill-opacity="0.48"/>
<path d="M248.239 24.8245C248.893 24.8245 249.423 24.2077 249.423 23.4469C249.423 22.6861 248.893 22.0693 248.239 22.0693C247.585 22.0693 247.055 22.6861 247.055 23.4469C247.055 24.2077 247.585 24.8245 248.239 24.8245Z" fill="black" fill-opacity="0.48"/>
<path d="M260.954 24.8245C261.608 24.8245 262.138 24.2077 262.138 23.4469C262.138 22.6861 261.608 22.0693 260.954 22.0693C260.3 22.0693 259.77 22.6861 259.77 23.4469C259.77 24.2077 260.3 24.8245 260.954 24.8245Z" fill="black" fill-opacity="0.48"/>
<path d="M273.668 24.8245C274.322 24.8245 274.852 24.2077 274.852 23.4469C274.852 22.6861 274.322 22.0693 273.668 22.0693C273.014 22.0693 272.484 22.6861 272.484 23.4469C272.484 24.2077 273.014 24.8245 273.668 24.8245Z" fill="black" fill-opacity="0.48"/>
<path d="M286.381 24.8245C287.035 24.8245 287.565 24.2077 287.565 23.4469C287.565 22.6861 287.035 22.0693 286.381 22.0693C285.727 22.0693 285.197 22.6861 285.197 23.4469C285.197 24.2077 285.727 24.8245 286.381 24.8245Z" fill="black" fill-opacity="0.48"/>
<path d="M299.095 24.8245C299.749 24.8245 300.279 24.2077 300.279 23.4469C300.279 22.6861 299.749 22.0693 299.095 22.0693C298.441 22.0693 297.911 22.6861 297.911 23.4469C297.911 24.2077 298.441 24.8245 299.095 24.8245Z" fill="black" fill-opacity="0.48"/>
<path d="M311.809 24.8245C312.463 24.8245 312.993 24.2077 312.993 23.4469C312.993 22.6861 312.463 22.0693 311.809 22.0693C311.155 22.0693 310.625 22.6861 310.625 23.4469C310.625 24.2077 311.155 24.8245 311.809 24.8245Z" fill="black" fill-opacity="0.48"/>
<path d="M171.957 39.6438C172.611 39.6438 173.141 39.0271 173.141 38.2663C173.141 37.5054 172.611 36.8887 171.957 36.8887C171.303 36.8887 170.773 37.5054 170.773 38.2663C170.773 39.0271 171.303 39.6438 171.957 39.6438Z" fill="black" fill-opacity="0.48"/>
<path d="M184.67 39.6438C185.324 39.6438 185.854 39.0271 185.854 38.2663C185.854 37.5054 185.324 36.8887 184.67 36.8887C184.016 36.8887 183.486 37.5054 183.486 38.2663C183.486 39.0271 184.016 39.6438 184.67 39.6438Z" fill="black" fill-opacity="0.48"/>
<path d="M197.384 39.6438C198.038 39.6438 198.568 39.0271 198.568 38.2663C198.568 37.5054 198.038 36.8887 197.384 36.8887C196.73 36.8887 196.2 37.5054 196.2 38.2663C196.2 39.0271 196.73 39.6438 197.384 39.6438Z" fill="black" fill-opacity="0.48"/>
<path d="M210.098 39.6438C210.752 39.6438 211.282 39.0271 211.282 38.2663C211.282 37.5054 210.752 36.8887 210.098 36.8887C209.444 36.8887 208.914 37.5054 208.914 38.2663C208.914 39.0271 209.444 39.6438 210.098 39.6438Z" fill="black" fill-opacity="0.48"/>
<path d="M222.811 39.6438C223.465 39.6438 223.996 39.0271 223.996 38.2663C223.996 37.5054 223.465 36.8887 222.811 36.8887C222.158 36.8887 221.627 37.5054 221.627 38.2663C221.627 39.0271 222.158 39.6438 222.811 39.6438Z" fill="black" fill-opacity="0.48"/>
<path d="M235.525 39.6438C236.179 39.6438 236.709 39.0271 236.709 38.2663C236.709 37.5054 236.179 36.8887 235.525 36.8887C234.871 36.8887 234.341 37.5054 234.341 38.2663C234.341 39.0271 234.871 39.6438 235.525 39.6438Z" fill="black" fill-opacity="0.48"/>
<path d="M248.239 39.6438C248.893 39.6438 249.423 39.0271 249.423 38.2663C249.423 37.5054 248.893 36.8887 248.239 36.8887C247.585 36.8887 247.055 37.5054 247.055 38.2663C247.055 39.0271 247.585 39.6438 248.239 39.6438Z" fill="black" fill-opacity="0.48"/>
<path d="M260.954 39.6438C261.608 39.6438 262.138 39.0271 262.138 38.2663C262.138 37.5054 261.608 36.8887 260.954 36.8887C260.3 36.8887 259.77 37.5054 259.77 38.2663C259.77 39.0271 260.3 39.6438 260.954 39.6438Z" fill="black" fill-opacity="0.48"/>
<path d="M273.668 39.6438C274.322 39.6438 274.852 39.0271 274.852 38.2663C274.852 37.5054 274.322 36.8887 273.668 36.8887C273.014 36.8887 272.484 37.5054 272.484 38.2663C272.484 39.0271 273.014 39.6438 273.668 39.6438Z" fill="black" fill-opacity="0.48"/>
<path d="M286.381 39.6438C287.035 39.6438 287.565 39.0271 287.565 38.2663C287.565 37.5054 287.035 36.8887 286.381 36.8887C285.727 36.8887 285.197 37.5054 285.197 38.2663C285.197 39.0271 285.727 39.6438 286.381 39.6438Z" fill="black" fill-opacity="0.48"/>
<path d="M299.095 39.6438C299.749 39.6438 300.279 39.0271 300.279 38.2663C300.279 37.5054 299.749 36.8887 299.095 36.8887C298.441 36.8887 297.911 37.5054 297.911 38.2663C297.911 39.0271 298.441 39.6438 299.095 39.6438Z" fill="black" fill-opacity="0.48"/>
<path d="M311.809 39.6438C312.463 39.6438 312.993 39.0271 312.993 38.2663C312.993 37.5054 312.463 36.8887 311.809 36.8887C311.155 36.8887 310.625 37.5054 310.625 38.2663C310.625 39.0271 311.155 39.6438 311.809 39.6438Z" fill="black" fill-opacity="0.48"/>
<path d="M171.957 54.4602C172.611 54.4602 173.141 53.8435 173.141 53.0827C173.141 52.3218 172.611 51.7051 171.957 51.7051C171.303 51.7051 170.773 52.3218 170.773 53.0827C170.773 53.8435 171.303 54.4602 171.957 54.4602Z" fill="black" fill-opacity="0.48"/>
<path d="M184.67 54.4602C185.324 54.4602 185.854 53.8435 185.854 53.0827C185.854 52.3218 185.324 51.7051 184.67 51.7051C184.016 51.7051 183.486 52.3218 183.486 53.0827C183.486 53.8435 184.016 54.4602 184.67 54.4602Z" fill="black" fill-opacity="0.48"/>
<path d="M197.384 54.4602C198.038 54.4602 198.568 53.8435 198.568 53.0827C198.568 52.3218 198.038 51.7051 197.384 51.7051C196.73 51.7051 196.2 52.3218 196.2 53.0827C196.2 53.8435 196.73 54.4602 197.384 54.4602Z" fill="black" fill-opacity="0.48"/>
<path d="M210.098 54.4602C210.752 54.4602 211.282 53.8435 211.282 53.0827C211.282 52.3218 210.752 51.7051 210.098 51.7051C209.444 51.7051 208.914 52.3218 208.914 53.0827C208.914 53.8435 209.444 54.4602 210.098 54.4602Z" fill="black" fill-opacity="0.48"/>
<path d="M222.811 54.4602C223.465 54.4602 223.996 53.8435 223.996 53.0827C223.996 52.3218 223.465 51.7051 222.811 51.7051C222.158 51.7051 221.627 52.3218 221.627 53.0827C221.627 53.8435 222.158 54.4602 222.811 54.4602Z" fill="black" fill-opacity="0.48"/>
<path d="M235.525 54.4602C236.179 54.4602 236.709 53.8435 236.709 53.0827C236.709 52.3218 236.179 51.7051 235.525 51.7051C234.871 51.7051 234.341 52.3218 234.341 53.0827C234.341 53.8435 234.871 54.4602 235.525 54.4602Z" fill="black" fill-opacity="0.48"/>
<path d="M248.239 54.4602C248.893 54.4602 249.423 53.8435 249.423 53.0827C249.423 52.3218 248.893 51.7051 248.239 51.7051C247.585 51.7051 247.055 52.3218 247.055 53.0827C247.055 53.8435 247.585 54.4602 248.239 54.4602Z" fill="black" fill-opacity="0.48"/>
<path d="M260.954 54.4602C261.608 54.4602 262.138 53.8435 262.138 53.0827C262.138 52.3218 261.608 51.7051 260.954 51.7051C260.3 51.7051 259.77 52.3218 259.77 53.0827C259.77 53.8435 260.3 54.4602 260.954 54.4602Z" fill="black" fill-opacity="0.48"/>
<path d="M273.668 54.4602C274.322 54.4602 274.852 53.8435 274.852 53.0827C274.852 52.3218 274.322 51.7051 273.668 51.7051C273.014 51.7051 272.484 52.3218 272.484 53.0827C272.484 53.8435 273.014 54.4602 273.668 54.4602Z" fill="black" fill-opacity="0.48"/>
<path d="M286.381 54.4602C287.035 54.4602 287.565 53.8435 287.565 53.0827C287.565 52.3218 287.035 51.7051 286.381 51.7051C285.727 51.7051 285.197 52.3218 285.197 53.0827C285.197 53.8435 285.727 54.4602 286.381 54.4602Z" fill="black" fill-opacity="0.48"/>
<path d="M299.095 54.4602C299.749 54.4602 300.279 53.8435 300.279 53.0827C300.279 52.3218 299.749 51.7051 299.095 51.7051C298.441 51.7051 297.911 52.3218 297.911 53.0827C297.911 53.8435 298.441 54.4602 299.095 54.4602Z" fill="black" fill-opacity="0.48"/>
<path d="M311.809 54.4602C312.463 54.4602 312.993 53.8435 312.993 53.0827C312.993 52.3218 312.463 51.7051 311.809 51.7051C311.155 51.7051 310.625 52.3218 310.625 53.0827C310.625 53.8435 311.155 54.4602 311.809 54.4602Z" fill="black" fill-opacity="0.48"/>
<path d="M171.957 69.2776C172.611 69.2776 173.141 68.6609 173.141 67.9C173.141 67.1392 172.611 66.5225 171.957 66.5225C171.303 66.5225 170.773 67.1392 170.773 67.9C170.773 68.6609 171.303 69.2776 171.957 69.2776Z" fill="black" fill-opacity="0.48"/>
<path d="M184.67 69.2776C185.324 69.2776 185.854 68.6609 185.854 67.9C185.854 67.1392 185.324 66.5225 184.67 66.5225C184.016 66.5225 183.486 67.1392 183.486 67.9C183.486 68.6609 184.016 69.2776 184.67 69.2776Z" fill="black" fill-opacity="0.48"/>
<path d="M197.384 69.2776C198.038 69.2776 198.568 68.6609 198.568 67.9C198.568 67.1392 198.038 66.5225 197.384 66.5225C196.73 66.5225 196.2 67.1392 196.2 67.9C196.2 68.6609 196.73 69.2776 197.384 69.2776Z" fill="black" fill-opacity="0.48"/>
<path d="M210.098 69.2776C210.752 69.2776 211.282 68.6609 211.282 67.9C211.282 67.1392 210.752 66.5225 210.098 66.5225C209.444 66.5225 208.914 67.1392 208.914 67.9C208.914 68.6609 209.444 69.2776 210.098 69.2776Z" fill="black" fill-opacity="0.48"/>
<path d="M222.811 69.2776C223.465 69.2776 223.996 68.6609 223.996 67.9C223.996 67.1392 223.465 66.5225 222.811 66.5225C222.158 66.5225 221.627 67.1392 221.627 67.9C221.627 68.6609 222.158 69.2776 222.811 69.2776Z" fill="black" fill-opacity="0.48"/>
<path d="M235.525 69.2776C236.179 69.2776 236.709 68.6609 236.709 67.9C236.709 67.1392 236.179 66.5225 235.525 66.5225C234.871 66.5225 234.341 67.1392 234.341 67.9C234.341 68.6609 234.871 69.2776 235.525 69.2776Z" fill="black" fill-opacity="0.48"/>
<path d="M248.239 69.2776C248.893 69.2776 249.423 68.6609 249.423 67.9C249.423 67.1392 248.893 66.5225 248.239 66.5225C247.585 66.5225 247.055 67.1392 247.055 67.9C247.055 68.6609 247.585 69.2776 248.239 69.2776Z" fill="black" fill-opacity="0.48"/>
<path d="M260.954 69.2776C261.608 69.2776 262.138 68.6609 262.138 67.9C262.138 67.1392 261.608 66.5225 260.954 66.5225C260.3 66.5225 259.77 67.1392 259.77 67.9C259.77 68.6609 260.3 69.2776 260.954 69.2776Z" fill="black" fill-opacity="0.48"/>
<path d="M273.668 69.2776C274.322 69.2776 274.852 68.6609 274.852 67.9C274.852 67.1392 274.322 66.5225 273.668 66.5225C273.014 66.5225 272.484 67.1392 272.484 67.9C272.484 68.6609 273.014 69.2776 273.668 69.2776Z" fill="black" fill-opacity="0.48"/>
<path d="M286.381 69.2776C287.035 69.2776 287.565 68.6609 287.565 67.9C287.565 67.1392 287.035 66.5225 286.381 66.5225C285.727 66.5225 285.197 67.1392 285.197 67.9C285.197 68.6609 285.727 69.2776 286.381 69.2776Z" fill="black" fill-opacity="0.48"/>
<path d="M299.095 69.2776C299.749 69.2776 300.279 68.6609 300.279 67.9C300.279 67.1392 299.749 66.5225 299.095 66.5225C298.441 66.5225 297.911 67.1392 297.911 67.9C297.911 68.6609 298.441 69.2776 299.095 69.2776Z" fill="black" fill-opacity="0.48"/>
<path d="M311.809 69.2776C312.463 69.2776 312.993 68.6609 312.993 67.9C312.993 67.1392 312.463 66.5225 311.809 66.5225C311.155 66.5225 310.625 67.1392 310.625 67.9C310.625 68.6609 311.155 69.2776 311.809 69.2776Z" fill="black" fill-opacity="0.48"/>
<path d="M171.957 84.097C172.611 84.097 173.141 83.4802 173.141 82.7194C173.141 81.9586 172.611 81.3418 171.957 81.3418C171.303 81.3418 170.773 81.9586 170.773 82.7194C170.773 83.4802 171.303 84.097 171.957 84.097Z" fill="black" fill-opacity="0.48"/>
<path d="M184.67 84.097C185.324 84.097 185.854 83.4802 185.854 82.7194C185.854 81.9586 185.324 81.3418 184.67 81.3418C184.016 81.3418 183.486 81.9586 183.486 82.7194C183.486 83.4802 184.016 84.097 184.67 84.097Z" fill="black" fill-opacity="0.48"/>
<path d="M197.384 84.097C198.038 84.097 198.568 83.4802 198.568 82.7194C198.568 81.9586 198.038 81.3418 197.384 81.3418C196.73 81.3418 196.2 81.9586 196.2 82.7194C196.2 83.4802 196.73 84.097 197.384 84.097Z" fill="black" fill-opacity="0.48"/>
<path d="M210.098 84.097C210.752 84.097 211.282 83.4802 211.282 82.7194C211.282 81.9586 210.752 81.3418 210.098 81.3418C209.444 81.3418 208.914 81.9586 208.914 82.7194C208.914 83.4802 209.444 84.097 210.098 84.097Z" fill="black" fill-opacity="0.48"/>
<path d="M222.811 84.097C223.465 84.097 223.996 83.4802 223.996 82.7194C223.996 81.9586 223.465 81.3418 222.811 81.3418C222.158 81.3418 221.627 81.9586 221.627 82.7194C221.627 83.4802 222.158 84.097 222.811 84.097Z" fill="black" fill-opacity="0.48"/>
<path d="M235.525 84.097C236.179 84.097 236.709 83.4802 236.709 82.7194C236.709 81.9586 236.179 81.3418 235.525 81.3418C234.871 81.3418 234.341 81.9586 234.341 82.7194C234.341 83.4802 234.871 84.097 235.525 84.097Z" fill="black" fill-opacity="0.48"/>
<path d="M248.239 84.097C248.893 84.097 249.423 83.4802 249.423 82.7194C249.423 81.9586 248.893 81.3418 248.239 81.3418C247.585 81.3418 247.055 81.9586 247.055 82.7194C247.055 83.4802 247.585 84.097 248.239 84.097Z" fill="black" fill-opacity="0.48"/>
<path d="M260.954 84.097C261.608 84.097 262.138 83.4802 262.138 82.7194C262.138 81.9586 261.608 81.3418 260.954 81.3418C260.3 81.3418 259.77 81.9586 259.77 82.7194C259.77 83.4802 260.3 84.097 260.954 84.097Z" fill="black" fill-opacity="0.48"/>
<path d="M273.668 84.097C274.322 84.097 274.852 83.4802 274.852 82.7194C274.852 81.9586 274.322 81.3418 273.668 81.3418C273.014 81.3418 272.484 81.9586 272.484 82.7194C272.484 83.4802 273.014 84.097 273.668 84.097Z" fill="black" fill-opacity="0.48"/>
<path d="M286.381 84.097C287.035 84.097 287.565 83.4802 287.565 82.7194C287.565 81.9586 287.035 81.3418 286.381 81.3418C285.727 81.3418 285.197 81.9586 285.197 82.7194C285.197 83.4802 285.727 84.097 286.381 84.097Z" fill="black" fill-opacity="0.48"/>
<path d="M299.095 84.097C299.749 84.097 300.279 83.4802 300.279 82.7194C300.279 81.9586 299.749 81.3418 299.095 81.3418C298.441 81.3418 297.911 81.9586 297.911 82.7194C297.911 83.4802 298.441 84.097 299.095 84.097Z" fill="black" fill-opacity="0.48"/>
<path d="M311.809 84.097C312.463 84.097 312.993 83.4802 312.993 82.7194C312.993 81.9586 312.463 81.3418 311.809 81.3418C311.155 81.3418 310.625 81.9586 310.625 82.7194C310.625 83.4802 311.155 84.097 311.809 84.097Z" fill="black" fill-opacity="0.48"/>
<path d="M171.957 98.9143C172.611 98.9143 173.141 98.2976 173.141 97.5368C173.141 96.7759 172.611 96.1592 171.957 96.1592C171.303 96.1592 170.773 96.7759 170.773 97.5368C170.773 98.2976 171.303 98.9143 171.957 98.9143Z" fill="black" fill-opacity="0.48"/>
<path d="M184.67 98.9143C185.324 98.9143 185.854 98.2976 185.854 97.5368C185.854 96.7759 185.324 96.1592 184.67 96.1592C184.016 96.1592 183.486 96.7759 183.486 97.5368C183.486 98.2976 184.016 98.9143 184.67 98.9143Z" fill="black" fill-opacity="0.48"/>
<path d="M197.384 98.9143C198.038 98.9143 198.568 98.2976 198.568 97.5368C198.568 96.7759 198.038 96.1592 197.384 96.1592C196.73 96.1592 196.2 96.7759 196.2 97.5368C196.2 98.2976 196.73 98.9143 197.384 98.9143Z" fill="black" fill-opacity="0.48"/>
<path d="M210.098 98.9143C210.752 98.9143 211.282 98.2976 211.282 97.5368C211.282 96.7759 210.752 96.1592 210.098 96.1592C209.444 96.1592 208.914 96.7759 208.914 97.5368C208.914 98.2976 209.444 98.9143 210.098 98.9143Z" fill="black" fill-opacity="0.48"/>
<path d="M222.811 98.9143C223.465 98.9143 223.996 98.2976 223.996 97.5368C223.996 96.7759 223.465 96.1592 222.811 96.1592C222.158 96.1592 221.627 96.7759 221.627 97.5368C221.627 98.2976 222.158 98.9143 222.811 98.9143Z" fill="black" fill-opacity="0.48"/>
<path d="M235.525 98.9143C236.179 98.9143 236.709 98.2976 236.709 97.5368C236.709 96.7759 236.179 96.1592 235.525 96.1592C234.871 96.1592 234.341 96.7759 234.341 97.5368C234.341 98.2976 234.871 98.9143 235.525 98.9143Z" fill="black" fill-opacity="0.48"/>
<path d="M248.239 98.9143C248.893 98.9143 249.423 98.2976 249.423 97.5368C249.423 96.7759 248.893 96.1592 248.239 96.1592C247.585 96.1592 247.055 96.7759 247.055 97.5368C247.055 98.2976 247.585 98.9143 248.239 98.9143Z" fill="black" fill-opacity="0.48"/>
<path d="M260.954 98.9143C261.608 98.9143 262.138 98.2976 262.138 97.5368C262.138 96.7759 261.608 96.1592 260.954 96.1592C260.3 96.1592 259.77 96.7759 259.77 97.5368C259.77 98.2976 260.3 98.9143 260.954 98.9143Z" fill="black" fill-opacity="0.48"/>
<path d="M273.668 98.9143C274.322 98.9143 274.852 98.2976 274.852 97.5368C274.852 96.7759 274.322 96.1592 273.668 96.1592C273.014 96.1592 272.484 96.7759 272.484 97.5368C272.484 98.2976 273.014 98.9143 273.668 98.9143Z" fill="black" fill-opacity="0.48"/>
<path d="M286.381 98.9143C287.035 98.9143 287.565 98.2976 287.565 97.5368C287.565 96.7759 287.035 96.1592 286.381 96.1592C285.727 96.1592 285.197 96.7759 285.197 97.5368C285.197 98.2976 285.727 98.9143 286.381 98.9143Z" fill="black" fill-opacity="0.48"/>
<path d="M299.095 98.9143C299.749 98.9143 300.279 98.2976 300.279 97.5368C300.279 96.7759 299.749 96.1592 299.095 96.1592C298.441 96.1592 297.911 96.7759 297.911 97.5368C297.911 98.2976 298.441 98.9143 299.095 98.9143Z" fill="black" fill-opacity="0.48"/>
<path d="M311.809 98.9143C312.463 98.9143 312.993 98.2976 312.993 97.5368C312.993 96.7759 312.463 96.1592 311.809 96.1592C311.155 96.1592 310.625 96.7759 310.625 97.5368C310.625 98.2976 311.155 98.9143 311.809 98.9143Z" fill="black" fill-opacity="0.48"/>
<path d="M171.957 113.731C172.611 113.731 173.141 113.114 173.141 112.353C173.141 111.592 172.611 110.976 171.957 110.976C171.303 110.976 170.773 111.592 170.773 112.353C170.773 113.114 171.303 113.731 171.957 113.731Z" fill="black" fill-opacity="0.48"/>
<path d="M184.67 113.731C185.324 113.731 185.854 113.114 185.854 112.353C185.854 111.592 185.324 110.976 184.67 110.976C184.016 110.976 183.486 111.592 183.486 112.353C183.486 113.114 184.016 113.731 184.67 113.731Z" fill="black" fill-opacity="0.48"/>
<path d="M197.384 113.731C198.038 113.731 198.568 113.114 198.568 112.353C198.568 111.592 198.038 110.976 197.384 110.976C196.73 110.976 196.2 111.592 196.2 112.353C196.2 113.114 196.73 113.731 197.384 113.731Z" fill="black" fill-opacity="0.48"/>
<path d="M210.098 113.731C210.752 113.731 211.282 113.114 211.282 112.353C211.282 111.592 210.752 110.976 210.098 110.976C209.444 110.976 208.914 111.592 208.914 112.353C208.914 113.114 209.444 113.731 210.098 113.731Z" fill="black" fill-opacity="0.48"/>
<path d="M222.811 113.731C223.465 113.731 223.996 113.114 223.996 112.353C223.996 111.592 223.465 110.976 222.811 110.976C222.158 110.976 221.627 111.592 221.627 112.353C221.627 113.114 222.158 113.731 222.811 113.731Z" fill="black" fill-opacity="0.48"/>
<path d="M235.525 113.731C236.179 113.731 236.709 113.114 236.709 112.353C236.709 111.592 236.179 110.976 235.525 110.976C234.871 110.976 234.341 111.592 234.341 112.353C234.341 113.114 234.871 113.731 235.525 113.731Z" fill="black" fill-opacity="0.48"/>
<path d="M248.239 113.731C248.893 113.731 249.423 113.114 249.423 112.353C249.423 111.592 248.893 110.976 248.239 110.976C247.585 110.976 247.055 111.592 247.055 112.353C247.055 113.114 247.585 113.731 248.239 113.731Z" fill="black" fill-opacity="0.48"/>
<path d="M260.954 113.731C261.608 113.731 262.138 113.114 262.138 112.353C262.138 111.592 261.608 110.976 260.954 110.976C260.3 110.976 259.77 111.592 259.77 112.353C259.77 113.114 260.3 113.731 260.954 113.731Z" fill="black" fill-opacity="0.48"/>
<path d="M273.668 113.731C274.322 113.731 274.852 113.114 274.852 112.353C274.852 111.592 274.322 110.976 273.668 110.976C273.014 110.976 272.484 111.592 272.484 112.353C272.484 113.114 273.014 113.731 273.668 113.731Z" fill="black" fill-opacity="0.48"/>
<path d="M286.381 113.731C287.035 113.731 287.565 113.114 287.565 112.353C287.565 111.592 287.035 110.976 286.381 110.976C285.727 110.976 285.197 111.592 285.197 112.353C285.197 113.114 285.727 113.731 286.381 113.731Z" fill="black" fill-opacity="0.48"/>
<path d="M299.095 113.731C299.749 113.731 300.279 113.114 300.279 112.353C300.279 111.592 299.749 110.976 299.095 110.976C298.441 110.976 297.911 111.592 297.911 112.353C297.911 113.114 298.441 113.731 299.095 113.731Z" fill="black" fill-opacity="0.48"/>
<path d="M311.809 113.731C312.463 113.731 312.993 113.114 312.993 112.353C312.993 111.592 312.463 110.976 311.809 110.976C311.155 110.976 310.625 111.592 310.625 112.353C310.625 113.114 311.155 113.731 311.809 113.731Z" fill="black" fill-opacity="0.48"/>
<path d="M324.501 10.0071C325.155 10.0071 325.685 9.39035 325.685 8.62953C325.685 7.86872 325.155 7.25195 324.501 7.25195C323.847 7.25195 323.317 7.86872 323.317 8.62953C323.317 9.39035 323.847 10.0071 324.501 10.0071Z" fill="black" fill-opacity="0.48"/>
<path d="M324.501 24.8245C325.155 24.8245 325.685 24.2077 325.685 23.4469C325.685 22.6861 325.155 22.0693 324.501 22.0693C323.847 22.0693 323.317 22.6861 323.317 23.4469C323.317 24.2077 323.847 24.8245 324.501 24.8245Z" fill="black" fill-opacity="0.48"/>
<path d="M324.501 39.6438C325.155 39.6438 325.685 39.0271 325.685 38.2663C325.685 37.5054 325.155 36.8887 324.501 36.8887C323.847 36.8887 323.317 37.5054 323.317 38.2663C323.317 39.0271 323.847 39.6438 324.501 39.6438Z" fill="black" fill-opacity="0.48"/>
<path d="M324.501 54.4602C325.155 54.4602 325.685 53.8435 325.685 53.0827C325.685 52.3218 325.155 51.7051 324.501 51.7051C323.847 51.7051 323.317 52.3218 323.317 53.0827C323.317 53.8435 323.847 54.4602 324.501 54.4602Z" fill="black" fill-opacity="0.48"/>
<path d="M324.501 69.2776C325.155 69.2776 325.685 68.6609 325.685 67.9C325.685 67.1392 325.155 66.5225 324.501 66.5225C323.847 66.5225 323.317 67.1392 323.317 67.9C323.317 68.6609 323.847 69.2776 324.501 69.2776Z" fill="black" fill-opacity="0.48"/>
<path d="M324.501 84.097C325.155 84.097 325.685 83.4802 325.685 82.7194C325.685 81.9586 325.155 81.3418 324.501 81.3418C323.847 81.3418 323.317 81.9586 323.317 82.7194C323.317 83.4802 323.847 84.097 324.501 84.097Z" fill="black" fill-opacity="0.48"/>
<path d="M324.501 98.9143C325.155 98.9143 325.685 98.2976 325.685 97.5368C325.685 96.7759 325.155 96.1592 324.501 96.1592C323.847 96.1592 323.317 96.7759 323.317 97.5368C323.317 98.2976 323.847 98.9143 324.501 98.9143Z" fill="black" fill-opacity="0.48"/>
<path d="M324.501 113.731C325.155 113.731 325.685 113.114 325.685 112.353C325.685 111.592 325.155 110.976 324.501 110.976C323.847 110.976 323.317 111.592 323.317 112.353C323.317 113.114 323.847 113.731 324.501 113.731Z" fill="black" fill-opacity="0.48"/>
</g>
<mask id="mask2_1152_980" style="mask-type:luminance" maskUnits="userSpaceOnUse" x="327" y="0" width="166" height="121">
<path d="M493 0H327V121H493V0Z" fill="white"/>
</mask>
<g mask="url(#mask2_1152_980)">
<path d="M324.222 112.207H489.491" stroke="black" stroke-opacity="0.48" stroke-width="0.196684" stroke-miterlimit="10"/>
<path d="M324.222 97.415H489.491" stroke="black" stroke-opacity="0.48" stroke-width="0.196684" stroke-miterlimit="10"/>
<path d="M324.222 82.626H489.491" stroke="black" stroke-opacity="0.48" stroke-width="0.196684" stroke-miterlimit="10"/>
<path d="M324.222 67.834H489.491" stroke="black" stroke-opacity="0.48" stroke-width="0.196684" stroke-miterlimit="10"/>
<path d="M324.222 53.042H489.491" stroke="black" stroke-opacity="0.48" stroke-width="0.196684" stroke-miterlimit="10"/>
<path d="M324.222 38.252H489.491" stroke="black" stroke-opacity="0.48" stroke-width="0.196684" stroke-miterlimit="10"/>
<path d="M324.222 23.4609H489.491" stroke="black" stroke-opacity="0.48" stroke-width="0.196684" stroke-miterlimit="10"/>
<path d="M324.222 8.66895H489.491" stroke="black" stroke-opacity="0.48" stroke-width="0.196684" stroke-miterlimit="10"/>
<path d="M476.779 -35.7041V156.58" stroke="black" stroke-opacity="0.48" stroke-width="0.196684" stroke-miterlimit="10"/>
<path d="M464.065 -35.7041V156.58" stroke="black" stroke-opacity="0.48" stroke-width="0.196684" stroke-miterlimit="10"/>
<path d="M451.352 -35.7041V156.58" stroke="black" stroke-opacity="0.48" stroke-width="0.196684" stroke-miterlimit="10"/>
<path d="M438.638 -35.7041V156.58" stroke="black" stroke-opacity="0.48" stroke-width="0.196684" stroke-miterlimit="10"/>
<path d="M425.927 -35.7041V156.58" stroke="black" stroke-opacity="0.48" stroke-width="0.196684" stroke-miterlimit="10"/>
<path d="M413.213 -35.7041V156.58" stroke="black" stroke-opacity="0.48" stroke-width="0.196684" stroke-miterlimit="10"/>
<path d="M400.5 -35.7041V156.58" stroke="black" stroke-opacity="0.48" stroke-width="0.196684" stroke-miterlimit="10"/>
<path d="M387.788 -35.7041V156.58" stroke="black" stroke-opacity="0.48" stroke-width="0.196684" stroke-miterlimit="10"/>
<path d="M375.074 -35.7041V156.58" stroke="black" stroke-opacity="0.48" stroke-width="0.196684" stroke-miterlimit="10"/>
<path d="M362.36 -35.7041V156.58" stroke="black" stroke-opacity="0.48" stroke-width="0.196684" stroke-miterlimit="10"/>
<path d="M349.649 -35.7041V156.58" stroke="black" stroke-opacity="0.48" stroke-width="0.196684" stroke-miterlimit="10"/>
<path d="M336.935 -35.7041V156.58" stroke="black" stroke-opacity="0.48" stroke-width="0.196684" stroke-miterlimit="10"/>
<path d="M336.957 10.0071C337.611 10.0071 338.141 9.39035 338.141 8.62953C338.141 7.86872 337.611 7.25195 336.957 7.25195C336.303 7.25195 335.773 7.86872 335.773 8.62953C335.773 9.39035 336.303 10.0071 336.957 10.0071Z" fill="black" fill-opacity="0.48"/>
<path d="M349.67 10.0071C350.324 10.0071 350.854 9.39035 350.854 8.62953C350.854 7.86872 350.324 7.25195 349.67 7.25195C349.016 7.25195 348.486 7.86872 348.486 8.62953C348.486 9.39035 349.016 10.0071 349.67 10.0071Z" fill="black" fill-opacity="0.48"/>
<path d="M362.384 10.0071C363.038 10.0071 363.568 9.39035 363.568 8.62953C363.568 7.86872 363.038 7.25195 362.384 7.25195C361.73 7.25195 361.2 7.86872 361.2 8.62953C361.2 9.39035 361.73 10.0071 362.384 10.0071Z" fill="black" fill-opacity="0.48"/>
<path d="M375.098 10.0071C375.752 10.0071 376.282 9.39035 376.282 8.62953C376.282 7.86872 375.752 7.25195 375.098 7.25195C374.444 7.25195 373.914 7.86872 373.914 8.62953C373.914 9.39035 374.444 10.0071 375.098 10.0071Z" fill="black" fill-opacity="0.48"/>
<path d="M387.811 10.0071C388.465 10.0071 388.996 9.39035 388.996 8.62953C388.996 7.86872 388.465 7.25195 387.811 7.25195C387.158 7.25195 386.627 7.86872 386.627 8.62953C386.627 9.39035 387.158 10.0071 387.811 10.0071Z" fill="black" fill-opacity="0.48"/>
<path d="M400.525 10.0071C401.179 10.0071 401.709 9.39035 401.709 8.62953C401.709 7.86872 401.179 7.25195 400.525 7.25195C399.871 7.25195 399.341 7.86872 399.341 8.62953C399.341 9.39035 399.871 10.0071 400.525 10.0071Z" fill="black" fill-opacity="0.48"/>
<path d="M413.239 10.0071C413.893 10.0071 414.423 9.39035 414.423 8.62953C414.423 7.86872 413.893 7.25195 413.239 7.25195C412.585 7.25195 412.055 7.86872 412.055 8.62953C412.055 9.39035 412.585 10.0071 413.239 10.0071Z" fill="black" fill-opacity="0.48"/>
<path d="M425.954 10.0071C426.608 10.0071 427.138 9.39035 427.138 8.62953C427.138 7.86872 426.608 7.25195 425.954 7.25195C425.3 7.25195 424.77 7.86872 424.77 8.62953C424.77 9.39035 425.3 10.0071 425.954 10.0071Z" fill="black" fill-opacity="0.48"/>
<path d="M438.668 10.0071C439.322 10.0071 439.852 9.39035 439.852 8.62953C439.852 7.86872 439.322 7.25195 438.668 7.25195C438.014 7.25195 437.484 7.86872 437.484 8.62953C437.484 9.39035 438.014 10.0071 438.668 10.0071Z" fill="black" fill-opacity="0.48"/>
<path d="M451.381 10.0071C452.035 10.0071 452.565 9.39035 452.565 8.62953C452.565 7.86872 452.035 7.25195 451.381 7.25195C450.727 7.25195 450.197 7.86872 450.197 8.62953C450.197 9.39035 450.727 10.0071 451.381 10.0071Z" fill="black" fill-opacity="0.48"/>
<path d="M464.095 10.0071C464.749 10.0071 465.279 9.39035 465.279 8.62953C465.279 7.86872 464.749 7.25195 464.095 7.25195C463.441 7.25195 462.911 7.86872 462.911 8.62953C462.911 9.39035 463.441 10.0071 464.095 10.0071Z" fill="black" fill-opacity="0.48"/>
<path d="M476.809 10.0071C477.463 10.0071 477.993 9.39035 477.993 8.62953C477.993 7.86872 477.463 7.25195 476.809 7.25195C476.155 7.25195 475.625 7.86872 475.625 8.62953C475.625 9.39035 476.155 10.0071 476.809 10.0071Z" fill="black" fill-opacity="0.48"/>
<path d="M336.957 24.8245C337.611 24.8245 338.141 24.2077 338.141 23.4469C338.141 22.6861 337.611 22.0693 336.957 22.0693C336.303 22.0693 335.773 22.6861 335.773 23.4469C335.773 24.2077 336.303 24.8245 336.957 24.8245Z" fill="black" fill-opacity="0.48"/>
<path d="M349.67 24.8245C350.324 24.8245 350.854 24.2077 350.854 23.4469C350.854 22.6861 350.324 22.0693 349.67 22.0693C349.016 22.0693 348.486 22.6861 348.486 23.4469C348.486 24.2077 349.016 24.8245 349.67 24.8245Z" fill="black" fill-opacity="0.48"/>
<path d="M362.384 24.8245C363.038 24.8245 363.568 24.2077 363.568 23.4469C363.568 22.6861 363.038 22.0693 362.384 22.0693C361.73 22.0693 361.2 22.6861 361.2 23.4469C361.2 24.2077 361.73 24.8245 362.384 24.8245Z" fill="black" fill-opacity="0.48"/>
<path d="M375.098 24.8245C375.752 24.8245 376.282 24.2077 376.282 23.4469C376.282 22.6861 375.752 22.0693 375.098 22.0693C374.444 22.0693 373.914 22.6861 373.914 23.4469C373.914 24.2077 374.444 24.8245 375.098 24.8245Z" fill="black" fill-opacity="0.48"/>
<path d="M387.811 24.8245C388.465 24.8245 388.996 24.2077 388.996 23.4469C388.996 22.6861 388.465 22.0693 387.811 22.0693C387.158 22.0693 386.627 22.6861 386.627 23.4469C386.627 24.2077 387.158 24.8245 387.811 24.8245Z" fill="black" fill-opacity="0.48"/>
<path d="M400.525 24.8245C401.179 24.8245 401.709 24.2077 401.709 23.4469C401.709 22.6861 401.179 22.0693 400.525 22.0693C399.871 22.0693 399.341 22.6861 399.341 23.4469C399.341 24.2077 399.871 24.8245 400.525 24.8245Z" fill="black" fill-opacity="0.48"/>
<path d="M413.239 24.8245C413.893 24.8245 414.423 24.2077 414.423 23.4469C414.423 22.6861 413.893 22.0693 413.239 22.0693C412.585 22.0693 412.055 22.6861 412.055 23.4469C412.055 24.2077 412.585 24.8245 413.239 24.8245Z" fill="black" fill-opacity="0.48"/>
<path d="M425.954 24.8245C426.608 24.8245 427.138 24.2077 427.138 23.4469C427.138 22.6861 426.608 22.0693 425.954 22.0693C425.3 22.0693 424.77 22.6861 424.77 23.4469C424.77 24.2077 425.3 24.8245 425.954 24.8245Z" fill="black" fill-opacity="0.48"/>
<path d="M438.668 24.8245C439.322 24.8245 439.852 24.2077 439.852 23.4469C439.852 22.6861 439.322 22.0693 438.668 22.0693C438.014 22.0693 437.484 22.6861 437.484 23.4469C437.484 24.2077 438.014 24.8245 438.668 24.8245Z" fill="black" fill-opacity="0.48"/>
<path d="M451.381 24.8245C452.035 24.8245 452.565 24.2077 452.565 23.4469C452.565 22.6861 452.035 22.0693 451.381 22.0693C450.727 22.0693 450.197 22.6861 450.197 23.4469C450.197 24.2077 450.727 24.8245 451.381 24.8245Z" fill="black" fill-opacity="0.48"/>
<path d="M464.095 24.8245C464.749 24.8245 465.279 24.2077 465.279 23.4469C465.279 22.6861 464.749 22.0693 464.095 22.0693C463.441 22.0693 462.911 22.6861 462.911 23.4469C462.911 24.2077 463.441 24.8245 464.095 24.8245Z" fill="black" fill-opacity="0.48"/>
<path d="M476.809 24.8245C477.463 24.8245 477.993 24.2077 477.993 23.4469C477.993 22.6861 477.463 22.0693 476.809 22.0693C476.155 22.0693 475.625 22.6861 475.625 23.4469C475.625 24.2077 476.155 24.8245 476.809 24.8245Z" fill="black" fill-opacity="0.48"/>
<path d="M336.957 39.6438C337.611 39.6438 338.141 39.0271 338.141 38.2663C338.141 37.5054 337.611 36.8887 336.957 36.8887C336.303 36.8887 335.773 37.5054 335.773 38.2663C335.773 39.0271 336.303 39.6438 336.957 39.6438Z" fill="black" fill-opacity="0.48"/>
<path d="M349.67 39.6438C350.324 39.6438 350.854 39.0271 350.854 38.2663C350.854 37.5054 350.324 36.8887 349.67 36.8887C349.016 36.8887 348.486 37.5054 348.486 38.2663C348.486 39.0271 349.016 39.6438 349.67 39.6438Z" fill="black" fill-opacity="0.48"/>
<path d="M362.384 39.6438C363.038 39.6438 363.568 39.0271 363.568 38.2663C363.568 37.5054 363.038 36.8887 362.384 36.8887C361.73 36.8887 361.2 37.5054 361.2 38.2663C361.2 39.0271 361.73 39.6438 362.384 39.6438Z" fill="black" fill-opacity="0.48"/>
<path d="M375.098 39.6438C375.752 39.6438 376.282 39.0271 376.282 38.2663C376.282 37.5054 375.752 36.8887 375.098 36.8887C374.444 36.8887 373.914 37.5054 373.914 38.2663C373.914 39.0271 374.444 39.6438 375.098 39.6438Z" fill="black" fill-opacity="0.48"/>
<path d="M387.811 39.6438C388.465 39.6438 388.996 39.0271 388.996 38.2663C388.996 37.5054 388.465 36.8887 387.811 36.8887C387.158 36.8887 386.627 37.5054 386.627 38.2663C386.627 39.0271 387.158 39.6438 387.811 39.6438Z" fill="black" fill-opacity="0.48"/>
<path d="M400.525 39.6438C401.179 39.6438 401.709 39.0271 401.709 38.2663C401.709 37.5054 401.179 36.8887 400.525 36.8887C399.871 36.8887 399.341 37.5054 399.341 38.2663C399.341 39.0271 399.871 39.6438 400.525 39.6438Z" fill="black" fill-opacity="0.48"/>
<path d="M413.239 39.6438C413.893 39.6438 414.423 39.0271 414.423 38.2663C414.423 37.5054 413.893 36.8887 413.239 36.8887C412.585 36.8887 412.055 37.5054 412.055 38.2663C412.055 39.0271 412.585 39.6438 413.239 39.6438Z" fill="black" fill-opacity="0.48"/>
<path d="M425.954 39.6438C426.608 39.6438 427.138 39.0271 427.138 38.2663C427.138 37.5054 426.608 36.8887 425.954 36.8887C425.3 36.8887 424.77 37.5054 424.77 38.2663C424.77 39.0271 425.3 39.6438 425.954 39.6438Z" fill="black" fill-opacity="0.48"/>
<path d="M438.668 39.6438C439.322 39.6438 439.852 39.0271 439.852 38.2663C439.852 37.5054 439.322 36.8887 438.668 36.8887C438.014 36.8887 437.484 37.5054 437.484 38.2663C437.484 39.0271 438.014 39.6438 438.668 39.6438Z" fill="black" fill-opacity="0.48"/>
<path d="M451.381 39.6438C452.035 39.6438 452.565 39.0271 452.565 38.2663C452.565 37.5054 452.035 36.8887 451.381 36.8887C450.727 36.8887 450.197 37.5054 450.197 38.2663C450.197 39.0271 450.727 39.6438 451.381 39.6438Z" fill="black" fill-opacity="0.48"/>
<path d="M464.095 39.6438C464.749 39.6438 465.279 39.0271 465.279 38.2663C465.279 37.5054 464.749 36.8887 464.095 36.8887C463.441 36.8887 462.911 37.5054 462.911 38.2663C462.911 39.0271 463.441 39.6438 464.095 39.6438Z" fill="black" fill-opacity="0.48"/>
<path d="M476.809 39.6438C477.463 39.6438 477.993 39.0271 477.993 38.2663C477.993 37.5054 477.463 36.8887 476.809 36.8887C476.155 36.8887 475.625 37.5054 475.625 38.2663C475.625 39.0271 476.155 39.6438 476.809 39.6438Z" fill="black" fill-opacity="0.48"/>
<path d="M336.957 54.4602C337.611 54.4602 338.141 53.8435 338.141 53.0827C338.141 52.3218 337.611 51.7051 336.957 51.7051C336.303 51.7051 335.773 52.3218 335.773 53.0827C335.773 53.8435 336.303 54.4602 336.957 54.4602Z" fill="black" fill-opacity="0.48"/>
<path d="M349.67 54.4602C350.324 54.4602 350.854 53.8435 350.854 53.0827C350.854 52.3218 350.324 51.7051 349.67 51.7051C349.016 51.7051 348.486 52.3218 348.486 53.0827C348.486 53.8435 349.016 54.4602 349.67 54.4602Z" fill="black" fill-opacity="0.48"/>
<path d="M362.384 54.4602C363.038 54.4602 363.568 53.8435 363.568 53.0827C363.568 52.3218 363.038 51.7051 362.384 51.7051C361.73 51.7051 361.2 52.3218 361.2 53.0827C361.2 53.8435 361.73 54.4602 362.384 54.4602Z" fill="black" fill-opacity="0.48"/>
<path d="M375.098 54.4602C375.752 54.4602 376.282 53.8435 376.282 53.0827C376.282 52.3218 375.752 51.7051 375.098 51.7051C374.444 51.7051 373.914 52.3218 373.914 53.0827C373.914 53.8435 374.444 54.4602 375.098 54.4602Z" fill="black" fill-opacity="0.48"/>
<path d="M387.811 54.4602C388.465 54.4602 388.996 53.8435 388.996 53.0827C388.996 52.3218 388.465 51.7051 387.811 51.7051C387.158 51.7051 386.627 52.3218 386.627 53.0827C386.627 53.8435 387.158 54.4602 387.811 54.4602Z" fill="black" fill-opacity="0.48"/>
<path d="M400.525 54.4602C401.179 54.4602 401.709 53.8435 401.709 53.0827C401.709 52.3218 401.179 51.7051 400.525 51.7051C399.871 51.7051 399.341 52.3218 399.341 53.0827C399.341 53.8435 399.871 54.4602 400.525 54.4602Z" fill="black" fill-opacity="0.48"/>
<path d="M413.239 54.4602C413.893 54.4602 414.423 53.8435 414.423 53.0827C414.423 52.3218 413.893 51.7051 413.239 51.7051C412.585 51.7051 412.055 52.3218 412.055 53.0827C412.055 53.8435 412.585 54.4602 413.239 54.4602Z" fill="black" fill-opacity="0.48"/>
<path d="M425.954 54.4602C426.608 54.4602 427.138 53.8435 427.138 53.0827C427.138 52.3218 426.608 51.7051 425.954 51.7051C425.3 51.7051 424.77 52.3218 424.77 53.0827C424.77 53.8435 425.3 54.4602 425.954 54.4602Z" fill="black" fill-opacity="0.48"/>
<path d="M438.668 54.4602C439.322 54.4602 439.852 53.8435 439.852 53.0827C439.852 52.3218 439.322 51.7051 438.668 51.7051C438.014 51.7051 437.484 52.3218 437.484 53.0827C437.484 53.8435 438.014 54.4602 438.668 54.4602Z" fill="black" fill-opacity="0.48"/>
<path d="M451.381 54.4602C452.035 54.4602 452.565 53.8435 452.565 53.0827C452.565 52.3218 452.035 51.7051 451.381 51.7051C450.727 51.7051 450.197 52.3218 450.197 53.0827C450.197 53.8435 450.727 54.4602 451.381 54.4602Z" fill="black" fill-opacity="0.48"/>
<path d="M464.095 54.4602C464.749 54.4602 465.279 53.8435 465.279 53.0827C465.279 52.3218 464.749 51.7051 464.095 51.7051C463.441 51.7051 462.911 52.3218 462.911 53.0827C462.911 53.8435 463.441 54.4602 464.095 54.4602Z" fill="black" fill-opacity="0.48"/>
<path d="M476.809 54.4602C477.463 54.4602 477.993 53.8435 477.993 53.0827C477.993 52.3218 477.463 51.7051 476.809 51.7051C476.155 51.7051 475.625 52.3218 475.625 53.0827C475.625 53.8435 476.155 54.4602 476.809 54.4602Z" fill="black" fill-opacity="0.48"/>
<path d="M336.957 69.2776C337.611 69.2776 338.141 68.6609 338.141 67.9C338.141 67.1392 337.611 66.5225 336.957 66.5225C336.303 66.5225 335.773 67.1392 335.773 67.9C335.773 68.6609 336.303 69.2776 336.957 69.2776Z" fill="black" fill-opacity="0.48"/>
<path d="M349.67 69.2776C350.324 69.2776 350.854 68.6609 350.854 67.9C350.854 67.1392 350.324 66.5225 349.67 66.5225C349.016 66.5225 348.486 67.1392 348.486 67.9C348.486 68.6609 349.016 69.2776 349.67 69.2776Z" fill="black" fill-opacity="0.48"/>
<path d="M362.384 69.2776C363.038 69.2776 363.568 68.6609 363.568 67.9C363.568 67.1392 363.038 66.5225 362.384 66.5225C361.73 66.5225 361.2 67.1392 361.2 67.9C361.2 68.6609 361.73 69.2776 362.384 69.2776Z" fill="black" fill-opacity="0.48"/>
<path d="M375.098 69.2776C375.752 69.2776 376.282 68.6609 376.282 67.9C376.282 67.1392 375.752 66.5225 375.098 66.5225C374.444 66.5225 373.914 67.1392 373.914 67.9C373.914 68.6609 374.444 69.2776 375.098 69.2776Z" fill="black" fill-opacity="0.48"/>
<path d="M387.811 69.2776C388.465 69.2776 388.996 68.6609 388.996 67.9C388.996 67.1392 388.465 66.5225 387.811 66.5225C387.158 66.5225 386.627 67.1392 386.627 67.9C386.627 68.6609 387.158 69.2776 387.811 69.2776Z" fill="black" fill-opacity="0.48"/>
<path d="M400.525 69.2776C401.179 69.2776 401.709 68.6609 401.709 67.9C401.709 67.1392 401.179 66.5225 400.525 66.5225C399.871 66.5225 399.341 67.1392 399.341 67.9C399.341 68.6609 399.871 69.2776 400.525 69.2776Z" fill="black" fill-opacity="0.48"/>
<path d="M413.239 69.2776C413.893 69.2776 414.423 68.6609 414.423 67.9C414.423 67.1392 413.893 66.5225 413.239 66.5225C412.585 66.5225 412.055 67.1392 412.055 67.9C412.055 68.6609 412.585 69.2776 413.239 69.2776Z" fill="black" fill-opacity="0.48"/>
<path d="M425.954 69.2776C426.608 69.2776 427.138 68.6609 427.138 67.9C427.138 67.1392 426.608 66.5225 425.954 66.5225C425.3 66.5225 424.77 67.1392 424.77 67.9C424.77 68.6609 425.3 69.2776 425.954 69.2776Z" fill="black" fill-opacity="0.48"/>
<path d="M438.668 69.2776C439.322 69.2776 439.852 68.6609 439.852 67.9C439.852 67.1392 439.322 66.5225 438.668 66.5225C438.014 66.5225 437.484 67.1392 437.484 67.9C437.484 68.6609 438.014 69.2776 438.668 69.2776Z" fill="black" fill-opacity="0.48"/>
<path d="M451.381 69.2776C452.035 69.2776 452.565 68.6609 452.565 67.9C452.565 67.1392 452.035 66.5225 451.381 66.5225C450.727 66.5225 450.197 67.1392 450.197 67.9C450.197 68.6609 450.727 69.2776 451.381 69.2776Z" fill="black" fill-opacity="0.48"/>
<path d="M464.095 69.2776C464.749 69.2776 465.279 68.6609 465.279 67.9C465.279 67.1392 464.749 66.5225 464.095 66.5225C463.441 66.5225 462.911 67.1392 462.911 67.9C462.911 68.6609 463.441 69.2776 464.095 69.2776Z" fill="black" fill-opacity="0.48"/>
<path d="M476.809 69.2776C477.463 69.2776 477.993 68.6609 477.993 67.9C477.993 67.1392 477.463 66.5225 476.809 66.5225C476.155 66.5225 475.625 67.1392 475.625 67.9C475.625 68.6609 476.155 69.2776 476.809 69.2776Z" fill="black" fill-opacity="0.48"/>
<path d="M336.957 84.097C337.611 84.097 338.141 83.4802 338.141 82.7194C338.141 81.9586 337.611 81.3418 336.957 81.3418C336.303 81.3418 335.773 81.9586 335.773 82.7194C335.773 83.4802 336.303 84.097 336.957 84.097Z" fill="black" fill-opacity="0.48"/>
<path d="M349.67 84.097C350.324 84.097 350.854 83.4802 350.854 82.7194C350.854 81.9586 350.324 81.3418 349.67 81.3418C349.016 81.3418 348.486 81.9586 348.486 82.7194C348.486 83.4802 349.016 84.097 349.67 84.097Z" fill="black" fill-opacity="0.48"/>
<path d="M362.384 84.097C363.038 84.097 363.568 83.4802 363.568 82.7194C363.568 81.9586 363.038 81.3418 362.384 81.3418C361.73 81.3418 361.2 81.9586 361.2 82.7194C361.2 83.4802 361.73 84.097 362.384 84.097Z" fill="black" fill-opacity="0.48"/>
<path d="M375.098 84.097C375.752 84.097 376.282 83.4802 376.282 82.7194C376.282 81.9586 375.752 81.3418 375.098 81.3418C374.444 81.3418 373.914 81.9586 373.914 82.7194C373.914 83.4802 374.444 84.097 375.098 84.097Z" fill="black" fill-opacity="0.48"/>
<path d="M387.811 84.097C388.465 84.097 388.996 83.4802 388.996 82.7194C388.996 81.9586 388.465 81.3418 387.811 81.3418C387.158 81.3418 386.627 81.9586 386.627 82.7194C386.627 83.4802 387.158 84.097 387.811 84.097Z" fill="black" fill-opacity="0.48"/>
<path d="M400.525 84.097C401.179 84.097 401.709 83.4802 401.709 82.7194C401.709 81.9586 401.179 81.3418 400.525 81.3418C399.871 81.3418 399.341 81.9586 399.341 82.7194C399.341 83.4802 399.871 84.097 400.525 84.097Z" fill="black" fill-opacity="0.48"/>
<path d="M413.239 84.097C413.893 84.097 414.423 83.4802 414.423 82.7194C414.423 81.9586 413.893 81.3418 413.239 81.3418C412.585 81.3418 412.055 81.9586 412.055 82.7194C412.055 83.4802 412.585 84.097 413.239 84.097Z" fill="black" fill-opacity="0.48"/>
<path d="M425.954 84.097C426.608 84.097 427.138 83.4802 427.138 82.7194C427.138 81.9586 426.608 81.3418 425.954 81.3418C425.3 81.3418 424.77 81.9586 424.77 82.7194C424.77 83.4802 425.3 84.097 425.954 84.097Z" fill="black" fill-opacity="0.48"/>
<path d="M438.668 84.097C439.322 84.097 439.852 83.4802 439.852 82.7194C439.852 81.9586 439.322 81.3418 438.668 81.3418C438.014 81.3418 437.484 81.9586 437.484 82.7194C437.484 83.4802 438.014 84.097 438.668 84.097Z" fill="black" fill-opacity="0.48"/>
<path d="M451.381 84.097C452.035 84.097 452.565 83.4802 452.565 82.7194C452.565 81.9586 452.035 81.3418 451.381 81.3418C450.727 81.3418 450.197 81.9586 450.197 82.7194C450.197 83.4802 450.727 84.097 451.381 84.097Z" fill="black" fill-opacity="0.48"/>
<path d="M464.095 84.097C464.749 84.097 465.279 83.4802 465.279 82.7194C465.279 81.9586 464.749 81.3418 464.095 81.3418C463.441 81.3418 462.911 81.9586 462.911 82.7194C462.911 83.4802 463.441 84.097 464.095 84.097Z" fill="black" fill-opacity="0.48"/>
<path d="M476.809 84.097C477.463 84.097 477.993 83.4802 477.993 82.7194C477.993 81.9586 477.463 81.3418 476.809 81.3418C476.155 81.3418 475.625 81.9586 475.625 82.7194C475.625 83.4802 476.155 84.097 476.809 84.097Z" fill="black" fill-opacity="0.48"/>
<path d="M336.957 98.9143C337.611 98.9143 338.141 98.2976 338.141 97.5368C338.141 96.7759 337.611 96.1592 336.957 96.1592C336.303 96.1592 335.773 96.7759 335.773 97.5368C335.773 98.2976 336.303 98.9143 336.957 98.9143Z" fill="black" fill-opacity="0.48"/>
<path d="M349.67 98.9143C350.324 98.9143 350.854 98.2976 350.854 97.5368C350.854 96.7759 350.324 96.1592 349.67 96.1592C349.016 96.1592 348.486 96.7759 348.486 97.5368C348.486 98.2976 349.016 98.9143 349.67 98.9143Z" fill="black" fill-opacity="0.48"/>
<path d="M362.384 98.9143C363.038 98.9143 363.568 98.2976 363.568 97.5368C363.568 96.7759 363.038 96.1592 362.384 96.1592C361.73 96.1592 361.2 96.7759 361.2 97.5368C361.2 98.2976 361.73 98.9143 362.384 98.9143Z" fill="black" fill-opacity="0.48"/>
<path d="M375.098 98.9143C375.752 98.9143 376.282 98.2976 376.282 97.5368C376.282 96.7759 375.752 96.1592 375.098 96.1592C374.444 96.1592 373.914 96.7759 373.914 97.5368C373.914 98.2976 374.444 98.9143 375.098 98.9143Z" fill="black" fill-opacity="0.48"/>
<path d="M387.811 98.9143C388.465 98.9143 388.996 98.2976 388.996 97.5368C388.996 96.7759 388.465 96.1592 387.811 96.1592C387.158 96.1592 386.627 96.7759 386.627 97.5368C386.627 98.2976 387.158 98.9143 387.811 98.9143Z" fill="black" fill-opacity="0.48"/>
<path d="M400.525 98.9143C401.179 98.9143 401.709 98.2976 401.709 97.5368C401.709 96.7759 401.179 96.1592 400.525 96.1592C399.871 96.1592 399.341 96.7759 399.341 97.5368C399.341 98.2976 399.871 98.9143 400.525 98.9143Z" fill="black" fill-opacity="0.48"/>
<path d="M413.239 98.9143C413.893 98.9143 414.423 98.2976 414.423 97.5368C414.423 96.7759 413.893 96.1592 413.239 96.1592C412.585 96.1592 412.055 96.7759 412.055 97.5368C412.055 98.2976 412.585 98.9143 413.239 98.9143Z" fill="black" fill-opacity="0.48"/>
<path d="M425.954 98.9143C426.608 98.9143 427.138 98.2976 427.138 97.5368C427.138 96.7759 426.608 96.1592 425.954 96.1592C425.3 96.1592 424.77 96.7759 424.77 97.5368C424.77 98.2976 425.3 98.9143 425.954 98.9143Z" fill="black" fill-opacity="0.48"/>
<path d="M438.668 98.9143C439.322 98.9143 439.852 98.2976 439.852 97.5368C439.852 96.7759 439.322 96.1592 438.668 96.1592C438.014 96.1592 437.484 96.7759 437.484 97.5368C437.484 98.2976 438.014 98.9143 438.668 98.9143Z" fill="black" fill-opacity="0.48"/>
<path d="M451.381 98.9143C452.035 98.9143 452.565 98.2976 452.565 97.5368C452.565 96.7759 452.035 96.1592 451.381 96.1592C450.727 96.1592 450.197 96.7759 450.197 97.5368C450.197 98.2976 450.727 98.9143 451.381 98.9143Z" fill="black" fill-opacity="0.48"/>
<path d="M464.095 98.9143C464.749 98.9143 465.279 98.2976 465.279 97.5368C465.279 96.7759 464.749 96.1592 464.095 96.1592C463.441 96.1592 462.911 96.7759 462.911 97.5368C462.911 98.2976 463.441 98.9143 464.095 98.9143Z" fill="black" fill-opacity="0.48"/>
<path d="M476.809 98.9143C477.463 98.9143 477.993 98.2976 477.993 97.5368C477.993 96.7759 477.463 96.1592 476.809 96.1592C476.155 96.1592 475.625 96.7759 475.625 97.5368C475.625 98.2976 476.155 98.9143 476.809 98.9143Z" fill="black" fill-opacity="0.48"/>
<path d="M336.957 113.731C337.611 113.731 338.141 113.114 338.141 112.353C338.141 111.592 337.611 110.976 336.957 110.976C336.303 110.976 335.773 111.592 335.773 112.353C335.773 113.114 336.303 113.731 336.957 113.731Z" fill="black" fill-opacity="0.48"/>
<path d="M349.67 113.731C350.324 113.731 350.854 113.114 350.854 112.353C350.854 111.592 350.324 110.976 349.67 110.976C349.016 110.976 348.486 111.592 348.486 112.353C348.486 113.114 349.016 113.731 349.67 113.731Z" fill="black" fill-opacity="0.48"/>
<path d="M362.384 113.731C363.038 113.731 363.568 113.114 363.568 112.353C363.568 111.592 363.038 110.976 362.384 110.976C361.73 110.976 361.2 111.592 361.2 112.353C361.2 113.114 361.73 113.731 362.384 113.731Z" fill="black" fill-opacity="0.48"/>
<path d="M375.098 113.731C375.752 113.731 376.282 113.114 376.282 112.353C376.282 111.592 375.752 110.976 375.098 110.976C374.444 110.976 373.914 111.592 373.914 112.353C373.914 113.114 374.444 113.731 375.098 113.731Z" fill="black" fill-opacity="0.48"/>
<path d="M387.811 113.731C388.465 113.731 388.996 113.114 388.996 112.353C388.996 111.592 388.465 110.976 387.811 110.976C387.158 110.976 386.627 111.592 386.627 112.353C386.627 113.114 387.158 113.731 387.811 113.731Z" fill="black" fill-opacity="0.48"/>
<path d="M400.525 113.731C401.179 113.731 401.709 113.114 401.709 112.353C401.709 111.592 401.179 110.976 400.525 110.976C399.871 110.976 399.341 111.592 399.341 112.353C399.341 113.114 399.871 113.731 400.525 113.731Z" fill="black" fill-opacity="0.48"/>
<path d="M413.239 113.731C413.893 113.731 414.423 113.114 414.423 112.353C414.423 111.592 413.893 110.976 413.239 110.976C412.585 110.976 412.055 111.592 412.055 112.353C412.055 113.114 412.585 113.731 413.239 113.731Z" fill="black" fill-opacity="0.48"/>
<path d="M425.954 113.731C426.608 113.731 427.138 113.114 427.138 112.353C427.138 111.592 426.608 110.976 425.954 110.976C425.3 110.976 424.77 111.592 424.77 112.353C424.77 113.114 425.3 113.731 425.954 113.731Z" fill="black" fill-opacity="0.48"/>
<path d="M438.668 113.731C439.322 113.731 439.852 113.114 439.852 112.353C439.852 111.592 439.322 110.976 438.668 110.976C438.014 110.976 437.484 111.592 437.484 112.353C437.484 113.114 438.014 113.731 438.668 113.731Z" fill="black" fill-opacity="0.48"/>
<path d="M451.381 113.731C452.035 113.731 452.565 113.114 452.565 112.353C452.565 111.592 452.035 110.976 451.381 110.976C450.727 110.976 450.197 111.592 450.197 112.353C450.197 113.114 450.727 113.731 451.381 113.731Z" fill="black" fill-opacity="0.48"/>
<path d="M464.095 113.731C464.749 113.731 465.279 113.114 465.279 112.353C465.279 111.592 464.749 110.976 464.095 110.976C463.441 110.976 462.911 111.592 462.911 112.353C462.911 113.114 463.441 113.731 464.095 113.731Z" fill="black" fill-opacity="0.48"/>
<path d="M476.809 113.731C477.463 113.731 477.993 113.114 477.993 112.353C477.993 111.592 477.463 110.976 476.809 110.976C476.155 110.976 475.625 111.592 475.625 112.353C475.625 113.114 476.155 113.731 476.809 113.731Z" fill="black" fill-opacity="0.48"/>
<path d="M489.501 10.0071C490.155 10.0071 490.685 9.39035 490.685 8.62953C490.685 7.86872 490.155 7.25195 489.501 7.25195C488.847 7.25195 488.317 7.86872 488.317 8.62953C488.317 9.39035 488.847 10.0071 489.501 10.0071Z" fill="black" fill-opacity="0.48"/>
<path d="M489.501 24.8245C490.155 24.8245 490.685 24.2077 490.685 23.4469C490.685 22.6861 490.155 22.0693 489.501 22.0693C488.847 22.0693 488.317 22.6861 488.317 23.4469C488.317 24.2077 488.847 24.8245 489.501 24.8245Z" fill="black" fill-opacity="0.48"/>
<path d="M489.501 39.6438C490.155 39.6438 490.685 39.0271 490.685 38.2663C490.685 37.5054 490.155 36.8887 489.501 36.8887C488.847 36.8887 488.317 37.5054 488.317 38.2663C488.317 39.0271 488.847 39.6438 489.501 39.6438Z" fill="black" fill-opacity="0.48"/>
<path d="M489.501 54.4602C490.155 54.4602 490.685 53.8435 490.685 53.0827C490.685 52.3218 490.155 51.7051 489.501 51.7051C488.847 51.7051 488.317 52.3218 488.317 53.0827C488.317 53.8435 488.847 54.4602 489.501 54.4602Z" fill="black" fill-opacity="0.48"/>
<path d="M489.501 69.2776C490.155 69.2776 490.685 68.6609 490.685 67.9C490.685 67.1392 490.155 66.5225 489.501 66.5225C488.847 66.5225 488.317 67.1392 488.317 67.9C488.317 68.6609 488.847 69.2776 489.501 69.2776Z" fill="black" fill-opacity="0.48"/>
<path d="M489.501 84.097C490.155 84.097 490.685 83.4802 490.685 82.7194C490.685 81.9586 490.155 81.3418 489.501 81.3418C488.847 81.3418 488.317 81.9586 488.317 82.7194C488.317 83.4802 488.847 84.097 489.501 84.097Z" fill="black" fill-opacity="0.48"/>
<path d="M489.501 98.9143C490.155 98.9143 490.685 98.2976 490.685 97.5368C490.685 96.7759 490.155 96.1592 489.501 96.1592C488.847 96.1592 488.317 96.7759 488.317 97.5368C488.317 98.2976 488.847 98.9143 489.501 98.9143Z" fill="black" fill-opacity="0.48"/>
<path d="M489.501 113.731C490.155 113.731 490.685 113.114 490.685 112.353C490.685 111.592 490.155 110.976 489.501 110.976C488.847 110.976 488.317 111.592 488.317 112.353C488.317 113.114 488.847 113.731 489.501 113.731Z" fill="black" fill-opacity="0.48"/>
</g>
<mask id="mask3_1152_980" style="mask-type:luminance" maskUnits="userSpaceOnUse" x="490" y="0" width="17" height="121">
<path d="M507 0H490V121H507V0Z" fill="white"/>
</mask>
<g mask="url(#mask3_1152_980)">
<path d="M489.222 112.207H654.491" stroke="black" stroke-opacity="0.48" stroke-width="0.196684" stroke-miterlimit="10"/>
<path d="M489.222 97.415H654.491" stroke="black" stroke-opacity="0.48" stroke-width="0.196684" stroke-miterlimit="10"/>
<path d="M489.222 82.626H654.491" stroke="black" stroke-opacity="0.48" stroke-width="0.196684" stroke-miterlimit="10"/>
<path d="M489.222 67.834H654.491" stroke="black" stroke-opacity="0.48" stroke-width="0.196684" stroke-miterlimit="10"/>
<path d="M489.222 53.042H654.491" stroke="black" stroke-opacity="0.48" stroke-width="0.196684" stroke-miterlimit="10"/>
<path d="M489.222 38.252H654.491" stroke="black" stroke-opacity="0.48" stroke-width="0.196684" stroke-miterlimit="10"/>
<path d="M489.222 23.4609H654.491" stroke="black" stroke-opacity="0.48" stroke-width="0.196684" stroke-miterlimit="10"/>
<path d="M489.222 8.66895H654.491" stroke="black" stroke-opacity="0.48" stroke-width="0.196684" stroke-miterlimit="10"/>
<path d="M501.935 -35.7041V156.58" stroke="black" stroke-opacity="0.48" stroke-width="0.196684" stroke-miterlimit="10"/>
<path d="M501.957 10.0071C502.611 10.0071 503.141 9.39035 503.141 8.62953C503.141 7.86872 502.611 7.25195 501.957 7.25195C501.303 7.25195 500.773 7.86872 500.773 8.62953C500.773 9.39035 501.303 10.0071 501.957 10.0071Z" fill="black" fill-opacity="0.48"/>
<path d="M501.957 24.8245C502.611 24.8245 503.141 24.2077 503.141 23.4469C503.141 22.6861 502.611 22.0693 501.957 22.0693C501.303 22.0693 500.773 22.6861 500.773 23.4469C500.773 24.2077 501.303 24.8245 501.957 24.8245Z" fill="black" fill-opacity="0.48"/>
<path d="M501.957 39.6438C502.611 39.6438 503.141 39.0271 503.141 38.2663C503.141 37.5054 502.611 36.8887 501.957 36.8887C501.303 36.8887 500.773 37.5054 500.773 38.2663C500.773 39.0271 501.303 39.6438 501.957 39.6438Z" fill="black" fill-opacity="0.48"/>
<path d="M501.957 54.4602C502.611 54.4602 503.141 53.8435 503.141 53.0827C503.141 52.3218 502.611 51.7051 501.957 51.7051C501.303 51.7051 500.773 52.3218 500.773 53.0827C500.773 53.8435 501.303 54.4602 501.957 54.4602Z" fill="black" fill-opacity="0.48"/>
<path d="M501.957 69.2776C502.611 69.2776 503.141 68.6609 503.141 67.9C503.141 67.1392 502.611 66.5225 501.957 66.5225C501.303 66.5225 500.773 67.1392 500.773 67.9C500.773 68.6609 501.303 69.2776 501.957 69.2776Z" fill="black" fill-opacity="0.48"/>
<path d="M501.957 84.097C502.611 84.097 503.141 83.4802 503.141 82.7194C503.141 81.9586 502.611 81.3418 501.957 81.3418C501.303 81.3418 500.773 81.9586 500.773 82.7194C500.773 83.4802 501.303 84.097 501.957 84.097Z" fill="black" fill-opacity="0.48"/>
<path d="M501.957 98.9143C502.611 98.9143 503.141 98.2976 503.141 97.5368C503.141 96.7759 502.611 96.1592 501.957 96.1592C501.303 96.1592 500.773 96.7759 500.773 97.5368C500.773 98.2976 501.303 98.9143 501.957 98.9143Z" fill="black" fill-opacity="0.48"/>
<path d="M501.957 113.731C502.611 113.731 503.141 113.114 503.141 112.353C503.141 111.592 502.611 110.976 501.957 110.976C501.303 110.976 500.773 111.592 500.773 112.353C500.773 113.114 501.303 113.731 501.957 113.731Z" fill="black" fill-opacity="0.48"/>
<path d="M489.184 10.0071C489.838 10.0071 490.368 9.39035 490.368 8.62953C490.368 7.86872 489.838 7.25195 489.184 7.25195C488.53 7.25195 488 7.86872 488 8.62953C488 9.39035 488.53 10.0071 489.184 10.0071Z" fill="black" fill-opacity="0.48"/>
<path d="M489.184 24.8245C489.838 24.8245 490.368 24.2077 490.368 23.4469C490.368 22.6861 489.838 22.0693 489.184 22.0693C488.53 22.0693 488 22.6861 488 23.4469C488 24.2077 488.53 24.8245 489.184 24.8245Z" fill="black" fill-opacity="0.48"/>
<path d="M489.184 39.6438C489.838 39.6438 490.368 39.0271 490.368 38.2663C490.368 37.5054 489.838 36.8887 489.184 36.8887C488.53 36.8887 488 37.5054 488 38.2663C488 39.0271 488.53 39.6438 489.184 39.6438Z" fill="black" fill-opacity="0.48"/>
<path d="M489.184 54.4602C489.838 54.4602 490.368 53.8435 490.368 53.0827C490.368 52.3218 489.838 51.7051 489.184 51.7051C488.53 51.7051 488 52.3218 488 53.0827C488 53.8435 488.53 54.4602 489.184 54.4602Z" fill="black" fill-opacity="0.48"/>
<path d="M489.184 69.2776C489.838 69.2776 490.368 68.6609 490.368 67.9C490.368 67.1392 489.838 66.5225 489.184 66.5225C488.53 66.5225 488 67.1392 488 67.9C488 68.6609 488.53 69.2776 489.184 69.2776Z" fill="black" fill-opacity="0.48"/>
<path d="M489.184 84.097C489.838 84.097 490.368 83.4802 490.368 82.7194C490.368 81.9586 489.838 81.3418 489.184 81.3418C488.53 81.3418 488 81.9586 488 82.7194C488 83.4802 488.53 84.097 489.184 84.097Z" fill="black" fill-opacity="0.48"/>
<path d="M489.184 98.9143C489.838 98.9143 490.368 98.2976 490.368 97.5368C490.368 96.7759 489.838 96.1592 489.184 96.1592C488.53 96.1592 488 96.7759 488 97.5368C488 98.2976 488.53 98.9143 489.184 98.9143Z" fill="black" fill-opacity="0.48"/>
<path d="M489.184 113.731C489.838 113.731 490.368 113.114 490.368 112.353C490.368 111.592 489.838 110.976 489.184 110.976C488.53 110.976 488 111.592 488 112.353C488 113.114 488.53 113.731 489.184 113.731Z" fill="black" fill-opacity="0.48"/>
</g>
</g>
<rect width="507" height="169" fill="#000003" fill-opacity="0.3"/>
<rect x="0.5" y="0.5" width="506" height="168" stroke="white" stroke-opacity="0.5"/>
<defs>
<clipPath id="clip0_1152_980">
<rect width="507" height="121" fill="white"/>
</clipPath>
</defs>
</svg>
