<svg width="784" height="151" viewBox="0 0 784 151" fill="none" xmlns="http://www.w3.org/2000/svg">
<g clip-path="url(#clip0_1499_207)">
<g filter="url(#filter0_d_1499_207)">
<path d="M118.973 30.6604C94.6758 50.3729 90.1474 63.4598 84.3252 77.444C77.1791 94.614 78.0817 103.453 66.693 120.593C62.616 126.74 59.7876 128.76 57.3955 131.018C60.9761 133.246 67.4453 136.627 76.1711 137.674C76.1711 137.674 87.4093 139.035 99.2644 134.458C120.101 126.426 135.371 100.238 137.493 74.7668C137.944 69.3825 140.516 31.5428 114.55 14.8065C102.8 7.22364 90.7342 7.38816 87.0783 7.49286C60.5398 8.22572 37.8075 20.1609 24.4931 48.3089C17.693 62.697 19.0621 74.9613 26.3286 79.2837C31.7747 82.5143 39.2518 80.9139 42.3359 79.4183C47.6316 76.8458 50.5202 73.5255 51.2573 71.8204C51.3326 73.6301 51.829 80.5849 42.7572 88.4968C37.1606 93.3876 30.7818 94.2999 28.3445 94.629C24.8843 95.0777 17.678 96.1545 11.6752 91.9518C6.92114 88.6165 4.24322 84.0697 2.82903 77.3094C-0.179869 62.9513 7.46275 44.3604 22.402 28.3122C35.265 14.5224 62.8567 -0.583608 89.7713 0.0146491C96.2254 0.164213 123.591 0.0146498 142.307 18.2465C166.574 41.8777 162.406 68.9189 158.991 85.9841C153.56 113.145 132.919 134.802 111.691 142.579C96.8874 148.008 82.9712 147.47 75.464 146.842C70.8002 146.139 64.9328 144.763 58.6141 141.921C55.6353 140.59 53.0176 139.124 50.7609 137.703C48.9405 139.139 46.2174 141.143 42.697 143.192C35.8668 147.171 28.7056 151.329 19.7541 151C17.8435 150.925 5.49191 150.461 1.27945 142.131C-1.0675 137.494 0.421911 132.529 1.08387 130.3C3.38568 122.657 9.6442 118.993 12.9991 117.288C23.2294 112.083 38.1837 115.164 49.7078 126.501C51.1821 123.6 53.3034 119.636 55.2893 107.252C60.4495 75.0211 72.1542 57.9259 83.6331 47.3218C93.8333 37.8843 100.483 33.3824 118.988 30.6604H118.973ZM45.4502 133.815C42.2758 131.227 36.7996 127.025 28.5853 126.172C24.5985 125.768 18.2346 125.604 14.4434 130.001C12.9841 131.691 12.6682 133.71 12.6381 133.875C12.0965 137.12 13.8717 142.325 20.386 143.581C33.1287 146.064 44.8032 134.503 45.4502 133.8V133.815Z" fill="#FFE7B0"/>
</g>
<g filter="url(#filter1_d_1499_207)">
<path d="M440.518 131.392H401.463C401.463 131.392 411.768 126.501 414.311 119.367C417.921 109.271 426.963 84.0099 433.899 54.1419C426.376 56.0862 383.665 112.786 382.161 128.401C380.566 128.401 377.617 128.326 375.992 128.326L366.68 55.5927C366.364 52.6463 350.537 113.758 349.589 117.737C347.814 125.125 351.47 127.623 355.637 131.392H321.832C332.348 126.995 337.162 122.104 339.284 115.344C344.113 99.9983 350.402 72.5981 356.329 51.6442C357.969 44.2258 349.845 42.6554 346.355 39.2004H383.951L389.999 97.351L430.92 39.2004H463.792C460.061 42.1917 456.571 43.0293 453.487 50.9562C451.26 56.6695 439.014 99.415 435.493 112.203C431.988 125.005 440.503 131.392 440.503 131.392H440.518Z" fill="#FFE7B0"/>
</g>
<g filter="url(#filter2_d_1499_207)">
<path d="M575.874 121.282C576.506 116.316 578.657 102.063 580.733 92.4608C580.733 92.4608 588.722 92.9843 593.747 92.5655C598.396 115.868 605.286 146.663 640.46 126.173C615.501 126.786 610.762 101.33 612.146 88.976C620.406 86.553 625.175 84.7583 632.246 77.9082C647.546 63.0864 639.106 42.8055 618.691 39.201C602.488 36.3443 577.785 38.3335 563.101 39.201C565.388 42.8354 566.742 45.6173 568.051 48.115C569.961 51.8093 567.645 61.3216 566.411 66.2721C563.898 76.3079 555.729 109.676 553.172 117.378C550.148 126.517 540.008 131.392 540.008 131.392H582.629C582.629 131.392 575.227 126.262 575.874 121.282ZM582.659 82.3054L589.309 48.4441C602.969 44.1815 619.608 47.6664 619.037 60.1998C618.164 79.6432 600.276 84.2797 582.644 82.3204L582.659 82.3054Z" fill="#FFE7B0"/>
</g>
<g filter="url(#filter3_d_1499_207)">
<path d="M495.852 88.4221L486.69 123.959H506.805C517.005 123.959 525.956 117.064 540.143 107.566C531.568 117.692 527.912 124.303 527.987 131.392H455.879C455.879 131.392 463.522 125.454 465.131 120.728C467.734 113.085 479.905 68.0963 481.816 60.4237C485.818 44.3006 476.129 39.2155 476.911 39.2155H545.273C543.664 45.4672 547.064 54.83 550.795 62.3082C546.582 57.8063 540.58 52.8557 537.841 51.046C532.125 47.262 517.411 48.1295 507.03 48.2043L498.696 79.3435C498.696 79.3435 522.722 80.7494 531.733 68.9488C530.154 76.2027 526.152 89.6186 523.474 98.7121C518.073 86.2384 495.822 88.4221 495.822 88.4221H495.852Z" fill="#FFE7B0"/>
</g>
<g filter="url(#filter4_d_1499_207)">
<path d="M742.687 131.392H784C779.667 127.084 779.2 127.01 776.688 123.181C774.883 120.429 774.717 119.113 774.176 116.585L761.177 40.2324C757.251 40.2324 752.572 39.8884 747.893 39.8884C734.353 60.3488 722.513 82.0207 708.912 102.421C705.392 107.701 699.841 116.42 696.14 121.012C692.439 125.604 690.919 127.473 686.346 131.392H720.903C716.149 126.875 715.983 127.025 713.275 123.33C709.258 117.826 717.352 108.613 720.933 103.139C731.81 99.4 741.875 99.1458 750.947 103.139C752.496 111.066 754.227 119.008 750.15 123.435L742.687 131.392ZM746.418 60.0198L750.947 92.7295C742.973 90.2317 735.195 90.0971 727.658 92.7295L746.418 60.0198Z" fill="#FFE7B0"/>
</g>
<g filter="url(#filter5_d_1499_207)">
<path d="M291.337 73.0768C304.681 83.621 317.785 89.6784 318.537 104.949C320.087 136.283 269.041 145.6 253.424 124.018C243.224 109.929 256.072 102.361 259.472 100.881C261.564 115.792 270.665 127.01 281.708 128.894C289.892 130.285 300.905 126.86 303.162 120.025C305.072 114.252 300.92 107.297 294.571 101.15C280.429 87.4499 286.718 94.5242 276.187 84.0697C263.941 71.8952 264.813 59.5113 272.215 48.8922C286.658 28.1925 318.778 32.2906 328.993 45.5569C331.551 48.8773 335.252 55.3235 332.243 63.714C330.076 69.7265 323.246 72.5832 320.493 71.8204C321.065 71.97 324.585 62.0987 315.603 52.1976C304.064 39.4547 288.388 40.6213 282.821 48.6828C276.969 57.1631 282.776 66.3464 291.322 73.0917L291.337 73.0768Z" fill="#FFE7B0"/>
</g>
<g filter="url(#filter6_d_1499_207)">
<path d="M264.965 39.2004H234.74C234.74 39.2004 240.863 45.2727 235.959 51.9881C231.355 58.2997 211.677 84.0098 211.677 84.0098C210.293 79.149 202.816 52.1826 201.958 49.0267C200.303 42.9844 206.426 40.1576 209.225 39.1854H171.613C174.923 41.4438 178.052 44.1958 179.376 47.7854C183.498 58.9129 193.578 83.5761 193.578 94.2101C193.578 98.353 186.628 119.367 185.259 122.941C183.739 126.86 178.759 128.445 173.088 131.377H219.696C204.109 126.725 207.329 100.716 218.086 85.5802C230.302 68.4103 248.385 51.5095 252.387 48.0845C255.547 45.3923 264.98 39.1854 264.98 39.1854L264.965 39.2004Z" fill="#FFE7B0"/>
</g>
<g filter="url(#filter7_d_1499_207)">
<path d="M702.955 39.9483C702.955 39.9483 690.92 45.8411 688.512 50.8665C685.218 57.7464 676.387 99.1458 674.07 109.526C670.354 126.247 680.118 132.125 679.305 132.125H640.505C639.693 132.125 651.337 127.129 654.527 121.625C657.385 116.705 668.232 68.7394 670.474 58.1353C671.693 52.3322 667.661 44.3156 664.095 39.9333H702.955V39.9483Z" fill="#FFE7B0"/>
</g>
</g>
<defs>
<filter id="filter0_d_1499_207" x="-3.99414" y="-0.00256348" width="169.607" height="159.021" filterUnits="userSpaceOnUse" color-interpolation-filters="sRGB">
<feFlood flood-opacity="0" result="BackgroundImageFix"/>
<feColorMatrix in="SourceAlpha" type="matrix" values="0 0 0 0 0 0 0 0 0 0 0 0 0 0 0 0 0 0 127 0" result="hardAlpha"/>
<feOffset dy="4"/>
<feGaussianBlur stdDeviation="2"/>
<feComposite in2="hardAlpha" operator="out"/>
<feColorMatrix type="matrix" values="0 0 0 0 0 0 0 0 0 0 0 0 0 0 0 0 0 0 0.25 0"/>
<feBlend mode="normal" in2="BackgroundImageFix" result="effect1_dropShadow_1499_207"/>
<feBlend mode="normal" in="SourceGraphic" in2="effect1_dropShadow_1499_207" result="shape"/>
</filter>
<filter id="filter1_d_1499_207" x="317.832" y="39.2004" width="149.961" height="100.191" filterUnits="userSpaceOnUse" color-interpolation-filters="sRGB">
<feFlood flood-opacity="0" result="BackgroundImageFix"/>
<feColorMatrix in="SourceAlpha" type="matrix" values="0 0 0 0 0 0 0 0 0 0 0 0 0 0 0 0 0 0 127 0" result="hardAlpha"/>
<feOffset dy="4"/>
<feGaussianBlur stdDeviation="2"/>
<feComposite in2="hardAlpha" operator="out"/>
<feColorMatrix type="matrix" values="0 0 0 0 0 0 0 0 0 0 0 0 0 0 0 0 0 0 0.25 0"/>
<feBlend mode="normal" in2="BackgroundImageFix" result="effect1_dropShadow_1499_207"/>
<feBlend mode="normal" in="SourceGraphic" in2="effect1_dropShadow_1499_207" result="shape"/>
</filter>
<filter id="filter2_d_1499_207" x="536.008" y="37.7158" width="108.453" height="103.171" filterUnits="userSpaceOnUse" color-interpolation-filters="sRGB">
<feFlood flood-opacity="0" result="BackgroundImageFix"/>
<feColorMatrix in="SourceAlpha" type="matrix" values="0 0 0 0 0 0 0 0 0 0 0 0 0 0 0 0 0 0 127 0" result="hardAlpha"/>
<feOffset dy="4"/>
<feGaussianBlur stdDeviation="2"/>
<feComposite in2="hardAlpha" operator="out"/>
<feColorMatrix type="matrix" values="0 0 0 0 0 0 0 0 0 0 0 0 0 0 0 0 0 0 0.25 0"/>
<feBlend mode="normal" in2="BackgroundImageFix" result="effect1_dropShadow_1499_207"/>
<feBlend mode="normal" in="SourceGraphic" in2="effect1_dropShadow_1499_207" result="shape"/>
</filter>
<filter id="filter3_d_1499_207" x="451.879" y="39.2155" width="102.916" height="100.176" filterUnits="userSpaceOnUse" color-interpolation-filters="sRGB">
<feFlood flood-opacity="0" result="BackgroundImageFix"/>
<feColorMatrix in="SourceAlpha" type="matrix" values="0 0 0 0 0 0 0 0 0 0 0 0 0 0 0 0 0 0 127 0" result="hardAlpha"/>
<feOffset dy="4"/>
<feGaussianBlur stdDeviation="2"/>
<feComposite in2="hardAlpha" operator="out"/>
<feColorMatrix type="matrix" values="0 0 0 0 0 0 0 0 0 0 0 0 0 0 0 0 0 0 0.25 0"/>
<feBlend mode="normal" in2="BackgroundImageFix" result="effect1_dropShadow_1499_207"/>
<feBlend mode="normal" in="SourceGraphic" in2="effect1_dropShadow_1499_207" result="shape"/>
</filter>
<filter id="filter4_d_1499_207" x="682.346" y="39.8884" width="105.654" height="99.5034" filterUnits="userSpaceOnUse" color-interpolation-filters="sRGB">
<feFlood flood-opacity="0" result="BackgroundImageFix"/>
<feColorMatrix in="SourceAlpha" type="matrix" values="0 0 0 0 0 0 0 0 0 0 0 0 0 0 0 0 0 0 127 0" result="hardAlpha"/>
<feOffset dy="4"/>
<feGaussianBlur stdDeviation="2"/>
<feComposite in2="hardAlpha" operator="out"/>
<feColorMatrix type="matrix" values="0 0 0 0 0 0 0 0 0 0 0 0 0 0 0 0 0 0 0.25 0"/>
<feBlend mode="normal" in2="BackgroundImageFix" result="effect1_dropShadow_1499_207"/>
<feBlend mode="normal" in="SourceGraphic" in2="effect1_dropShadow_1499_207" result="shape"/>
</filter>
<filter id="filter5_d_1499_207" x="245.562" y="34.4857" width="91.8047" height="109.248" filterUnits="userSpaceOnUse" color-interpolation-filters="sRGB">
<feFlood flood-opacity="0" result="BackgroundImageFix"/>
<feColorMatrix in="SourceAlpha" type="matrix" values="0 0 0 0 0 0 0 0 0 0 0 0 0 0 0 0 0 0 127 0" result="hardAlpha"/>
<feOffset dy="4"/>
<feGaussianBlur stdDeviation="2"/>
<feComposite in2="hardAlpha" operator="out"/>
<feColorMatrix type="matrix" values="0 0 0 0 0 0 0 0 0 0 0 0 0 0 0 0 0 0 0.25 0"/>
<feBlend mode="normal" in2="BackgroundImageFix" result="effect1_dropShadow_1499_207"/>
<feBlend mode="normal" in="SourceGraphic" in2="effect1_dropShadow_1499_207" result="shape"/>
</filter>
<filter id="filter6_d_1499_207" x="167.613" y="39.1854" width="101.367" height="100.191" filterUnits="userSpaceOnUse" color-interpolation-filters="sRGB">
<feFlood flood-opacity="0" result="BackgroundImageFix"/>
<feColorMatrix in="SourceAlpha" type="matrix" values="0 0 0 0 0 0 0 0 0 0 0 0 0 0 0 0 0 0 127 0" result="hardAlpha"/>
<feOffset dy="4"/>
<feGaussianBlur stdDeviation="2"/>
<feComposite in2="hardAlpha" operator="out"/>
<feColorMatrix type="matrix" values="0 0 0 0 0 0 0 0 0 0 0 0 0 0 0 0 0 0 0.25 0"/>
<feBlend mode="normal" in2="BackgroundImageFix" result="effect1_dropShadow_1499_207"/>
<feBlend mode="normal" in="SourceGraphic" in2="effect1_dropShadow_1499_207" result="shape"/>
</filter>
<filter id="filter7_d_1499_207" x="636.465" y="39.9333" width="70.4902" height="100.191" filterUnits="userSpaceOnUse" color-interpolation-filters="sRGB">
<feFlood flood-opacity="0" result="BackgroundImageFix"/>
<feColorMatrix in="SourceAlpha" type="matrix" values="0 0 0 0 0 0 0 0 0 0 0 0 0 0 0 0 0 0 127 0" result="hardAlpha"/>
<feOffset dy="4"/>
<feGaussianBlur stdDeviation="2"/>
<feComposite in2="hardAlpha" operator="out"/>
<feColorMatrix type="matrix" values="0 0 0 0 0 0 0 0 0 0 0 0 0 0 0 0 0 0 0.25 0"/>
<feBlend mode="normal" in2="BackgroundImageFix" result="effect1_dropShadow_1499_207"/>
<feBlend mode="normal" in="SourceGraphic" in2="effect1_dropShadow_1499_207" result="shape"/>
</filter>
<clipPath id="clip0_1499_207">
<rect width="784" height="151" fill="white"/>
</clipPath>
</defs>
</svg>
