<svg width="366" height="71" viewBox="0 0 366 71" fill="none" xmlns="http://www.w3.org/2000/svg">
<g clip-path="url(#clip0_1100_8)">
<path d="M55.9716 14.3438C44.6716 23.5658 42.5655 29.6881 39.8577 36.2303C36.5341 44.2628 36.9539 48.398 31.6572 56.4165C29.7611 59.2922 28.4456 60.2368 27.3331 61.2934C28.9984 62.3359 32.0071 63.9172 36.0653 64.407C36.0653 64.407 41.292 65.0437 46.8056 62.9027C56.4964 59.1453 63.5983 46.8937 64.5849 34.9778C64.7948 32.4589 65.9913 14.7566 53.9145 6.92706C48.4499 3.37961 42.8384 3.45657 41.1381 3.50555C28.7955 3.8484 18.2231 9.43197 12.0308 22.6002C8.86815 29.3313 9.50487 35.0688 12.8844 37.0909C15.4173 38.6023 18.8948 37.8536 20.3292 37.1539C22.7921 35.9504 24.1355 34.3971 24.4784 33.5994C24.5133 34.4461 24.7442 37.6997 20.5251 41.401C17.9222 43.689 14.9555 44.1159 13.822 44.2698C12.2127 44.4797 8.86115 44.9835 6.06937 43.0173C3.85833 41.457 2.61288 39.3299 1.95516 36.1673C0.555772 29.4502 4.11022 20.753 11.0582 13.2453C17.0406 6.79412 29.873 -0.272802 42.3905 0.00707585C45.3922 0.0770454 58.1197 0.00707619 66.8239 8.53636C78.11 19.5915 76.1718 32.242 74.5835 40.2256C72.0576 52.932 62.4578 63.0636 52.5851 66.702C45.7001 69.2419 39.2279 68.99 35.7364 68.6962C33.5674 68.3673 30.8386 67.7236 27.8999 66.3942C26.5145 65.7714 25.297 65.0857 24.2475 64.421C23.4008 65.0927 22.1344 66.0303 20.4971 66.9889C17.3205 68.8501 13.9899 70.7952 9.82673 70.6413C8.93812 70.6063 3.19362 70.3894 1.23448 66.4921C0.142951 64.3231 0.83565 62.0001 1.14352 60.9575C2.21405 57.3821 5.12478 55.6678 6.6851 54.8702C11.443 52.4352 18.398 53.8766 23.7577 59.1803C24.4434 57.8229 25.4299 55.9687 26.3535 50.1752C28.7535 35.0968 34.1971 27.0993 39.5358 22.1384C44.2797 17.7234 47.3724 15.6173 55.9786 14.3438H55.9716ZM21.7775 62.6018C20.3012 61.3913 17.7543 59.4252 13.9339 59.0264C12.0798 58.8374 9.12004 58.7605 7.35681 60.8176C6.67811 61.6082 6.53117 62.5528 6.51718 62.6298C6.26528 64.1481 7.09093 66.5831 10.1206 67.1708C16.047 68.3323 21.4767 62.9237 21.7775 62.5948V62.6018Z" fill="white"/>
<path d="M205.517 61.4681H187.353C187.353 61.4681 192.146 59.1801 193.328 55.8425C195.008 51.1196 199.213 39.3017 202.438 25.3288C198.94 26.2384 179.076 52.7639 178.376 60.0687C177.634 60.0687 176.263 60.0337 175.507 60.0337L171.176 26.0075C171.029 24.6291 163.668 53.2187 163.227 55.0799C162.402 58.5364 164.102 59.7048 166.04 61.4681H150.318C155.209 59.411 157.448 57.123 158.435 53.9604C160.681 46.7815 163.605 33.9631 166.362 24.1603C167.125 20.6898 163.346 19.9552 161.723 18.3389H179.208L182.021 45.543L201.053 18.3389H216.341C214.606 19.7383 212.983 20.1301 211.548 23.8385C210.513 26.5113 204.817 46.5086 203.18 52.491C201.55 58.4804 205.51 61.4681 205.51 61.4681H205.517Z" fill="white"/>
<path d="M268.469 56.7386C268.763 54.4156 269.763 47.7475 270.729 43.2555C270.729 43.2555 274.444 43.5004 276.781 43.3045C278.943 54.2057 282.148 68.6124 298.507 59.0266C286.899 59.3135 284.695 47.4047 285.339 41.6252C289.18 40.4917 291.398 39.6521 294.687 36.4475C301.802 29.5135 297.877 20.0256 288.382 18.3393C280.847 17.0029 269.358 17.9335 262.529 18.3393C263.592 20.0396 264.222 21.341 264.831 22.5095C265.719 24.2378 264.642 28.6878 264.068 31.0038C262.899 35.6988 259.1 51.309 257.911 54.9124C256.504 59.1875 251.788 61.4686 251.788 61.4686H271.611C271.611 61.4686 268.168 59.0686 268.469 56.7386ZM271.625 38.5046L274.717 22.6635C281.07 20.6693 288.809 22.2996 288.543 28.1631C288.137 37.2591 279.818 39.4282 271.618 38.5116L271.625 38.5046Z" fill="white"/>
<path d="M231.252 41.3657L226.991 57.9904H236.346C241.09 57.9904 245.253 54.7648 251.851 50.3218C247.863 55.0587 246.162 58.1514 246.197 61.4679H212.661C212.661 61.4679 216.215 58.6901 216.964 56.4791C218.175 52.9036 223.835 31.8568 224.724 28.2674C226.585 20.7247 222.079 18.3457 222.443 18.3457H254.237C253.488 21.2704 255.069 25.6505 256.805 29.149C254.846 27.0429 252.054 24.7269 250.78 23.8803C248.121 22.1101 241.278 22.5159 236.451 22.5509L232.574 37.1185C232.574 37.1185 243.748 37.7762 247.94 32.2556C247.205 35.6492 245.344 41.9254 244.098 46.1796C241.586 40.3441 231.238 41.3657 231.238 41.3657H231.252Z" fill="white"/>
<path d="M346.051 61.468H365.264C363.249 59.4529 363.032 59.4179 361.864 57.6267C361.024 56.3392 360.947 55.7235 360.695 54.541L354.65 18.8216C352.824 18.8216 350.648 18.6606 348.472 18.6606C342.175 28.2325 336.668 38.3711 330.343 47.9149C328.705 50.3848 326.124 54.4641 324.402 56.6121C322.681 58.7602 321.974 59.6348 319.847 61.468H335.919C333.708 59.3549 333.631 59.4249 332.372 57.6966C330.504 55.1218 334.268 50.8116 335.933 48.2508C340.992 46.5015 345.673 46.3826 349.892 48.2508C350.613 51.9591 351.418 55.6745 349.521 57.7456L346.051 61.468ZM347.786 28.0785L349.892 43.3809C346.184 42.2124 342.566 42.1494 339.061 43.3809L347.786 28.0785Z" fill="white"/>
<path d="M136.135 34.1871C142.341 39.1199 148.436 41.9537 148.786 49.0976C149.506 63.7562 125.766 68.1153 118.503 58.0187C113.759 51.4276 119.734 47.8871 121.316 47.1944C122.288 54.1704 126.521 59.4181 131.657 60.2997C135.463 60.9504 140.585 59.3481 141.635 56.1505C142.523 53.4497 140.592 50.1961 137.639 47.3203C131.062 40.9111 133.987 44.2207 129.089 39.3298C123.394 33.6343 123.799 27.8408 127.242 22.873C133.959 13.1892 148.898 15.1064 153.648 21.3127C154.838 22.866 156.559 25.8817 155.16 29.807C154.152 32.6197 150.976 33.9562 149.695 33.5993C149.961 33.6693 151.598 29.0513 147.421 24.4193C142.055 18.4579 134.764 19.0037 132.175 22.775C129.453 26.7423 132.154 31.0384 136.128 34.1941L136.135 34.1871Z" fill="white"/>
<path d="M123.87 18.339H109.813C109.813 18.339 112.661 21.1798 110.38 24.3214C108.238 27.2741 99.0865 39.3019 99.0865 39.3019C98.4427 37.0279 94.9653 24.4124 94.5664 22.936C93.7968 20.1093 96.6445 18.7868 97.946 18.332H80.4536C81.9929 19.3886 83.4483 20.676 84.064 22.3553C85.9812 27.561 90.6691 39.099 90.6691 44.0738C90.6691 46.012 87.4365 55.8427 86.7998 57.515C86.0931 59.3482 83.7771 60.0898 81.1393 61.4612H102.816C95.567 59.2852 97.0644 47.1175 102.067 40.0366C107.749 32.0041 116.159 24.0975 118.02 22.4952C119.49 21.2358 123.877 18.332 123.877 18.332L123.87 18.339Z" fill="white"/>
<path d="M327.572 18.6886C327.572 18.6886 321.974 21.4454 320.855 23.7964C319.323 27.015 315.215 46.3826 314.138 51.2385C312.41 59.0611 316.951 61.8109 316.573 61.8109H298.528C298.15 61.8109 303.565 59.4739 305.049 56.899C306.378 54.597 311.423 32.1578 312.466 27.1969C313.032 24.4821 311.157 20.7317 309.499 18.6816H327.572V18.6886Z" fill="white"/>
</g>
<defs>
<clipPath id="clip0_1100_8">
<rect width="364.625" height="70.6412" fill="white" transform="translate(0.639526)"/>
</clipPath>
</defs>
</svg>
