<svg width="792" height="159" viewBox="0 0 792 159" fill="none" xmlns="http://www.w3.org/2000/svg">
<g clip-path="url(#clip0_1622_506)" filter="url(#filter0_d_1622_506)">
<g filter="url(#filter1_d_1622_506)">
<path d="M122.973 30.66C98.6758 50.3725 94.1474 63.4594 88.3252 77.4437C81.1791 94.6136 82.0817 103.453 70.693 120.593C66.616 126.74 63.7876 128.759 61.3955 131.018C64.9761 133.246 71.4453 136.626 80.1711 137.673C80.1711 137.673 91.4093 139.034 103.264 134.458C124.101 126.426 139.371 100.237 141.493 74.7665C141.944 69.3822 144.516 31.5424 118.55 14.8062C106.8 7.22328 94.7342 7.3878 91.0783 7.49249C64.5398 8.22536 41.8075 20.1606 28.4931 48.3086C21.693 62.6966 23.0621 74.9609 30.3286 79.2833C35.7747 82.5139 43.2518 80.9136 46.3359 79.4179C51.6316 76.8454 54.5202 73.5251 55.2573 71.8201C55.3326 73.6298 55.829 80.5845 46.7572 88.4965C41.1606 93.3872 34.7818 94.2996 32.3445 94.6286C28.8843 95.0773 21.678 96.1541 15.6752 91.9514C10.9211 88.6161 8.24322 84.0694 6.82903 77.3091C3.82013 62.9509 11.4627 44.3601 26.402 28.3118C39.265 14.522 66.8567 -0.583974 93.7713 0.0142828C100.225 0.163847 127.591 0.0142836 146.307 18.2462C170.574 41.8773 166.406 68.9185 162.991 85.9838C157.56 113.145 136.919 134.802 115.691 142.579C100.887 148.008 86.9712 147.47 79.464 146.841C74.8002 146.139 68.9328 144.763 62.6141 141.921C59.6353 140.59 57.0176 139.124 54.7609 137.703C52.9405 139.139 50.2174 141.143 46.697 143.192C39.8668 147.171 32.7056 151.328 23.7541 150.999C21.8435 150.925 9.49191 150.461 5.27945 142.13C2.9325 137.494 4.42191 132.528 5.08387 130.3C7.38568 122.657 13.6442 118.993 16.9991 117.288C27.2294 112.083 42.1837 115.164 53.7078 126.501C55.1821 123.599 57.3034 119.636 59.2893 107.252C64.4495 75.0207 76.1542 57.9255 87.6331 47.3214C97.8333 37.8839 104.483 33.3821 122.988 30.66H122.973ZM49.4502 133.814C46.2758 131.227 40.7996 127.024 32.5853 126.172C28.5985 125.768 22.2346 125.603 18.4434 130.001C16.9841 131.691 16.6682 133.71 16.6381 133.874C16.0965 137.12 17.8717 142.325 24.386 143.581C37.1287 146.064 48.8032 134.502 49.4502 133.799V133.814Z" fill="#FFFCF5"/>
</g>
<g filter="url(#filter2_d_1622_506)">
<path d="M444.518 131.392H405.463C405.463 131.392 415.768 126.501 418.311 119.367C421.921 109.271 430.963 84.0096 437.899 54.1417C430.376 56.086 387.665 112.786 386.161 128.4C384.566 128.4 381.617 128.326 379.992 128.326L370.68 55.5924C370.364 52.646 354.537 113.758 353.589 117.736C351.814 125.125 355.47 127.623 359.637 131.392H325.832C336.348 126.994 341.162 122.104 343.284 115.343C348.113 99.998 354.402 72.5979 360.329 51.6439C361.969 44.2256 353.845 42.6551 350.355 39.2002H387.951L393.999 97.3507L434.92 39.2002H467.792C464.061 42.1915 460.571 43.029 457.487 50.9559C455.26 56.6693 443.014 99.4147 439.493 112.202C435.988 125.005 444.503 131.392 444.503 131.392H444.518Z" fill="#FFFCF5"/>
</g>
<g filter="url(#filter3_d_1622_506)">
<path d="M579.874 121.282C580.506 116.316 582.657 102.063 584.733 92.4608C584.733 92.4608 592.722 92.9843 597.747 92.5655C602.396 115.868 609.286 146.663 644.46 126.173C619.501 126.786 614.762 101.33 616.146 88.976C624.406 86.553 629.175 84.7583 636.246 77.9082C651.546 63.0864 643.106 42.8055 622.691 39.201C606.488 36.3443 581.785 38.3335 567.101 39.201C569.388 42.8354 570.742 45.6173 572.051 48.115C573.961 51.8093 571.645 61.3216 570.411 66.2721C567.898 76.3079 559.729 109.676 557.172 117.378C554.148 126.517 544.008 131.392 544.008 131.392H586.629C586.629 131.392 579.227 126.262 579.874 121.282ZM586.659 82.3054L593.309 48.4441C606.969 44.1815 623.608 47.6664 623.037 60.1998C622.164 79.6432 604.276 84.2797 586.644 82.3204L586.659 82.3054Z" fill="#FFFCF5"/>
</g>
<g filter="url(#filter4_d_1622_506)">
<path d="M499.852 88.4224L490.69 123.959H510.805C521.005 123.959 529.956 117.064 544.143 107.567C535.568 117.692 531.912 124.303 531.987 131.392H459.879C459.879 131.392 467.522 125.455 469.131 120.728C471.734 113.086 483.905 68.0967 485.816 60.424C489.818 44.301 480.129 39.2158 480.911 39.2158H549.273C547.664 45.4676 551.064 54.8303 554.795 62.3085C550.582 57.8067 544.58 52.8561 541.841 51.0464C536.125 47.2624 521.411 48.1298 511.03 48.2046L502.696 79.3439C502.696 79.3439 526.722 80.7498 535.733 68.9492C534.154 76.203 530.152 89.619 527.474 98.7125C522.073 86.2388 499.822 88.4224 499.822 88.4224H499.852Z" fill="#FFFCF5"/>
</g>
<g filter="url(#filter5_d_1622_506)">
<path d="M746.687 131.392H788C783.667 127.085 783.2 127.01 780.688 123.181C778.883 120.429 778.717 119.113 778.176 116.585L765.177 40.2327C761.251 40.2327 756.572 39.8887 751.893 39.8887C738.353 60.3491 726.513 82.0209 712.912 102.421C709.392 107.701 703.841 116.421 700.14 121.012C696.439 125.604 694.919 127.473 690.346 131.392H724.903C720.149 126.875 719.983 127.025 717.275 123.331C713.258 117.827 721.352 108.613 724.933 103.139C735.81 99.4003 745.875 99.146 754.947 103.139C756.496 111.066 758.227 119.008 754.15 123.435L746.687 131.392ZM750.418 60.02L754.947 92.7297C746.973 90.232 739.195 90.0974 731.658 92.7297L750.418 60.02Z" fill="#FFFCF5"/>
</g>
<g filter="url(#filter6_d_1622_506)">
<path d="M295.337 73.0764C308.681 83.6207 321.785 89.678 322.537 104.949C324.087 136.282 273.041 145.6 257.424 124.018C247.224 109.929 260.072 102.361 263.472 100.88C265.564 115.792 274.665 127.009 285.708 128.894C293.892 130.285 304.905 126.86 307.162 120.025C309.072 114.251 304.92 107.297 298.571 101.15C284.429 87.4495 290.718 94.5239 280.187 84.0693C267.941 71.8948 268.813 59.5109 276.215 48.8919C290.658 28.1922 322.778 32.2902 332.993 45.5566C335.551 48.8769 339.252 55.3231 336.243 63.7137C334.076 69.7261 327.246 72.5828 324.493 71.82C325.065 71.9696 328.585 62.0984 319.603 52.1972C308.064 39.4544 292.388 40.621 286.821 48.6825C280.969 57.1628 286.776 66.346 295.322 73.0913L295.337 73.0764Z" fill="#FFFCF5"/>
</g>
<g filter="url(#filter7_d_1622_506)">
<path d="M268.965 39.2005H238.74C238.74 39.2005 244.863 45.2728 239.959 51.9882C235.355 58.2998 215.677 84.0099 215.677 84.0099C214.293 79.1491 206.816 52.1827 205.958 49.0269C204.303 42.9845 210.426 40.1577 213.225 39.1855H175.613C178.923 41.444 182.052 44.1959 183.376 47.7855C187.498 58.9131 197.578 83.5762 197.578 94.2102C197.578 98.3531 190.628 119.367 189.259 122.941C187.739 126.86 182.759 128.445 177.088 131.377H223.696C208.109 126.725 211.329 100.716 222.086 85.5804C234.302 68.4104 252.385 51.5096 256.387 48.0846C259.547 45.3925 268.98 39.1855 268.98 39.1855L268.965 39.2005Z" fill="#FFFCF5"/>
</g>
<g filter="url(#filter8_d_1622_506)">
<path d="M706.955 39.9485C706.955 39.9485 694.92 45.8414 692.512 50.8667C689.218 57.7467 680.387 99.1461 678.07 109.526C674.354 126.247 684.118 132.125 683.305 132.125H644.505C643.693 132.125 655.337 127.13 658.527 121.626C661.385 116.705 672.232 68.7397 674.474 58.1356C675.693 52.3325 671.661 44.3158 668.095 39.9336H706.955V39.9485Z" fill="#FFFCF5"/>
</g>
</g>
<defs>
<filter id="filter0_d_1622_506" x="0" y="0" width="792" height="159" filterUnits="userSpaceOnUse" color-interpolation-filters="sRGB">
<feFlood flood-opacity="0" result="BackgroundImageFix"/>
<feColorMatrix in="SourceAlpha" type="matrix" values="0 0 0 0 0 0 0 0 0 0 0 0 0 0 0 0 0 0 127 0" result="hardAlpha"/>
<feOffset dy="4"/>
<feGaussianBlur stdDeviation="2"/>
<feComposite in2="hardAlpha" operator="out"/>
<feColorMatrix type="matrix" values="0 0 0 0 0 0 0 0 0 0 0 0 0 0 0 0 0 0 0.25 0"/>
<feBlend mode="normal" in2="BackgroundImageFix" result="effect1_dropShadow_1622_506"/>
<feBlend mode="normal" in="SourceGraphic" in2="effect1_dropShadow_1622_506" result="shape"/>
</filter>
<filter id="filter1_d_1622_506" x="0.00585938" y="-0.00292969" width="169.607" height="159.021" filterUnits="userSpaceOnUse" color-interpolation-filters="sRGB">
<feFlood flood-opacity="0" result="BackgroundImageFix"/>
<feColorMatrix in="SourceAlpha" type="matrix" values="0 0 0 0 0 0 0 0 0 0 0 0 0 0 0 0 0 0 127 0" result="hardAlpha"/>
<feOffset dy="4"/>
<feGaussianBlur stdDeviation="2"/>
<feComposite in2="hardAlpha" operator="out"/>
<feColorMatrix type="matrix" values="0 0 0 0 0 0 0 0 0 0 0 0 0 0 0 0 0 0 0.25 0"/>
<feBlend mode="normal" in2="BackgroundImageFix" result="effect1_dropShadow_1622_506"/>
<feBlend mode="normal" in="SourceGraphic" in2="effect1_dropShadow_1622_506" result="shape"/>
</filter>
<filter id="filter2_d_1622_506" x="321.832" y="39.2002" width="149.961" height="100.191" filterUnits="userSpaceOnUse" color-interpolation-filters="sRGB">
<feFlood flood-opacity="0" result="BackgroundImageFix"/>
<feColorMatrix in="SourceAlpha" type="matrix" values="0 0 0 0 0 0 0 0 0 0 0 0 0 0 0 0 0 0 127 0" result="hardAlpha"/>
<feOffset dy="4"/>
<feGaussianBlur stdDeviation="2"/>
<feComposite in2="hardAlpha" operator="out"/>
<feColorMatrix type="matrix" values="0 0 0 0 0 0 0 0 0 0 0 0 0 0 0 0 0 0 0.25 0"/>
<feBlend mode="normal" in2="BackgroundImageFix" result="effect1_dropShadow_1622_506"/>
<feBlend mode="normal" in="SourceGraphic" in2="effect1_dropShadow_1622_506" result="shape"/>
</filter>
<filter id="filter3_d_1622_506" x="540.008" y="37.7158" width="108.453" height="103.171" filterUnits="userSpaceOnUse" color-interpolation-filters="sRGB">
<feFlood flood-opacity="0" result="BackgroundImageFix"/>
<feColorMatrix in="SourceAlpha" type="matrix" values="0 0 0 0 0 0 0 0 0 0 0 0 0 0 0 0 0 0 127 0" result="hardAlpha"/>
<feOffset dy="4"/>
<feGaussianBlur stdDeviation="2"/>
<feComposite in2="hardAlpha" operator="out"/>
<feColorMatrix type="matrix" values="0 0 0 0 0 0 0 0 0 0 0 0 0 0 0 0 0 0 0.25 0"/>
<feBlend mode="normal" in2="BackgroundImageFix" result="effect1_dropShadow_1622_506"/>
<feBlend mode="normal" in="SourceGraphic" in2="effect1_dropShadow_1622_506" result="shape"/>
</filter>
<filter id="filter4_d_1622_506" x="455.879" y="39.2158" width="102.916" height="100.177" filterUnits="userSpaceOnUse" color-interpolation-filters="sRGB">
<feFlood flood-opacity="0" result="BackgroundImageFix"/>
<feColorMatrix in="SourceAlpha" type="matrix" values="0 0 0 0 0 0 0 0 0 0 0 0 0 0 0 0 0 0 127 0" result="hardAlpha"/>
<feOffset dy="4"/>
<feGaussianBlur stdDeviation="2"/>
<feComposite in2="hardAlpha" operator="out"/>
<feColorMatrix type="matrix" values="0 0 0 0 0 0 0 0 0 0 0 0 0 0 0 0 0 0 0.25 0"/>
<feBlend mode="normal" in2="BackgroundImageFix" result="effect1_dropShadow_1622_506"/>
<feBlend mode="normal" in="SourceGraphic" in2="effect1_dropShadow_1622_506" result="shape"/>
</filter>
<filter id="filter5_d_1622_506" x="686.346" y="39.8887" width="105.654" height="99.5029" filterUnits="userSpaceOnUse" color-interpolation-filters="sRGB">
<feFlood flood-opacity="0" result="BackgroundImageFix"/>
<feColorMatrix in="SourceAlpha" type="matrix" values="0 0 0 0 0 0 0 0 0 0 0 0 0 0 0 0 0 0 127 0" result="hardAlpha"/>
<feOffset dy="4"/>
<feGaussianBlur stdDeviation="2"/>
<feComposite in2="hardAlpha" operator="out"/>
<feColorMatrix type="matrix" values="0 0 0 0 0 0 0 0 0 0 0 0 0 0 0 0 0 0 0.25 0"/>
<feBlend mode="normal" in2="BackgroundImageFix" result="effect1_dropShadow_1622_506"/>
<feBlend mode="normal" in="SourceGraphic" in2="effect1_dropShadow_1622_506" result="shape"/>
</filter>
<filter id="filter6_d_1622_506" x="249.562" y="34.4854" width="91.8047" height="109.248" filterUnits="userSpaceOnUse" color-interpolation-filters="sRGB">
<feFlood flood-opacity="0" result="BackgroundImageFix"/>
<feColorMatrix in="SourceAlpha" type="matrix" values="0 0 0 0 0 0 0 0 0 0 0 0 0 0 0 0 0 0 127 0" result="hardAlpha"/>
<feOffset dy="4"/>
<feGaussianBlur stdDeviation="2"/>
<feComposite in2="hardAlpha" operator="out"/>
<feColorMatrix type="matrix" values="0 0 0 0 0 0 0 0 0 0 0 0 0 0 0 0 0 0 0.25 0"/>
<feBlend mode="normal" in2="BackgroundImageFix" result="effect1_dropShadow_1622_506"/>
<feBlend mode="normal" in="SourceGraphic" in2="effect1_dropShadow_1622_506" result="shape"/>
</filter>
<filter id="filter7_d_1622_506" x="171.613" y="39.1855" width="101.367" height="100.191" filterUnits="userSpaceOnUse" color-interpolation-filters="sRGB">
<feFlood flood-opacity="0" result="BackgroundImageFix"/>
<feColorMatrix in="SourceAlpha" type="matrix" values="0 0 0 0 0 0 0 0 0 0 0 0 0 0 0 0 0 0 127 0" result="hardAlpha"/>
<feOffset dy="4"/>
<feGaussianBlur stdDeviation="2"/>
<feComposite in2="hardAlpha" operator="out"/>
<feColorMatrix type="matrix" values="0 0 0 0 0 0 0 0 0 0 0 0 0 0 0 0 0 0 0.25 0"/>
<feBlend mode="normal" in2="BackgroundImageFix" result="effect1_dropShadow_1622_506"/>
<feBlend mode="normal" in="SourceGraphic" in2="effect1_dropShadow_1622_506" result="shape"/>
</filter>
<filter id="filter8_d_1622_506" x="640.465" y="39.9336" width="70.4902" height="100.191" filterUnits="userSpaceOnUse" color-interpolation-filters="sRGB">
<feFlood flood-opacity="0" result="BackgroundImageFix"/>
<feColorMatrix in="SourceAlpha" type="matrix" values="0 0 0 0 0 0 0 0 0 0 0 0 0 0 0 0 0 0 127 0" result="hardAlpha"/>
<feOffset dy="4"/>
<feGaussianBlur stdDeviation="2"/>
<feComposite in2="hardAlpha" operator="out"/>
<feColorMatrix type="matrix" values="0 0 0 0 0 0 0 0 0 0 0 0 0 0 0 0 0 0 0.25 0"/>
<feBlend mode="normal" in2="BackgroundImageFix" result="effect1_dropShadow_1622_506"/>
<feBlend mode="normal" in="SourceGraphic" in2="effect1_dropShadow_1622_506" result="shape"/>
</filter>
<clipPath id="clip0_1622_506">
<rect width="784" height="151" fill="white" transform="translate(4)"/>
</clipPath>
</defs>
</svg>
