<svg width="901" height="641" viewBox="0 0 901 641" fill="none" xmlns="http://www.w3.org/2000/svg">
<g clip-path="url(#clip0_912_109)">
<path d="M837.759 540.043C830.881 534.159 814.647 540.13 803.109 537.326L811.102 535.329C803.83 528.526 795.128 529.743 786.127 527.688C768.948 523.753 766.82 518.12 750.169 517.348L754.163 519.349C747.191 520.527 746.762 516.671 741.176 514.284C737.571 512.748 735.334 513.973 730.189 512.256C721.719 509.42 720.242 505.615 710.213 505.367L712.21 508.36C697.836 507.651 694.018 496.016 682.244 495.43C678.978 495.26 676.438 495.926 673.255 494.658C669.827 493.291 664.064 488.454 658.27 486.501C652.065 484.63 648.413 485.579 642.288 486.501L646.282 483.393C639.263 479.088 622.572 474.413 614.319 474.562H596.478C594.461 474.023 594.26 473.026 593.342 471.407C598.775 473.393 602.82 474.854 607.327 470.411L591.345 465.716C585.05 464.806 580.209 467.205 575.363 462.419L582.356 463.416C579.657 459.895 574.52 459.272 570.368 458.315C561.848 456.346 544.416 455.428 535.407 455.428L537.405 452.431C529.471 447.866 525.866 444.652 516.428 444.443L518.425 447.436C505.402 444.384 501.734 436.574 489.46 435.455L491.457 439.449L473.474 428.822L454.495 425.147L419.537 411.523L409.547 410.684L394.562 402.204L380.578 398.939L366.593 392.748L341.622 388.514H345.617C341.181 380.132 328.067 380.053 319.645 379.435L309.659 378.525L316.647 376.528C311.585 373.243 299.488 368.966 293.673 371.463C287.371 374.181 283.187 381.672 286.464 384.528C287.961 385.835 292.677 385.516 294.674 385.516L291.676 388.514C296.833 392.196 310.207 395.784 316.647 396.304H325.459C328.087 397.033 328.245 399.207 334.638 402.264C345.766 407.577 355.697 409.345 367.594 405.489L361.598 409.487L380.578 411.484L371.588 412.484L383.576 417.896C397.079 423.659 402.575 426.144 417.536 423.469L415.539 427.463C420.565 430.319 427.975 434.273 433.522 435.691C438.395 436.94 440.482 435.932 444.508 437.44C449.184 439.197 456.354 444.821 467.482 447.539C473.253 448.945 484.26 449.268 484.26 449.189C486.281 449.768 487.269 451.474 489.668 452.911L506.438 460.73C514.45 463.636 522.12 464.148 524.247 464.956C529.684 467.051 526.556 469.351 536.404 469.41L562.376 471.407L553.386 472.408C560.111 479.119 572.236 481.987 581.355 479.399V483.393C588.718 484.732 596.32 485.74 603.332 488.454L613.318 493.539L630.301 498.065C642.548 502.527 651.529 508.27 665.266 504.366L664.265 508.36C671.695 511.338 679.695 517.128 687.239 517.329C694.55 517.541 701.602 514.174 707.215 519.349H700.223C712.372 528.995 716.535 522.953 729.192 524.344L725.194 526.34C738.989 537.014 751.217 526.14 764.153 536.325C758.217 534.588 754.345 532.631 748.172 534.328C758.871 542.8 767.498 539.752 778.138 542.749C787.525 545.396 796.219 551.607 806.107 552.214C813.119 552.647 818.141 550.209 824.086 546.893C828.722 544.297 832.457 541.308 837.073 545.317C828.931 545.715 822.329 549.02 817.093 555.302C822.408 557.791 828.372 559.847 834.036 556.85C840.528 553.403 841.848 543.549 837.759 540.043ZM328.638 395.505L327.638 394.504H328.638V395.505ZM677.249 497.375L678.25 496.375L681.243 497.375H677.249ZM870.037 277.182C855.631 265.988 835.123 260.462 817.093 260.671C789.424 261.002 764.563 279.66 745.174 297.715L728.192 314.517C703.382 337.637 690.985 348.433 660.267 363.794L644.285 371.443L629.3 375.528L631.301 377.525L605.33 383.669L562.376 395.623L538.401 400.487L522.42 408.038L501.443 414.509C494.451 416.715 490.145 419.302 482.467 418.475L515.427 408.16L526.418 404.182L538.401 398.719L564.373 393.035L613.318 380.522C609.292 379.045 606.397 380.435 602.332 381.31L582.352 385.886L538.405 396.852L512.429 402.965L501.443 409.164L481.467 415.817C477.76 416.975 474.754 417.156 472.477 420.472C481.865 421.918 491.693 428.283 499.446 428.283C503.653 428.283 511.98 425.317 516.428 424.048L549.392 415.127L586.35 404.91L606.326 399.94L636.296 390.18C655.425 383.799 680.995 374.519 697.225 362.766C703.162 358.461 714.897 343.92 720.479 337.574C735.893 320.098 752.517 301.732 773.143 290.337C782.022 285.434 786.745 282.106 797.117 280.648C790.685 284.355 786.698 284.083 774.143 292.074C756.688 303.17 742.019 317.459 728.113 332.584C722.941 338.197 711.15 350.3 708.216 356.551C714.617 352.817 719.663 347.705 725.194 342.848C738.702 331.012 766.58 301.452 780.135 293.583C784.319 291.153 793.34 287.789 798.114 286.359C803.55 284.741 812.54 282.417 818.094 282.736C853.685 284.76 888.446 313.206 881.225 351.557C879.854 358.82 879.046 362.766 875.769 369.537C873.011 375.248 869.513 381.912 864.952 386.343C853.855 397.112 830.838 408.467 815.096 408.487H806.107L764.153 404.493H757.161C747.392 404.512 733.348 408.278 726.455 415.659C720.64 422.052 719.301 432.009 726.455 438.141C732.789 443.671 749.897 439.709 746.171 425.466H744.173L740.179 430.461C742.617 419.866 758.52 415.368 768.148 415.986C791.992 417.538 801.529 424.836 832.078 424.466C839.469 424.375 845.303 422 852.055 419.275C881.312 407.439 900.634 376.886 901 345.566V334.581C900.779 316.183 884.16 288.167 870.037 277.182ZM668.937 633.205C668.161 627.002 664.545 624.217 664.435 614.229C664.383 609.624 667.87 608.454 668.579 603.244C669.366 600.238 668.547 597.249 668.579 594.252C667.98 588.828 668.957 582.207 664.494 578.012C661.307 575.019 651.419 575.058 647.33 575.925C642.67 578.174 641.5 582.246 641.35 587.264L642.288 600.246V623.217C642.276 626.793 641.039 637.14 643.828 639.377C646.873 641.792 647.882 635.919 648.122 634.206L649.351 622.22V615.264C649.749 613.319 650.718 610.963 653.204 611.68C655.855 612.448 656.67 615.895 657.131 618.222L659.877 628.211L660.46 634.206C660.85 636.919 662.457 641.236 666.054 640.374C669.04 639.657 669.248 635.632 668.937 633.205ZM657.3 603.941C655.804 604.26 652.928 604.941 651.498 603.941C647.192 601.593 647.823 587.323 650.438 583.696C651.537 582.179 651.939 582.4 653.385 581.738C664.943 581.171 664.785 601.325 657.3 603.941ZM606.326 633.824C600.394 632.914 599.484 628.321 599.346 623.217C599.228 618.352 598.877 612.941 604.353 610.833C607.878 609.475 613.161 611.432 614.477 607.958C616.868 601.625 605.538 604.35 601.91 600.687C598.838 597.3 598.026 585.216 601.91 582.01H601.914C604.112 579.993 612.03 578.993 615.32 578.272V576.275C611.042 574.278 601.032 571.21 596.99 574.877C592.294 579.123 593.894 585.902 594.252 591.258L592.342 619.223C592.334 623.567 592.003 636.64 595.651 639.188C599.365 641.784 608.048 641.055 612.322 640.275C614.299 639.905 617.825 639.448 618.266 636.959C619.393 630.48 609.115 634.241 606.326 633.824ZM568.521 621.22V574.278L563.376 576.275C563.683 579.773 562.305 598.171 561.087 600.617C559.768 603.251 553.725 605.111 551.409 601.814C550.231 600.124 550.471 597.241 550.302 595.252L549.352 588.261C549.411 582.518 552.937 578.335 544.397 573.278C540.93 580.47 541.99 582.03 544.397 589.261C540.97 591.644 540.741 596.26 540.493 600.246L541.399 615.225C541.419 619.763 540.658 633.765 542.569 637.057C543.699 639.007 544.586 639.228 546.394 640.197C547.265 638.877 548.375 637.408 548.88 635.911C550.42 631.366 547.765 617.651 550.18 613.468C554.009 606.848 561.899 608.927 563.148 616.226C564.523 624.296 558.929 631.078 565.373 640.197C575.643 633.824 568.907 629.968 568.521 621.22ZM521.51 591.258C521.242 587.39 521.663 581.218 519.634 577.804C516.448 572.4 502.026 572.27 496.877 574.298C490.338 581.218 494.62 601.065 494.431 610.235C494.281 618.195 492.256 617.825 492.477 628.199C492.524 630.196 492.544 634.332 493.69 635.97C497.508 641.445 499.387 634.135 499.446 631.208C499.536 626.163 498.815 617.663 501.585 613.378C504.382 609.014 508.447 610.841 512.433 609.935C515.77 609.175 518.295 607.029 520.064 604.15C523.243 598.966 521.88 596.65 521.51 591.258ZM505.579 601.912C504.342 601.605 503.613 601.093 503.042 599.935C502.625 599.088 501.813 585.476 502.046 584.397C502.495 582.258 503.491 582.187 503.873 581.837C506.599 581.191 510.483 580.801 512.693 583.007C515.857 586.173 515.089 604.252 505.579 601.912ZM521.423 600.246L520.422 599.246H521.423V600.246ZM469.192 634.221C466.832 632.737 456.425 632.725 453.498 633.205L452.3 624.217C451.682 620.011 449.401 613.161 454.715 610.463C456.496 609.872 463.157 610.235 465.485 610.463C465.836 608.124 466.801 604.858 464.875 603.263C462.668 601.444 457.764 603.062 454.837 601.223C451.359 599.037 447.337 582.089 455.534 579.702L466.486 578.272L464.485 573.278L457.772 574.156C454.778 574.109 450.752 572.36 448.085 574.156C445.414 576.236 444.56 582.219 444.508 585.263V612.232C444.508 618.132 443.086 635.773 448.073 639.208C449.582 640.244 451.749 640.165 453.498 640.197C457.823 640.263 461.818 641.024 464.485 637.199H471.477C470.716 635.86 470.677 635.159 469.192 634.221ZM422.464 632.205L420.664 623.217L420.026 605.15C420.046 599.545 422.543 598.21 420.644 589.261C419.403 581.388 421.775 578.922 420.644 576.874C419.317 575.208 416.248 574.869 414.932 578.402C413.51 582.207 413.573 589.139 413.542 593.255C413.514 597.521 413.782 601.345 408.527 602.094C400.578 603.232 401.724 598.568 401.338 594.252L400.566 588.261C400.388 584.633 401.996 583.066 400.566 578.292C398.939 571.852 394.255 574.148 393.774 580.261V589.131L392.727 596.26V607.237L393.566 620.219C393.644 627.423 391.675 635.171 397.56 640.197C404.93 628.699 399.908 623.059 400.558 610.235C402.835 610.002 407.948 608.667 409.528 609.045C413.471 609.983 414.381 613.74 414.523 617.222C414.869 625.714 412.175 632.595 417.54 640.197C421.156 637.896 422.582 636.778 422.464 632.205ZM368.89 616.226L368.323 610.404C366.562 603.212 358.612 602.873 356.127 600.664C353.74 598.537 353.369 595.24 353.019 592.255C351.699 580.939 360.074 580.119 361.799 580.809L367.594 587.26C368.799 582.999 370.06 577.504 364.596 576.275V574.416C360.322 574.29 356.985 572.341 352.79 574.416C340.945 580.801 344.49 599.947 348.047 604.102C351.912 608.616 360.7 608.147 364.588 614.288C367.724 619.231 365.356 628.9 359.621 631.039C354.866 632.815 352.479 624.895 349.292 623.386C346.535 622.067 345.826 625.194 345.727 627.191C345.546 630.846 346.657 633.375 349.682 635.521C355.808 639.846 367.503 639.586 370.08 631.197C371.588 626.281 369.579 621.019 368.89 616.226ZM716.417 586.264C715.558 580.171 717.414 572.463 704.221 572.281C692.013 572.12 696.469 573.778 691.233 575.275L690.256 593.255L691.233 615.225L695.228 616.226L691.371 623.386V637.199L696.358 638.625C699.534 638.857 710.623 637.81 712.71 635.762C717.713 630.878 716.197 615.146 716.205 608.238C716.228 598.509 717.564 599.947 717.954 595.252C718.245 591.825 716.866 589.521 716.417 586.264ZM712.131 604.24V614.229C712.202 619.27 711.942 629.55 706.116 631.567C702.311 632.874 697.359 629.838 696.477 626.033C694.889 619.113 698.115 612.87 698.226 606.237C698.336 599.557 698.265 594.913 697.359 588.261C696.689 583.357 695.488 580.738 700.286 577.965C705.23 577.445 711.481 579.462 712.112 585.263C712.419 588.091 710.772 589.399 710.772 593.255L712.131 604.24ZM302.675 621.22L300.339 615.225L294.575 590.258C293.886 586.512 293.075 586.185 292.22 583.267C290.979 579.064 292.318 574.889 286.634 573.089C283.085 571.962 280.201 572.561 278.933 576.327L276.474 592.255L269.553 620.219C268.643 623.595 264.948 634.013 267.454 636.581C272.878 642.122 277.132 626.234 277.692 623.217C282.017 622.866 288.871 621.279 292.566 624.257C296.474 627.392 296.722 643.143 304.353 636.849L306.661 634.202C302.324 627.679 304.601 627.51 302.675 621.22ZM290.179 613.209C288.084 614.867 280.591 614.599 279.5 610.125C278.992 608.045 280.461 605.209 281.15 603.244L283.687 595.252C288.962 597.347 288.73 602.145 290.179 607.237C290.876 609.132 291.928 611.653 290.179 613.209ZM232.114 629.07C231.642 628.061 231.086 615.328 231.433 614.288C231.894 612.858 232.642 612.019 233.891 611.212C236.987 609.195 245.598 609.443 245.539 605.28C245.461 600.337 237.909 604.76 233.221 600.006C232.004 598.765 230.826 596.918 230.346 595.252C229.455 592.164 230.357 582.168 233.052 580.163C234.501 579.091 243.518 577.544 245.728 577.276C244.681 575.748 244.239 574.668 242.404 573.849L229.747 572.711C228.687 572.9 227.986 573.199 227.139 573.881C223.783 576.586 223.775 581.368 223.751 585.263L224.673 599.246L222.794 611.231L223.751 628.211C223.775 631.457 223.621 635.123 226.32 637.329C230.724 641.276 245.35 638.377 250.723 637.329C247.308 625.123 236.038 637.577 232.114 629.07ZM198.91 624.217C198.37 620.192 197.543 608.675 195.215 605.997C191.488 601.723 184.638 601.692 182.081 594.252C179.753 587.52 184.406 581.34 188.79 581.151C191.469 581.041 194.604 583.786 196.783 585.263C199.879 572.309 187.333 571.092 181.821 574.05C174.758 577.823 173.726 585.094 173.809 592.255C173.888 599.155 174.597 602.472 180.801 606.379C187.86 610.814 193.505 607.029 194.455 617.222C194.983 622.807 192.749 632.867 184.886 629.66C180.183 627.731 181.932 624.284 175.806 622.216C175.846 626.443 175.747 631.086 178.812 634.403C186.096 642.26 196.582 637.42 198.91 631.118C199.749 628.802 199.221 626.573 198.91 624.217ZM125.86 517.471L96.8945 523.591C94.0188 524.06 83.1582 525.151 81.4013 526.36C78.9944 528.026 76.7254 534.497 75.9178 537.326C89.8511 534.517 88.2439 533.099 98.8917 528.786L113.873 523.253L141.842 515.352C137.607 514.154 130.268 516.45 125.86 517.471ZM136.851 510.479C127.467 512.527 120.597 511.755 110.879 516.352C115.433 518.097 123.126 516.143 127.861 514.981L158.824 508.36C154.16 506.812 141.94 509.361 136.851 510.479ZM427.526 441.576C423.232 439.736 418.296 436.034 413.542 436.672L358.605 451.572L266.705 477.82L216.759 491.384C221.415 492.928 228.896 490.223 233.741 489.175L275.695 478.06L310.656 468.69L348.615 456.169L361.598 453.281L383.576 446.349L415.539 437.452C406.9 444.341 397.84 444.612 387.57 447.318L366.593 453.998L338.625 461.443L313.653 469.69L283.687 477.831L261.71 484.511L235.738 490.754L218.76 495.489L203.775 499.093L156.827 517.348C166.348 510.546 171.78 510.208 181.798 506.292L194.786 499.821L215.762 493.381C210.988 492.05 203.606 495.229 198.78 496.497L162.818 505.363H172.808C166.817 509.03 154.96 511.35 147.837 512.354L150.835 514.355L135.85 519.716L128.858 521.216L114.873 525.978C104.903 529.235 105.864 526.939 94.8934 532.898C89.7723 535.675 77.6236 537.652 79.2544 543.186C81.7007 551.544 95.6458 543.206 99.8884 541.67L114.873 535.415L163.819 520.098L177.803 517.348L197.783 512.476L232.745 502.519L256.715 496.635L279.689 489.537L325.641 478.249L349.615 470.328L363.596 467.264L392.565 459.513L403.552 455.857L417.536 452.691L439.513 445.44L427.526 441.576Z" fill="white"/>
<path d="M106.881 236.795L137.847 239.701C137.099 242.506 134.231 247.232 135.098 249.481C135.949 251.707 139.781 253.416 141.842 254.373L159.824 261.624L194.786 273.677C201.967 275.914 209.121 278.911 216.763 278.612L231.748 276.654L235.242 291.637L232.784 302.622L236.061 318.605L236.739 328.594C242.833 327.117 244.692 327.515 250.723 328.594C249.234 331.658 244.98 338.071 244.428 340.58C243.05 346.952 256.266 354.452 261.71 353.715C266.146 353.116 272.578 347.472 276.695 345.334C284.487 341.288 298.389 340.56 306.661 343.577L298.491 356.563C294.185 365.062 293.945 372.14 282.691 374.539C285.436 395.335 276.679 395.623 279.693 418.483C261.403 415.005 256.766 393.327 256.719 377.532C252.004 377.154 238.779 374.956 235.254 378.131C232.658 380.467 232.028 388.068 231.748 391.515C225.614 390.554 223.578 389.427 218.76 385.524C212.839 402.453 202.081 404.552 197.783 415.486C195.506 421.28 199.371 429.716 190.799 431.016C185.745 431.784 184.098 425.852 181.278 422.776C177.713 418.881 172.489 416.084 167.813 413.737C153.159 406.356 131.663 398.447 115.87 393.531L91.8955 386.521L90.895 395.509C80.9365 392.673 56.7532 377.69 46.9444 371.739C40.87 368.052 27.3465 360.273 22.9699 355.558L100.885 361.549L95.89 374.535L141.838 391.322C149.98 394.418 160.277 397.923 168.806 399.424C176.775 400.822 186.486 401.669 193.777 397.427C205.036 390.865 208.49 374.598 199.442 364.716C191.24 355.759 180.742 353.51 169.807 349.516L116.867 330.398L99.8844 324.175C98.0684 323.505 95.1218 322.119 93.2034 322.946C90.8044 323.986 90.9383 327.42 90.895 329.587V333.58C68.701 324.021 47.7835 311.858 26.9683 299.633C20.7442 295.978 4.152 287.785 0 283.642L45.9478 284.811L107.881 291.633L96.8945 306.616L117.871 313.915L171.812 332.001C180.061 334.356 190.271 337.574 198.78 338.252C209.109 339.071 221.025 331.3 222.325 320.595C223.176 313.623 216.692 298.621 211.445 294.138C207.939 291.145 191.106 286.08 185.796 284.311L128.858 265.665L126.861 275.654C112.368 269.411 94.1882 259.533 80.9128 250.994C74.4603 246.838 65.7899 241.525 60.9328 235.704L106.881 236.795Z" fill="white"/>
<path d="M285.684 356.551C273.327 353.053 268.793 362.703 260.709 362.085C257.345 361.825 252.63 358.119 249.723 356.24C243.101 351.978 238.216 349.174 230.743 346.566L239.737 335.577C232.303 332.753 229.124 339.603 223.751 342.97C218.138 346.484 210.649 342.139 207.718 348.284C207.557 349.56 206.852 352.238 206.982 353.558C205.587 350.761 205.926 348.725 206.773 345.566H190.791L201.778 352.348L217.759 363.542C215.483 371.632 218.157 376.678 224.752 381.522L225.748 366.539L233.741 368.359C240.812 369.206 251.145 367.906 257.676 371.372C265.854 375.709 262.888 384.488 274.694 388.514L272.697 369.537L276.305 367.946L285.684 356.551ZM243.731 362.546C238.815 363.715 231.307 362.345 226.788 359.978C225.09 359.087 222.455 357.154 223.204 354.865C223.952 352.589 227.04 353.187 228.746 353.617C233.213 354.743 239.666 358.229 243.731 360.549V362.546Z" fill="white" stroke="black" stroke-width="3.91" stroke-miterlimit="15.62"/>
<path d="M532.409 334.581C530.452 329.878 527.466 310.992 527.414 305.616C535.797 310.949 539.492 326.92 532.409 334.581Z" fill="white"/>
<path d="M477.831 318.972C472.867 314.336 466.324 326.621 466.044 330.587L467.392 341.572C467.801 348.843 464.926 358.402 463.488 365.571C467.624 366.638 475.243 368.757 478.89 365.571C480.986 363.794 481.955 356.382 482.314 353.554C483.425 344.585 485.134 325.782 477.831 318.972ZM495.451 316.605C484.512 328.177 485.63 332.052 485.461 346.566C485.422 350.06 483.235 359.926 484.492 361.915C486.761 365.46 493.623 366.441 497.448 366.539C498.945 355.224 500.466 348.382 500.446 336.578C500.434 329.854 500.304 321.705 495.451 316.605ZM513.43 316.605C510.424 317.211 504.212 318.519 502.455 321.237C501.356 322.974 502.412 329.086 502.455 331.584V361.545C506.158 360.277 508.277 359.068 510.346 355.535C514.631 348.252 513.43 325.782 513.43 316.605ZM524.421 305.616C519.725 308.113 519.284 310.72 517.775 315.604C515.51 322.926 514.612 338.086 516.428 345.566C536.337 338.783 525.638 320.067 524.421 305.616Z" fill="white"/>
<path d="M427.605 316.624C425.777 309.862 419.675 310.72 416.24 315.624C411.273 322.714 411.233 335.337 412.415 343.569C412.864 346.716 413.502 351.549 416.189 353.636C418.399 355.365 421.921 354.775 424.528 354.554V342.569C424.54 337.275 425.08 332.801 425.958 327.59C426.435 324.793 428.247 318.988 427.605 316.624ZM442.921 321.808C440.593 318.771 434.448 316.144 431.221 319.2C428.464 321.808 427.818 329.854 427.377 333.58C425.848 346.346 424.001 362.833 440.514 365.543C443.098 359.009 444.237 354.645 444.497 347.563L445.485 333.58C445.426 330.315 444.906 324.411 442.921 321.808ZM461.558 327.59C459.233 323.675 457.185 320.319 452.517 319.649C447.364 321.894 447.546 324.45 447.506 329.587L446.218 350.56C445.867 353.428 444.327 360.068 444.859 362.506C445.655 366.189 451.682 370.577 455.456 369.726C459.852 368.737 461.987 361.356 463.058 357.551C465.576 348.622 466.454 335.806 461.558 327.59Z" fill="white"/>
<path d="M414.987 310.661C415.007 313.328 412.053 319.043 411.225 322.595C409.398 330.394 409.847 337.897 409.398 340.513C408.96 343.148 407.499 344.837 404.623 343.908C401.527 342.911 399.179 338.445 398.119 335.577C394.503 325.809 401.606 311.977 410.504 307.404C413.242 307.093 414.96 307.152 414.991 310.661H414.987Z" fill="white"/>
<path d="M402.453 303.619C402.91 309.661 399.065 323.423 392.553 325.1C387.409 326.428 383.572 317.562 382.906 313.603C381.488 305.273 387.271 298.502 394.562 295.387C400.235 294.938 402.063 298.333 402.453 303.619Z" fill="white"/>
<path d="M579.24 205.742C573.327 196.545 577.12 178.856 583.742 170.825C586.571 167.391 589.435 165.713 593.342 163.795C588.588 177.419 583.403 180.822 583.352 196.754C586.858 194.395 587.607 190.613 589.147 186.765L597.908 161.798C609.233 122.108 607.027 77.8209 581.115 43.9441C563.045 20.3158 539.063 8.35792 510.436 2.59954C504.63 1.42975 497.33 0.0708966 491.457 0H466.486C453.317 0.0196935 438.974 4.17502 426.526 8.31854C380.03 23.8213 342.981 56.8985 334.63 106.865C330.963 128.13 331.136 142.589 334.63 163.795C336.009 171.463 338.065 182.472 342.619 188.762L343.62 158.801C346.247 164.212 349.773 176.769 350.285 182.771C351.281 194.497 344.289 198.16 341.481 204.742C339.814 209.216 340.764 215.069 341.481 219.724C342.26 227.184 341.374 234.487 348.615 238.701L344.62 213.73C354.586 221.032 356.265 233.057 356.107 244.692C356.265 249.399 354.925 252.951 356.107 258.674C356.993 264.748 361.201 270.459 365.605 274.594C373.499 281.999 380.578 277.194 388.571 272.661C398.32 267.127 408.078 262.353 419.537 262.688C427.247 262.908 434.109 268.812 434.518 276.654C429.334 273.708 421.495 269.25 415.539 268.872C399.947 267.883 389.299 285.552 385.573 298.624C391.505 295.875 398.088 287.907 403.146 296.679C403.792 297.797 404.403 299.373 404.761 300.621C405.269 302.35 405.391 303.847 405.549 305.616C411.336 303.749 414.322 302.358 417.536 308.613C427.089 307.234 424.879 311.508 430.804 314.037C434.83 315.754 436.216 313.048 445.509 320.598C447.195 319.448 450.603 316.711 452.497 316.514C456.496 316.093 461.317 322.737 463.488 325.589C466.324 322.962 471.079 315.655 473.565 314.655C478.989 312.489 482.964 322.903 484.465 326.589C487.892 322.525 494.372 308.365 499.446 317.601C501.415 317.231 514.47 313.016 515.439 312.04C517.058 310.409 517.925 306.904 519.973 305.017C522.553 302.662 524.811 303.887 527.194 302.851C531.062 301.173 531.59 294.292 531.31 290.633C530.483 279.557 517.117 273.878 510.432 266.666C516.818 266.804 521.352 267.595 526.327 271.987C530.972 276.083 535.096 283.614 540.402 286.899C548.462 291.913 568.84 283.783 573.764 276.564C576.573 272.448 574.154 266.107 572.945 261.672C570.408 252.412 569.848 242.108 579.358 236.704C576.868 246.07 577.042 251.266 579.358 260.671C582.986 259.714 589.245 258.777 592.125 256.677C597.368 252.841 598.463 239.831 598.326 233.707C597.979 219.516 586 216.27 579.24 205.742ZM434.318 217.727C429.902 224.25 431.922 228.732 429.523 234.707L430.634 219.724L451.501 189.763C440.132 194.584 431.915 198.81 422.575 207.172C416.339 212.741 412.911 219.484 410.024 222.08C403.634 227.874 383.737 233.447 375.583 228.713C379.538 228.531 387.042 227.653 390.528 225.967C392.364 225.077 394.673 223.777 393.605 221.402C392.656 219.287 387.491 214.97 385.573 213.312C380.361 208.787 371.38 201.327 367.854 195.753C361.051 184.989 371.919 161.617 381.618 155.736C385.073 153.637 391.498 152.837 395.563 151.809L388.571 145.559L377.584 143.818C381.177 142.861 385.853 141.644 389.567 142.022H389.571C404.513 143.518 411.296 159.738 422.531 166.981C433.711 174.173 449.57 175.78 462.487 175.78C461.439 198.341 444.536 202.615 434.318 217.727ZM490.456 255.681C491.374 244.593 485.162 240.978 482.026 244.211C479.087 247.24 479.99 251.856 478.469 255.681C478.469 252.821 478.729 247.201 477.732 244.712C475.562 239.3 471.429 239.989 468.932 244.712C466.182 249.926 467.392 258.863 465.485 263.668L463.488 240.698C459.131 242.825 458.954 243.762 456.496 247.689C450.63 238.15 448.716 246.488 445.509 251.683C443.977 240.119 443.721 234.664 448.822 223.718C453.407 213.911 461.766 205.691 463.488 194.757H465.485C465.454 205.293 461.798 208.81 469.48 217.724C475.294 204.013 474.475 202.197 474.475 187.766L477.921 199.747L484.973 215.727L487.561 231.71L491.646 240.698C493.194 245.145 493.273 251.856 490.456 255.681ZM567.52 173.114C569.34 175.639 569.328 178.793 569.368 181.771V195.753C569.309 204.962 565.645 207.451 559.382 213.73C549.183 223.97 543.987 227.176 530.412 231.71C534.178 238.54 538.023 239.65 545.397 240.698C541.371 245.862 532.851 242.187 528.415 239.052C523.558 235.613 518.334 227.625 514.431 222.722C508.179 214.892 504.949 211.973 496.448 206.742C496.448 220.355 494.462 223.541 503.444 234.707C489.826 230.619 495.758 213.871 491.106 202.745C487.458 193.997 480.498 188.431 479.47 178.778L498.445 179.774H498.449C515.045 179.743 528.415 171.976 542.4 163.945C549.502 159.868 561.3 150.86 569.368 156.804C560.15 157.253 559.169 159.998 551.389 163.795C555.746 166.052 564.814 169.356 567.52 173.114Z" fill="white"/>
<path d="M521.423 107.865V110.863L524.421 112.86V106.865L521.423 107.865ZM552.39 77.9036C552.378 73.0393 552.716 69.5929 550.92 64.9177C548.293 58.0683 541.501 50.7777 537.495 43.9441C534.647 39.0916 534.119 35.1056 532.41 29.9617C525.807 32.2816 518.925 27.886 512.433 26.3066C506.678 24.9083 482.396 21.974 476.472 21.974L485.461 28.9652L473.474 22.872C466.285 19.595 455.247 17.1176 447.506 18.9767C450.5 28.0042 455.345 28.6737 457.855 32.7109C459.332 35.7555 456.555 39.3988 457.855 42.6364C460.75 48.1821 471.347 39.8281 474.474 37.9533C471.126 34.8654 469.889 35.0663 465.485 34.956C475.353 30.0011 475.853 39.6903 481.676 43.9559C485.78 46.9533 491.075 46.2837 495.802 52.9558C500.265 59.2459 496.661 62.6096 500.946 68.9155C508.077 79.42 511.472 74.8865 517.424 89.889C513.41 87.2895 514.419 85.4107 511.783 81.9959C508.277 77.4546 503.842 76.4935 498.449 77.5215C496.471 77.9036 493.643 78.4629 492.524 80.3298C490.996 82.8466 492.863 85.4934 494.683 87.2107C498.37 90.7083 504.409 92.7249 507.698 97.8885C509.794 101.193 509.057 103.481 510.117 106.865C511.043 109.831 513.383 113.159 514.041 116.853L513.43 129.835L514.431 144.818C527.434 145.106 534.178 151.778 540.383 148.635C547.312 145.118 547.741 130.308 549.809 122.848L554.856 101.871L552.39 77.9036ZM505.441 167.789C501.825 158.761 495.951 156.953 487.462 154.807L493.454 153.806L495.451 143.822C487.959 143.837 481.026 144.499 478.469 152.806L483.464 153.806C478.079 154.846 472.225 152.479 467.482 149.911C456.027 143.707 447.754 133.632 442.551 121.848C438.993 113.817 438.895 109.114 437.985 107.144C436.598 104.179 431.651 100.484 429.173 96.8802C426.297 92.6816 426.549 89.696 426.526 84.8948H428.527L429.835 94.8833L446.506 112.86C449.783 104.608 443.91 89.0895 439.163 82.1062L434.518 76.9031C438.753 75.1465 437.394 71.8222 436.768 67.915C434.629 54.7322 434.7 54.3816 438.812 41.9472C439.994 38.3826 440.809 36.3345 437.516 33.9595C437.205 40.289 436.189 42.7546 432.521 47.9419L431.521 46.9414C433.912 43.0264 436.035 38.5402 434.518 33.9595C431.363 36.7953 427.266 41.4588 427.116 45.945C427.018 49.1392 428.925 51.3961 428.523 56.93C425.367 51.1874 426.206 45.3029 420.514 46.65C416.41 47.6189 412.742 51.853 410.134 54.9331C404.15 62.003 400.897 66.6783 399.01 75.9067C397.737 82.0865 397.757 92.0356 395.271 96.8802C391.998 103.261 382.646 111.221 378.982 118.85C376.642 123.726 376.603 127.61 376.583 132.833C381.48 130.647 388.429 124.585 393.566 124.695C406.349 124.983 416.488 142.23 424.572 149.631C435.956 160.049 460.407 166.461 475.471 162.794L472.477 158.801C482.515 163.625 493.805 170.089 505.441 167.789ZM424.528 66.9146V61.9203L429.523 62.9208C428.188 66.245 428.054 66.308 424.528 66.9146Z" fill="white" stroke="black" stroke-width="3.91" stroke-miterlimit="15.62"/>
</g>
<defs>
<clipPath id="clip0_912_109">
<rect width="901" height="641" fill="white"/>
</clipPath>
</defs>
</svg>
