<?xml version="1.0" encoding="UTF-8"?>
<svg id="Calque_2" data-name="Calque 2" xmlns="http://www.w3.org/2000/svg" viewBox="0 0 394.01 46.31">
  <defs>
    <style>
      .cls-1 {
        fill: #0a1e8c;
        opacity: .2;
      }

      .cls-2 {
        fill: none;
        stroke: #ffe7b0;
        stroke-linecap: round;
        stroke-miterlimit: 10;
      }

      .cls-3 {
        fill: #ffe7b0;
      }
    </style>
  </defs>
  <g id="Calque_7" data-name="Calque 7">
    <g>
      <g>
        <path class="cls-3" d="M378.29,16.7c-.54,2.06-1.76,3.79-3.29,5.18-.6.56-1.25,1.06-1.93,1.51-.04.02-.09.05-.13.08-.07.05-.15-.01-.17-.08,0-.01,0-.02.01-.03,0-.02.01-.03.02-.04,0-.01,0-.02,0-.02l.8-.71s.08-.07.12-.11c2.7-2.39,4.62-6.38,3.15-9.88-.62-1.47-1.76-2.67-3.26-2.96-1.86-.43-4,.9-3.91,2.85-.05,1.5,1.9,3.02,3.25,1.87.45-.37.73-1,.93-1.69.02-.11.2-.11.21.01.54,3.23-2.97,4.6-5.22,2.46-2.21-2.06-1.37-5.8,1.34-6.95.05-.02.1-.04.15-.06,1.17-.5,2.45-.52,3.65-.2,3.66,1.05,5.19,5.38,4.27,8.77Z"/>
        <path class="cls-3" d="M374.02,38.84c-1.21.33-2.51.3-3.69-.22-.04-.01-.07-.02-.11-.04-2.71-1.15-3.55-4.89-1.34-6.95,2.25-2.14,5.76-.76,5.22,2.47-.02.11-.19.12-.21.01-.2-.69-.48-1.33-.93-1.7-1.35-1.15-3.3.38-3.25,1.88-.09,1.94,2.05,3.27,3.91,2.84,1.5-.29,2.64-1.48,3.26-2.95,1.49-3.56-.51-7.62-3.27-10l-.48-.43-.32-.28s-.04-.05-.04-.08c0-.01,0-.02.01-.03,0-.02.01-.03.02-.04.04-.04.09-.06.14-.02.04.03.09.06.13.09.44.29.87.61,1.29.95,1.82,1.48,3.31,3.4,3.93,5.74.92,3.38-.61,7.72-4.27,8.76Z"/>
        <path class="cls-3" d="M383.96,17.92l-.25-.18-8.71,4.14-1.27.6-1.64.78,1.04.49,1.23.59,9.35,4.44.25-.18c.07-.04,6.78-4.82,10.05-4.82v-1.04c-3.25,0-9.98-4.77-10.05-4.82ZM383.61,27.58l-9.09-4.32,9.09-4.32c1.01.7,4.75,3.22,7.89,4.32-3.15,1.1-6.88,3.62-7.89,4.32Z"/>
        <path class="cls-3" d="M383.44,20.78l-5.08,2.41,5.08,2.41s3.37-2.41,5.08-2.41c-1.7,0-5.08-2.41-5.08-2.41Z"/>
      </g>
      <g>
        <path class="cls-3" d="M23.8,38.58c-.06.03-.12.05-.18.07-1.17.49-2.43.51-3.62.19-3.66-1.04-5.2-5.38-4.28-8.76.55-2.07,1.78-3.81,3.32-5.2.6-.56,1.24-1.05,1.92-1.49.04-.04.08-.06.12-.09.03-.02.07-.02.1-.01,0,.01.02.02.03.03.06.05.03.13-.03.16l-.78.7s-.08.07-.12.11c-2.7,2.39-4.62,6.38-3.15,9.89.63,1.47,1.77,2.66,3.27,2.95,1.85.43,3.99-.9,3.91-2.84.04-1.5-1.91-3.03-3.25-1.88-.45.37-.74,1.01-.94,1.7-.02.11-.19.1-.2-.01-.55-3.24,2.97-4.61,5.22-2.47,2.2,2.06,1.36,5.8-1.34,6.95Z"/>
        <path class="cls-3" d="M25.14,15.14c-2.26,2.14-5.77.77-5.22-2.46.01-.12.18-.12.2-.01.2.69.49,1.32.94,1.69,1.34,1.15,3.29-.37,3.25-1.87.08-1.94-2.06-3.28-3.91-2.85-1.5.29-2.64,1.49-3.27,2.96-1.49,3.55.51,7.61,3.27,9.99l.48.43.3.27h.02s.01.02.01.03c.06.05.03.13-.03.16-.03.01-.07.01-.1,0-.04-.03-.08-.05-.12-.08-.44-.28-.86-.59-1.26-.93-1.84-1.48-3.35-3.4-3.98-5.76-.92-3.39.62-7.72,4.28-8.77,1.19-.31,2.46-.3,3.63.19.06.02.11.04.17.07,2.7,1.15,3.54,4.89,1.34,6.95Z"/>
        <path class="cls-3" d="M20.88,23.02l-1.18-.56-9.4-4.47-.25.18c-.07.05-6.77,4.82-10.05,4.82v1.04c3.25,0,9.99,4.78,10.05,4.82l.25.18,8.74-4.15,1.24-.59,1.64-.78-1.04-.49ZM10.41,27.83c-1.01-.7-4.75-3.22-7.9-4.32,3.15-1.1,6.89-3.62,7.9-4.32l9.09,4.32-9.09,4.32Z"/>
        <path class="cls-3" d="M10.58,26l5.08-2.41-5.08-2.41s-3.37,2.41-5.08,2.41c1.7,0,5.08,2.41,5.08,2.41Z"/>
      </g>
      <g>
        <path class="cls-1" d="M376.88,34.18c-.62,1.47-1.76,2.66-3.26,2.95-1.86.43-4-.9-3.91-2.84-.05-1.5,1.9-3.03,3.25-1.88.45.37.73,1.01.93,1.7.02.11.19.1.21-.01.54-3.23-2.97-4.61-5.22-2.47-2.21,2.06-1.37,5.8,1.34,6.95.04.02.07.03.11.04-3.34,1.74-1.11,7.19-4.31,7.19H27.99c-3.17,0-1.3-5.37-4.37-7.16.06-.02.12-.04.18-.07,2.7-1.15,3.54-4.89,1.34-6.95-2.25-2.14-5.77-.77-5.22,2.47.01.11.18.12.2.01.2-.69.49-1.33.94-1.7,1.34-1.15,3.29.38,3.25,1.88.08,1.94-2.06,3.27-3.91,2.84-1.5-.29-2.64-1.48-3.27-2.95-1.47-3.51.45-7.5,3.15-9.89l1.64-.78-1.04-.49-.48-.43c-2.76-2.38-4.76-6.44-3.27-9.99.63-1.47,1.77-2.67,3.27-2.96,1.85-.43,3.99.91,3.91,2.85.04,1.5-1.91,3.02-3.25,1.87-.45-.37-.74-1-.94-1.69-.02-.11-.19-.11-.2.01-.55,3.23,2.96,4.6,5.22,2.46,2.2-2.06,1.36-5.8-1.34-6.95-.06-.03-.11-.05-.17-.07,3.09-1.89,1.18-7.62,4.36-7.62h338.03c3.18,0,1.23,5.73,4.35,7.63-.05.02-.1.04-.15.06-2.71,1.15-3.55,4.89-1.34,6.95,2.25,2.14,5.76.77,5.22-2.46-.01-.12-.19-.12-.21-.01-.2.69-.48,1.32-.93,1.69-1.35,1.15-3.3-.37-3.25-1.87-.09-1.95,2.05-3.28,3.91-2.85,1.5.29,2.64,1.49,3.26,2.96,1.47,3.5-.45,7.49-3.15,9.88l-1.64.78,1.04.49.48.43c2.76,2.38,4.76,6.44,3.27,10Z"/>
        <path class="cls-3" d="M366.02,46.31H27.99c-2.06,0-2.42-1.86-2.75-3.49-.29-1.47-.59-2.99-1.87-3.73l-.96-.56,1.05-.35s.08-.02.11-.04c1.19-.51,2.03-1.58,2.26-2.89.22-1.24-.16-2.43-1.04-3.25-1.1-1.04-2.44-1.06-3.27-.61-.27.14-.49.33-.67.55.65-.49,1.48-.56,2.28-.18,1.01.48,1.7,1.53,1.67,2.55.04.94-.38,1.84-1.18,2.51-.92.76-2.2,1.07-3.34.81-1.54-.3-2.86-1.48-3.62-3.24-1.6-3.81.5-8,3.28-10.46l.12-.08.69-.33-.21-.12-.48-.43c-2.76-2.38-5.01-6.71-3.4-10.56.76-1.77,2.08-2.96,3.64-3.26,1.12-.26,2.4.05,3.32.81.81.67,1.23,1.57,1.19,2.55.03.99-.66,2.03-1.66,2.51-.8.38-1.63.31-2.3-.19.18.23.4.41.67.56.84.45,2.18.43,3.28-.61.88-.83,1.26-2.01,1.04-3.25-.23-1.3-1.07-2.38-2.23-2.88-.06-.03-.09-.04-.13-.06l-1.02-.34.92-.56c1.3-.79,1.59-2.42,1.88-4,.32-1.73.67-3.7,2.74-3.7h338.03c2.06,0,2.41,1.96,2.72,3.68.28,1.58.58,3.22,1.89,4.02l.85.52-1.08.43c-1.16.49-2,1.57-2.23,2.87-.22,1.24.16,2.42,1.05,3.25,1.1,1.04,2.43,1.06,3.27.62.27-.14.49-.33.67-.55-.67.5-1.5.56-2.3.17-1-.48-1.68-1.53-1.64-2.54-.05-.94.37-1.84,1.17-2.51.92-.77,2.2-1.08,3.35-.81,1.54.3,2.86,1.48,3.61,3.25,1.6,3.8-.5,7.99-3.28,10.45l-.12.08-.69.33.2.12.48.43c2.76,2.38,5.01,6.71,3.4,10.57h0c-.74,1.76-2.06,2.95-3.63,3.25-1.13.26-2.42-.05-3.34-.82-.8-.67-1.21-1.57-1.17-2.54-.03-.98.64-2.03,1.65-2.51.8-.38,1.62-.32,2.29.16-.18-.22-.4-.4-.66-.54-.84-.44-2.17-.43-3.26.61-.89.83-1.27,2.01-1.05,3.25.23,1.3,1.07,2.38,2.24,2.88l1.27.32-1.12.62c-1.43.74-1.69,2.31-1.94,3.83-.26,1.6-.56,3.42-2.6,3.42ZM24.58,38.74c1.08,1.02,1.38,2.53,1.65,3.88.38,1.91.64,2.69,1.77,2.69h338.03c1.09,0,1.32-.75,1.62-2.58.22-1.35.49-2.98,1.71-4.04-1.12-.71-1.91-1.89-2.16-3.27-.28-1.58.21-3.09,1.35-4.15,1.25-1.19,3.03-1.5,4.41-.77,1.3.69,1.91,2.07,1.64,3.68-.05.3-.31.5-.6.5h0c-.29,0-.54-.21-.59-.49-.2-.67-.45-1.15-.76-1.4-.49-.42-1-.31-1.35-.14-.64.31-1.1,1-1.08,1.62-.03.69.26,1.3.81,1.76.68.57,1.64.8,2.49.61,1.25-.24,2.3-1.21,2.91-2.66h0c1.42-3.4-.63-7.27-3.14-9.43l-.43-.39-1.93-.91,2.53-1.2c2.49-2.23,4.36-5.95,2.97-9.27-.61-1.46-1.67-2.43-2.89-2.66-.87-.2-1.82.03-2.5.6-.55.46-.84,1.08-.81,1.73-.02.65.44,1.34,1.08,1.65.35.17.86.28,1.35-.14.31-.26.57-.73.77-1.45.04-.25.3-.46.61-.44.31.01.55.24.57.55.27,1.58-.35,2.95-1.64,3.64-1.39.74-3.16.43-4.42-.77-1.13-1.06-1.62-2.57-1.34-4.15.25-1.41,1.07-2.61,2.24-3.32-1.12-1.09-1.42-2.71-1.68-4.17-.35-1.99-.63-2.86-1.74-2.86H27.99c-1.11,0-1.39.88-1.76,2.88-.26,1.45-.56,3.06-1.67,4.14,1.17.7,2,1.91,2.25,3.33.28,1.58-.21,3.09-1.34,4.15-1.27,1.2-3.05,1.51-4.44.77-1.29-.69-1.89-2.06-1.62-3.67.02-.26.26-.49.56-.51.31-.03.57.19.62.49.19.65.45,1.13.77,1.39.49.42,1,.31,1.34.15.64-.3,1.11-1,1.09-1.62.03-.69-.27-1.31-.83-1.77-.69-.57-1.63-.8-2.47-.6-1.24.24-2.3,1.21-2.92,2.67-1.42,3.38.63,7.25,3.14,9.41l.43.39,1.93.91-2.53,1.2c-2.49,2.23-4.36,5.95-2.97,9.28.62,1.45,1.68,2.42,2.9,2.65.86.2,1.81-.03,2.49-.6.56-.46.85-1.08.82-1.73.02-.65-.46-1.35-1.1-1.66-.34-.16-.85-.27-1.33.14-.32.26-.58.75-.79,1.46-.04.24-.3.45-.6.44-.31-.01-.55-.24-.58-.54-.27-1.58.34-2.96,1.63-3.65,1.39-.74,3.17-.43,4.43.77,1.13,1.06,1.62,2.57,1.34,4.15-.25,1.41-1.07,2.62-2.25,3.33ZM376.88,34.18h0,0ZM19.65,33.94s-.02.06-.02.09c0-.03.02-.06.02-.09ZM20.41,33.97s0,.03,0,.04c0-.01,0-.03,0-.04ZM374.35,33.92s.01.04.02.06c0-.02,0-.04-.02-.06ZM19.64,12.81s0,.04.02.06c0-.02-.01-.04-.02-.06ZM374.38,12.76s-.02.06-.02.08c.01-.03.02-.06.02-.08ZM373.61,12.76s0,.03,0,.04c0-.01,0-.03,0-.04ZM20.42,12.72s0,.04,0,.06c0-.02,0-.04,0-.06Z"/>
      </g>
      <path class="cls-2" d="M372.91,8.74c-1.1,0-1.92-.23-2.54-.61"/>
      <path class="cls-2" d="M23.63,8.12c-.62.39-1.44.62-2.53.62"/>
      <path class="cls-2" d="M23.62,38.65c-.61-.36-1.43-.58-2.52-.58"/>
      <path class="cls-2" d="M372.91,38.09c-1.11,0-1.95.2-2.58.53"/>
    </g>
  </g>
</svg>