<svg width="31" height="31" viewBox="0 0 31 31" fill="none" xmlns="http://www.w3.org/2000/svg">
<rect x="1" y="1.23047" width="29" height="28.9969" fill="white" fill-opacity="0.1"/>
<rect x="1" y="1.23047" width="29" height="28.9969" stroke="white"/>
<path d="M15.4 22.8885C13.56 22.8885 12.1133 22.3618 11.06 21.3085C10.0067 20.2552 9.48 18.7152 9.48 16.6885V8.72851H11.48V16.6085C11.48 18.1685 11.82 19.3085 12.5 20.0285C13.1933 20.7485 14.1667 21.1085 15.42 21.1085C16.6867 21.1085 17.66 20.7485 18.34 20.0285C19.0333 19.3085 19.38 18.1685 19.38 16.6085V8.72851H21.32V16.6885C21.32 18.7152 20.7933 20.2552 19.74 21.3085C18.7 22.3618 17.2533 22.8885 15.4 22.8885Z" fill="white"/>
</svg>
